<?xml version="1.0" encoding="us-ascii" standalone="no"?><svg xmlns="http://www.w3.org/2000/svg" xmlns:xlink="http://www.w3.org/1999/xlink" contentStyleType="text/css" height="544px" preserveAspectRatio="none" style="width:606px;height:544px;background:#FFFFFF;" version="1.1" viewBox="0 0 606 544" width="606px" zoomAndPan="magnify"><defs/><g><!--cluster com--><g id="cluster_com"><path d="M8.5,6.0137 L38.5,6.0137 A3.75,3.75 0 0 1 41,8.5137 L48,30.6348 L596.5,30.6348 A2.5,2.5 0 0 1 599,33.1348 L599,534.5137 A2.5,2.5 0 0 1 596.5,537.0137 L8.5,537.0137 A2.5,2.5 0 0 1 6,534.5137 L6,8.5137 A2.5,2.5 0 0 1 8.5,6.0137 " fill="none" style="stroke:#000000;stroke-width:1.5;"/><line style="stroke:#000000;stroke-width:1.5;" x1="6" x2="48" y1="30.6348" y2="30.6348"/><text fill="#000000" font-family="sans-serif" font-size="14" font-weight="bold" lengthAdjust="spacing" textLength="29" x="10" y="23.1211">com</text></g><!--cluster curiositees--><g id="cluster_curiositees"><path d="M32.5,51.0137 L112.5,51.0137 A3.75,3.75 0 0 1 115,53.5137 L122,75.6348 L572.5,75.6348 A2.5,2.5 0 0 1 575,78.1348 L575,510.5137 A2.5,2.5 0 0 1 572.5,513.0137 L32.5,513.0137 A2.5,2.5 0 0 1 30,510.5137 L30,53.5137 A2.5,2.5 0 0 1 32.5,51.0137 " fill="none" style="stroke:#000000;stroke-width:1.5;"/><line style="stroke:#000000;stroke-width:1.5;" x1="30" x2="122" y1="75.6348" y2="75.6348"/><text fill="#000000" font-family="sans-serif" font-size="14" font-weight="bold" lengthAdjust="spacing" textLength="79" x="34" y="68.1211">curiositees</text></g><!--cluster common--><g id="cluster_common"><path d="M56.5,96.0137 L116.5,96.0137 A3.75,3.75 0 0 1 119,98.5137 L126,120.6348 L548.5,120.6348 A2.5,2.5 0 0 1 551,123.1348 L551,486.5137 A2.5,2.5 0 0 1 548.5,489.0137 L56.5,489.0137 A2.5,2.5 0 0 1 54,486.5137 L54,98.5137 A2.5,2.5 0 0 1 56.5,96.0137 " fill="none" style="stroke:#000000;stroke-width:1.5;"/><line style="stroke:#000000;stroke-width:1.5;" x1="54" x2="126" y1="120.6348" y2="120.6348"/><text fill="#000000" font-family="sans-serif" font-size="14" font-weight="bold" lengthAdjust="spacing" textLength="59" x="58" y="113.1211">common</text></g><!--cluster entity--><g id="cluster_entity"><path d="M80.5,141.0137 L120.5,141.0137 A3.75,3.75 0 0 1 123,143.5137 L130,165.6348 L524.5,165.6348 A2.5,2.5 0 0 1 527,168.1348 L527,462.5137 A2.5,2.5 0 0 1 524.5,465.0137 L80.5,465.0137 A2.5,2.5 0 0 1 78,462.5137 L78,143.5137 A2.5,2.5 0 0 1 80.5,141.0137 " fill="none" style="stroke:#000000;stroke-width:1.5;"/><line style="stroke:#000000;stroke-width:1.5;" x1="78" x2="130" y1="165.6348" y2="165.6348"/><text fill="#000000" font-family="sans-serif" font-size="14" font-weight="bold" lengthAdjust="spacing" textLength="39" x="82" y="158.1211">entity</text></g><!--class Role--><g id="elem_Role"><rect codeLine="1" fill="#F1F1F1" height="159.7266" id="Role" rx="2.5" ry="2.5" style="stroke:#181818;stroke-width:0.5;" width="174" x="337" y="233.5137"/><ellipse cx="405.25" cy="249.5137" fill="#ADD1B2" rx="11" ry="11" style="stroke:#181818;stroke-width:1.0;"/><path d="M408.0156,245.3887 Q408.1719,245.1699 408.3594,245.0605 Q408.5469,244.9512 408.7656,244.9512 Q409.1406,244.9512 409.375,245.2168 Q409.6094,245.4668 409.6094,246.0762 L409.6094,247.5293 Q409.6094,248.1387 409.375,248.4043 Q409.1406,248.6699 408.7656,248.6699 Q408.4219,248.6699 408.2188,248.4668 Q408.0156,248.2793 407.9063,247.7637 Q407.8594,247.4043 407.6719,247.2168 Q407.3438,246.8418 406.7344,246.623 Q406.125,246.4043 405.5,246.4043 Q404.7344,246.4043 404.0938,246.7324 Q403.4688,247.0605 402.9688,247.8105 Q402.4844,248.5605 402.4844,249.5918 L402.4844,250.6855 Q402.4844,251.9199 403.375,252.748 Q404.2656,253.5605 405.8594,253.5605 Q406.7969,253.5605 407.4531,253.3105 Q407.8438,253.1543 408.2656,252.7168 Q408.5313,252.4512 408.6719,252.373 Q408.8281,252.2949 409.0313,252.2949 Q409.3594,252.2949 409.6094,252.5605 Q409.875,252.8105 409.875,253.1543 Q409.875,253.498 409.5313,253.9043 Q409.0313,254.4824 408.2344,254.8105 Q407.1563,255.2637 405.8594,255.2637 Q404.3438,255.2637 403.1406,254.6387 Q402.1563,254.1387 401.4688,253.0762 Q400.7813,251.998 400.7813,250.7168 L400.7813,249.5605 Q400.7813,248.2324 401.3906,247.0918 Q402.0156,245.9355 403.1094,245.3262 Q404.2031,244.7012 405.4375,244.7012 Q406.1719,244.7012 406.8125,244.873 Q407.4688,245.0293 408.0156,245.3887 Z " fill="#000000"/><text fill="#000000" font-family="sans-serif" font-size="14" lengthAdjust="spacing" textLength="29" x="425.75" y="255.3105">Role</text><line style="stroke:#181818;stroke-width:0.5;" x1="338" x2="510" y1="265.5137" y2="265.5137"/><rect fill="none" height="6" style="stroke:#C82930;stroke-width:1.0;" width="6" x="345" y="277.3242"/><text fill="#000000" font-family="sans-serif" font-size="14" lengthAdjust="spacing" textLength="59" x="357" y="284.6211">Integer id</text><rect fill="none" height="6" style="stroke:#C82930;stroke-width:1.0;" width="6" x="345" y="295.9453"/><text fill="#000000" font-family="sans-serif" font-size="14" lengthAdjust="spacing" textLength="76" x="357" y="303.2422">String name</text><rect fill="none" height="6" style="stroke:#C82930;stroke-width:1.0;" width="6" x="345" y="314.5664"/><text fill="#000000" font-family="sans-serif" font-size="14" lengthAdjust="spacing" textLength="110" x="357" y="321.8633">String description</text><line style="stroke:#181818;stroke-width:0.5;" x1="338" x2="510" y1="329.377" y2="329.377"/><ellipse cx="348" cy="344.1875" fill="#84BE84" rx="3" ry="3" style="stroke:#038048;stroke-width:1.0;"/><text fill="#000000" font-family="sans-serif" font-size="14" lengthAdjust="spacing" textLength="148" x="357" y="348.4844">boolean equals(Object)</text><ellipse cx="348" cy="362.8086" fill="#84BE84" rx="3" ry="3" style="stroke:#038048;stroke-width:1.0;"/><text fill="#000000" font-family="sans-serif" font-size="14" lengthAdjust="spacing" textLength="94" x="357" y="367.1055">int hashCode()</text><ellipse cx="348" cy="381.4297" fill="#84BE84" rx="3" ry="3" style="stroke:#038048;stroke-width:1.0;"/><text fill="#000000" font-family="sans-serif" font-size="14" lengthAdjust="spacing" textLength="100" x="357" y="385.7266">String toString()</text></g><!--class User--><g id="elem_User"><rect codeLine="11" fill="#F1F1F1" height="271.4531" id="User" rx="2.5" ry="2.5" style="stroke:#181818;stroke-width:0.5;" width="208" x="94" y="178.0137"/><ellipse cx="179.25" cy="194.0137" fill="#ADD1B2" rx="11" ry="11" style="stroke:#181818;stroke-width:1.0;"/><path d="M182.0156,189.8887 Q182.1719,189.6699 182.3594,189.5605 Q182.5469,189.4512 182.7656,189.4512 Q183.1406,189.4512 183.375,189.7168 Q183.6094,189.9668 183.6094,190.5762 L183.6094,192.0293 Q183.6094,192.6387 183.375,192.9043 Q183.1406,193.1699 182.7656,193.1699 Q182.4219,193.1699 182.2188,192.9668 Q182.0156,192.7793 181.9063,192.2637 Q181.8594,191.9043 181.6719,191.7168 Q181.3438,191.3418 180.7344,191.123 Q180.125,190.9043 179.5,190.9043 Q178.7344,190.9043 178.0938,191.2324 Q177.4688,191.5605 176.9688,192.3105 Q176.4844,193.0605 176.4844,194.0918 L176.4844,195.1855 Q176.4844,196.4199 177.375,197.248 Q178.2656,198.0605 179.8594,198.0605 Q180.7969,198.0605 181.4531,197.8105 Q181.8438,197.6543 182.2656,197.2168 Q182.5313,196.9512 182.6719,196.873 Q182.8281,196.7949 183.0313,196.7949 Q183.3594,196.7949 183.6094,197.0605 Q183.875,197.3105 183.875,197.6543 Q183.875,197.998 183.5313,198.4043 Q183.0313,198.9824 182.2344,199.3105 Q181.1563,199.7637 179.8594,199.7637 Q178.3438,199.7637 177.1406,199.1387 Q176.1563,198.6387 175.4688,197.5762 Q174.7813,196.498 174.7813,195.2168 L174.7813,194.0605 Q174.7813,192.7324 175.3906,191.5918 Q176.0156,190.4355 177.1094,189.8262 Q178.2031,189.2012 179.4375,189.2012 Q180.1719,189.2012 180.8125,189.373 Q181.4688,189.5293 182.0156,189.8887 Z " fill="#000000"/><text fill="#000000" font-family="sans-serif" font-size="14" lengthAdjust="spacing" textLength="29" x="199.75" y="199.8105">User</text><line style="stroke:#181818;stroke-width:0.5;" x1="95" x2="301" y1="210.0137" y2="210.0137"/><rect fill="none" height="6" style="stroke:#C82930;stroke-width:1.0;" width="6" x="102" y="221.8242"/><text fill="#000000" font-family="sans-serif" font-size="14" lengthAdjust="spacing" textLength="59" x="114" y="229.1211">Integer id</text><rect fill="none" height="6" style="stroke:#C82930;stroke-width:1.0;" width="6" x="102" y="240.4453"/><text fill="#000000" font-family="sans-serif" font-size="14" lengthAdjust="spacing" textLength="74" x="114" y="247.7422">String email</text><rect fill="none" height="6" style="stroke:#C82930;stroke-width:1.0;" width="6" x="102" y="259.0664"/><text fill="#000000" font-family="sans-serif" font-size="14" lengthAdjust="spacing" textLength="101" x="114" y="266.3633">String password</text><rect fill="none" height="6" style="stroke:#C82930;stroke-width:1.0;" width="6" x="102" y="277.6875"/><text fill="#000000" font-family="sans-serif" font-size="14" lengthAdjust="spacing" textLength="100" x="114" y="284.9844">String firstName</text><rect fill="none" height="6" style="stroke:#C82930;stroke-width:1.0;" width="6" x="102" y="296.3086"/><text fill="#000000" font-family="sans-serif" font-size="14" lengthAdjust="spacing" textLength="99" x="114" y="303.6055">String lastName</text><rect fill="none" height="6" style="stroke:#C82930;stroke-width:1.0;" width="6" x="102" y="314.9297"/><text fill="#000000" font-family="sans-serif" font-size="14" lengthAdjust="spacing" textLength="84" x="114" y="322.2266">String photos</text><rect fill="none" height="6" style="stroke:#C82930;stroke-width:1.0;" width="6" x="102" y="333.5508"/><text fill="#000000" font-family="sans-serif" font-size="14" lengthAdjust="spacing" textLength="106" x="114" y="340.8477">boolean enabled</text><rect fill="none" height="6" style="stroke:#C82930;stroke-width:1.0;" width="6" x="102" y="352.1719"/><text fill="#000000" font-family="sans-serif" font-size="14" lengthAdjust="spacing" textLength="101" x="114" y="359.4688">Set&lt;Role&gt; roles</text><line style="stroke:#181818;stroke-width:0.5;" x1="95" x2="301" y1="366.9824" y2="366.9824"/><ellipse cx="105" cy="381.793" fill="#84BE84" rx="3" ry="3" style="stroke:#038048;stroke-width:1.0;"/><text fill="#000000" font-family="sans-serif" font-size="14" lengthAdjust="spacing" textLength="122" x="114" y="386.0898">void addRole(Role)</text><ellipse cx="105" cy="400.4141" fill="#84BE84" rx="3" ry="3" style="stroke:#038048;stroke-width:1.0;"/><text fill="#000000" font-family="sans-serif" font-size="14" lengthAdjust="spacing" textLength="100" x="114" y="404.7109">String toString()</text><ellipse cx="105" cy="419.0352" fill="#84BE84" rx="3" ry="3" style="stroke:#038048;stroke-width:1.0;"/><text fill="#000000" font-family="sans-serif" font-size="14" lengthAdjust="spacing" textLength="182" x="114" y="423.332">String getPhotosImagePath()</text><ellipse cx="105" cy="437.6563" fill="#84BE84" rx="3" ry="3" style="stroke:#038048;stroke-width:1.0;"/><text fill="#000000" font-family="sans-serif" font-size="14" lengthAdjust="spacing" textLength="130" x="114" y="441.9531">String getFullName()</text></g><!--SRC=[ZL11JWCn3Bpd5JukGkmBK2z8IBr0LSG3iedPDKhY9VOM8SJVSLhKGWKI5oipZiSp3icBGE3SXwKI2ocYz8OpbnwBahxrMqu8x-uAraLnn0eK3JnefJ92yHbFAAA4IhCI5tS90zkaBu0lYq_ItG_F6FJ26bGK9Y_J3KVi6l4rhdnu6FVXd0l_CFSePkWlSvWzfHESJUwLwxSFJrH5xtv4i9rdp3oniXW-vYb-IBYNGRrkvrb1jIgMPCSKmSVOsAwLt-CTkH5rizTVPp_YnkjqrhrTKcf-3ZVv1000]--></g></svg>