<svg xmlns="http://www.w3.org/2000/svg" xmlns:xlink="http://www.w3.org/1999/xlink" width="720" height="467" contentStyleType="text/css" preserveAspectRatio="none" style="width:720px;height:467px;background:#fff" version="1.1" viewBox="0 0 720 467" zoomAndPan="magnify"><g><g id="cluster_com"><path fill="none" d="M8.5,6.0137 L38.5,6.0137 A3.75,3.75 0 0 1 41,8.5137 L48,30.6348 L710.5,30.6348 A2.5,2.5 0 0 1 713,33.1348 L713,457.5137 A2.5,2.5 0 0 1 710.5,460.0137 L8.5,460.0137 A2.5,2.5 0 0 1 6,457.5137 L6,8.5137 A2.5,2.5 0 0 1 8.5,6.0137" style="stroke:#000;stroke-width:1.5"/><line style="stroke:#000;stroke-width:1.5" x1="6" x2="48" y1="30.635" y2="30.635"/><text x="10" y="23.121" fill="#000" font-family="sans-serif" font-size="14" font-weight="bold" lengthAdjust="spacing" textLength="29">com</text></g><g id="cluster_sunbeaminfo"><path fill="none" d="M32.5,51.0137 L124.5,51.0137 A3.75,3.75 0 0 1 127,53.5137 L134,75.6348 L686.5,75.6348 A2.5,2.5 0 0 1 689,78.1348 L689,433.5137 A2.5,2.5 0 0 1 686.5,436.0137 L32.5,436.0137 A2.5,2.5 0 0 1 30,433.5137 L30,53.5137 A2.5,2.5 0 0 1 32.5,51.0137" style="stroke:#000;stroke-width:1.5"/><line style="stroke:#000;stroke-width:1.5" x1="30" x2="134" y1="75.635" y2="75.635"/><text x="34" y="68.121" fill="#000" font-family="sans-serif" font-size="14" font-weight="bold" lengthAdjust="spacing" textLength="91">sunbeaminfo</text></g><g id="cluster_curiositees"><path fill="none" d="M56.5,96.0137 L136.5,96.0137 A3.75,3.75 0 0 1 139,98.5137 L146,120.6348 L662.5,120.6348 A2.5,2.5 0 0 1 665,123.1348 L665,409.5137 A2.5,2.5 0 0 1 662.5,412.0137 L56.5,412.0137 A2.5,2.5 0 0 1 54,409.5137 L54,98.5137 A2.5,2.5 0 0 1 56.5,96.0137" style="stroke:#000;stroke-width:1.5"/><line style="stroke:#000;stroke-width:1.5" x1="54" x2="146" y1="120.635" y2="120.635"/><text x="58" y="113.121" fill="#000" font-family="sans-serif" font-size="14" font-weight="bold" lengthAdjust="spacing" textLength="79">curiositees</text></g><g id="cluster_site"><path fill="none" d="M80.5,141.0137 L107.5,141.0137 A3.75,3.75 0 0 1 110,143.5137 L117,165.6348 L638.5,165.6348 A2.5,2.5 0 0 1 641,168.1348 L641,385.5137 A2.5,2.5 0 0 1 638.5,388.0137 L80.5,388.0137 A2.5,2.5 0 0 1 78,385.5137 L78,143.5137 A2.5,2.5 0 0 1 80.5,141.0137" style="stroke:#000;stroke-width:1.5"/><line style="stroke:#000;stroke-width:1.5" x1="78" x2="117" y1="165.635" y2="165.635"/><text x="82" y="158.121" fill="#000" font-family="sans-serif" font-size="14" font-weight="bold" lengthAdjust="spacing" textLength="26">site</text></g><g id="elem_CuriositeesFrontendApplication"><rect id="CuriositeesFrontendApplication" width="230" height="66.621" x="94" y="178.014" fill="#F1F1F1" codeLine="1" rx="2.5" ry="2.5" style="stroke:#181818;stroke-width:.5"/><ellipse cx="109" cy="194.014" fill="#ADD1B2" rx="11" ry="11" style="stroke:#181818;stroke-width:1"/><path fill="#000" d="M111.7656,189.8887 Q111.9219,189.6699 112.1094,189.5605 Q112.2969,189.4512 112.5156,189.4512 Q112.8906,189.4512 113.125,189.7168 Q113.3594,189.9668 113.3594,190.5762 L113.3594,192.0293 Q113.3594,192.6387 113.125,192.9043 Q112.8906,193.1699 112.5156,193.1699 Q112.1719,193.1699 111.9688,192.9668 Q111.7656,192.7793 111.6563,192.2637 Q111.6094,191.9043 111.4219,191.7168 Q111.0938,191.3418 110.4844,191.123 Q109.875,190.9043 109.25,190.9043 Q108.4844,190.9043 107.8438,191.2324 Q107.2188,191.5605 106.7188,192.3105 Q106.2344,193.0605 106.2344,194.0918 L106.2344,195.1855 Q106.2344,196.4199 107.125,197.248 Q108.0156,198.0605 109.6094,198.0605 Q110.5469,198.0605 111.2031,197.8105 Q111.5938,197.6543 112.0156,197.2168 Q112.2813,196.9512 112.4219,196.873 Q112.5781,196.7949 112.7813,196.7949 Q113.1094,196.7949 113.3594,197.0605 Q113.625,197.3105 113.625,197.6543 Q113.625,197.998 113.2813,198.4043 Q112.7813,198.9824 111.9844,199.3105 Q110.9063,199.7637 109.6094,199.7637 Q108.0938,199.7637 106.8906,199.1387 Q105.9063,198.6387 105.2188,197.5762 Q104.5313,196.498 104.5313,195.2168 L104.5313,194.0605 Q104.5313,192.7324 105.1406,191.5918 Q105.7656,190.4355 106.8594,189.8262 Q107.9531,189.2012 109.1875,189.2012 Q109.9219,189.2012 110.5625,189.373 Q111.2188,189.5293 111.7656,189.8887 Z"/><text x="123" y="199.81" fill="#000" font-family="sans-serif" font-size="14" lengthAdjust="spacing" textLength="198">CuriositeesFrontendApplication</text><line style="stroke:#181818;stroke-width:.5" x1="95" x2="323" y1="210.014" y2="210.014"/><line style="stroke:#181818;stroke-width:.5" x1="95" x2="323" y1="218.014" y2="218.014"/><ellipse cx="105" cy="232.824" fill="#84BE84" rx="3" ry="3" style="stroke:#038048;stroke-width:1"/><text x="114" y="237.121" fill="#000" font-family="sans-serif" font-size="14" lengthAdjust="spacing" text-decoration="underline" textLength="115">void main(String[])</text></g><g id="elem_CuriositeesFrontendApplicationTests"><rect id="CuriositeesFrontendApplicationTests" width="265" height="66.621" x="359.5" y="178.014" fill="#F1F1F1" codeLine="5" rx="2.5" ry="2.5" style="stroke:#181818;stroke-width:.5"/><ellipse cx="374.5" cy="194.014" fill="#ADD1B2" rx="11" ry="11" style="stroke:#181818;stroke-width:1"/><path fill="#000" d="M377.2656,189.8887 Q377.4219,189.6699 377.6094,189.5605 Q377.7969,189.4512 378.0156,189.4512 Q378.3906,189.4512 378.625,189.7168 Q378.8594,189.9668 378.8594,190.5762 L378.8594,192.0293 Q378.8594,192.6387 378.625,192.9043 Q378.3906,193.1699 378.0156,193.1699 Q377.6719,193.1699 377.4688,192.9668 Q377.2656,192.7793 377.1563,192.2637 Q377.1094,191.9043 376.9219,191.7168 Q376.5938,191.3418 375.9844,191.123 Q375.375,190.9043 374.75,190.9043 Q373.9844,190.9043 373.3438,191.2324 Q372.7188,191.5605 372.2188,192.3105 Q371.7344,193.0605 371.7344,194.0918 L371.7344,195.1855 Q371.7344,196.4199 372.625,197.248 Q373.5156,198.0605 375.1094,198.0605 Q376.0469,198.0605 376.7031,197.8105 Q377.0938,197.6543 377.5156,197.2168 Q377.7813,196.9512 377.9219,196.873 Q378.0781,196.7949 378.2813,196.7949 Q378.6094,196.7949 378.8594,197.0605 Q379.125,197.3105 379.125,197.6543 Q379.125,197.998 378.7813,198.4043 Q378.2813,198.9824 377.4844,199.3105 Q376.4063,199.7637 375.1094,199.7637 Q373.5938,199.7637 372.3906,199.1387 Q371.4063,198.6387 370.7188,197.5762 Q370.0313,196.498 370.0313,195.2168 L370.0313,194.0605 Q370.0313,192.7324 370.6406,191.5918 Q371.2656,190.4355 372.3594,189.8262 Q373.4531,189.2012 374.6875,189.2012 Q375.4219,189.2012 376.0625,189.373 Q376.7188,189.5293 377.2656,189.8887 Z"/><text x="388.5" y="199.81" fill="#000" font-family="sans-serif" font-size="14" lengthAdjust="spacing" textLength="233">CuriositeesFrontendApplicationTests</text><line style="stroke:#181818;stroke-width:.5" x1="360.5" x2="623.5" y1="210.014" y2="210.014"/><line style="stroke:#181818;stroke-width:.5" x1="360.5" x2="623.5" y1="218.014" y2="218.014"/><polygon fill="#4177AF" points="370.5 228.824 366.5 234.824 374.5 234.824" style="stroke:#1963a0;stroke-width:1"/><text x="379.5" y="237.121" fill="#000" font-family="sans-serif" font-size="14" lengthAdjust="spacing" textLength="124">void contextLoads()</text></g><g id="elem_MainController"><rect id="MainController" width="173" height="66.621" x="122.5" y="305.014" fill="#F1F1F1" codeLine="9" rx="2.5" ry="2.5" style="stroke:#181818;stroke-width:.5"/><ellipse cx="159.55" cy="321.014" fill="#ADD1B2" rx="11" ry="11" style="stroke:#181818;stroke-width:1"/><path fill="#000" d="M162.3156,316.8887 Q162.4719,316.6699 162.6594,316.5605 Q162.8469,316.4512 163.0656,316.4512 Q163.4406,316.4512 163.675,316.7168 Q163.9094,316.9668 163.9094,317.5762 L163.9094,319.0293 Q163.9094,319.6387 163.675,319.9043 Q163.4406,320.1699 163.0656,320.1699 Q162.7219,320.1699 162.5188,319.9668 Q162.3156,319.7793 162.2063,319.2637 Q162.1594,318.9043 161.9719,318.7168 Q161.6438,318.3418 161.0344,318.123 Q160.425,317.9043 159.8,317.9043 Q159.0344,317.9043 158.3938,318.2324 Q157.7688,318.5605 157.2688,319.3105 Q156.7844,320.0605 156.7844,321.0918 L156.7844,322.1855 Q156.7844,323.4199 157.675,324.248 Q158.5656,325.0605 160.1594,325.0605 Q161.0969,325.0605 161.7531,324.8105 Q162.1438,324.6543 162.5656,324.2168 Q162.8313,323.9512 162.9719,323.873 Q163.1281,323.7949 163.3313,323.7949 Q163.6594,323.7949 163.9094,324.0605 Q164.175,324.3105 164.175,324.6543 Q164.175,324.998 163.8313,325.4043 Q163.3313,325.9824 162.5344,326.3105 Q161.4563,326.7637 160.1594,326.7637 Q158.6438,326.7637 157.4406,326.1387 Q156.4563,325.6387 155.7688,324.5762 Q155.0813,323.498 155.0813,322.2168 L155.0813,321.0605 Q155.0813,319.7324 155.6906,318.5918 Q156.3156,317.4355 157.4094,316.8262 Q158.5031,316.2012 159.7375,316.2012 Q160.4719,316.2012 161.1125,316.373 Q161.7688,316.5293 162.3156,316.8887 Z"/><text x="178.45" y="326.81" fill="#000" font-family="sans-serif" font-size="14" lengthAdjust="spacing" textLength="92">MainController</text><line style="stroke:#181818;stroke-width:.5" x1="123.5" x2="294.5" y1="337.014" y2="337.014"/><line style="stroke:#181818;stroke-width:.5" x1="123.5" x2="294.5" y1="345.014" y2="345.014"/><ellipse cx="133.5" cy="359.824" fill="#84BE84" rx="3" ry="3" style="stroke:#038048;stroke-width:1"/><text x="142.5" y="364.121" fill="#000" font-family="sans-serif" font-size="14" lengthAdjust="spacing" textLength="147">String viewHomePage()</text></g></g></svg>