<?xml version="1.0" encoding="us-ascii" standalone="no"?><svg xmlns="http://www.w3.org/2000/svg" xmlns:xlink="http://www.w3.org/1999/xlink" contentStyleType="text/css" height="951.6px" preserveAspectRatio="none" style="width:1175px;height:951px;background:#FFFFFF;" version="1.1" viewBox="0 0 1175 951" width="1175.4px" zoomAndPan="magnify"><defs/><g><!--class Customer--><g id="elem_Customer"><rect codeLine="28" fill="#F1F1F1" height="95.8359" id="Customer" rx="1.5" ry="1.5" style="stroke:#181818;stroke-width:0.3;" width="69" x="4.2" y="240.6"/><ellipse cx="19.14" cy="250.2" fill="#ADD1B2" rx="6.6" ry="6.6" style="stroke:#181818;stroke-width:0.6;"/><path d="M20.7994,247.725 Q20.8931,247.5938 21.0056,247.5281 Q21.1181,247.4625 21.2494,247.4625 Q21.4744,247.4625 21.615,247.6219 Q21.7556,247.7719 21.7556,248.1375 L21.7556,249.0094 Q21.7556,249.375 21.615,249.5344 Q21.4744,249.6938 21.2494,249.6938 Q21.0431,249.6938 20.9212,249.5719 Q20.7994,249.4594 20.7337,249.15 Q20.7056,248.9344 20.5931,248.8219 Q20.3963,248.5969 20.0306,248.4656 Q19.665,248.3344 19.29,248.3344 Q18.8306,248.3344 18.4463,248.5313 Q18.0713,248.7281 17.7713,249.1781 Q17.4806,249.6281 17.4806,250.2469 L17.4806,250.9031 Q17.4806,251.6437 18.015,252.1406 Q18.5494,252.6281 19.5056,252.6281 Q20.0681,252.6281 20.4619,252.4781 Q20.6963,252.3844 20.9494,252.1219 Q21.1087,251.9625 21.1931,251.9156 Q21.2869,251.8687 21.4087,251.8687 Q21.6056,251.8687 21.7556,252.0281 Q21.915,252.1781 21.915,252.3844 Q21.915,252.5906 21.7088,252.8344 Q21.4087,253.1812 20.9306,253.3781 Q20.2837,253.65 19.5056,253.65 Q18.5962,253.65 17.8744,253.275 Q17.2837,252.975 16.8713,252.3375 Q16.4588,251.6906 16.4588,250.9219 L16.4588,250.2281 Q16.4588,249.4312 16.8244,248.7469 Q17.1994,248.0531 17.8556,247.6875 Q18.5119,247.3125 19.2525,247.3125 Q19.6931,247.3125 20.0775,247.4156 Q20.4712,247.5094 20.7994,247.725 Z " fill="#000000"/><text fill="#000000" font-family="sans-serif" font-size="8.4" lengthAdjust="spacing" textLength="36.6" x="28.86" y="253.6781">Customer</text><line style="stroke:#181818;stroke-width:0.3;" x1="4.8" x2="72.6" y1="259.8" y2="259.8"/><text fill="#000000" font-family="sans-serif" font-size="8.4" lengthAdjust="spacing" textLength="46.8" x="7.8" y="271.2645">name: string</text><text fill="#000000" font-family="sans-serif" font-size="8.4" lengthAdjust="spacing" textLength="45.6" x="7.8" y="282.4371">email: string</text><text fill="#000000" font-family="sans-serif" font-size="8.4" lengthAdjust="spacing" textLength="61.8" x="7.8" y="293.6098">password: string</text><text fill="#000000" font-family="sans-serif" font-size="8.4" lengthAdjust="spacing" textLength="56.4" x="7.8" y="304.7824">address: string</text><text fill="#000000" font-family="sans-serif" font-size="8.4" lengthAdjust="spacing" textLength="49.8" x="7.8" y="315.9551">phone: string</text><line style="stroke:#181818;stroke-width:0.3;" x1="4.8" x2="72.6" y1="320.4633" y2="320.4633"/><ellipse cx="10.8" cy="329.3496" fill="#84BE84" rx="1.8" ry="1.8" style="stroke:#038048;stroke-width:0.6;"/><text fill="#000000" font-family="sans-serif" font-size="8.4" lengthAdjust="spacing" textLength="39.6" x="16.2" y="331.9277">id: int (PK)</text></g><!--class Product--><g id="elem_Product"><rect codeLine="37" fill="#F1F1F1" height="84.6633" id="Product" rx="1.5" ry="1.5" style="stroke:#181818;stroke-width:0.3;" width="93" x="714.6" y="434.1"/><ellipse cx="743.85" cy="443.7" fill="#ADD1B2" rx="6.6" ry="6.6" style="stroke:#181818;stroke-width:0.6;"/><path d="M745.5094,441.225 Q745.6031,441.0938 745.7156,441.0281 Q745.8281,440.9625 745.9594,440.9625 Q746.1844,440.9625 746.325,441.1219 Q746.4656,441.2719 746.4656,441.6375 L746.4656,442.5094 Q746.4656,442.875 746.325,443.0344 Q746.1844,443.1937 745.9594,443.1937 Q745.7531,443.1937 745.6313,443.0719 Q745.5094,442.9594 745.4438,442.65 Q745.4156,442.4344 745.3031,442.3219 Q745.1062,442.0969 744.7406,441.9656 Q744.375,441.8344 744,441.8344 Q743.5406,441.8344 743.1563,442.0313 Q742.7813,442.2281 742.4812,442.6781 Q742.1906,443.1281 742.1906,443.7469 L742.1906,444.4031 Q742.1906,445.1438 742.725,445.6406 Q743.2594,446.1281 744.2156,446.1281 Q744.7781,446.1281 745.1719,445.9781 Q745.4063,445.8844 745.6594,445.6219 Q745.8188,445.4625 745.9031,445.4156 Q745.9969,445.3688 746.1188,445.3688 Q746.3156,445.3688 746.4656,445.5281 Q746.625,445.6781 746.625,445.8844 Q746.625,446.0906 746.4187,446.3344 Q746.1188,446.6813 745.6406,446.8781 Q744.9938,447.15 744.2156,447.15 Q743.3063,447.15 742.5844,446.775 Q741.9938,446.475 741.5813,445.8375 Q741.1687,445.1906 741.1687,444.4219 L741.1687,443.7281 Q741.1687,442.9313 741.5344,442.2469 Q741.9094,441.5531 742.5656,441.1875 Q743.2219,440.8125 743.9625,440.8125 Q744.4031,440.8125 744.7875,440.9156 Q745.1813,441.0094 745.5094,441.225 Z " fill="#000000"/><text fill="#000000" font-family="sans-serif" font-size="8.4" lengthAdjust="spacing" textLength="29.4" x="756.15" y="447.1781">Product</text><line style="stroke:#181818;stroke-width:0.3;" x1="715.2" x2="807" y1="453.3" y2="453.3"/><text fill="#000000" font-family="sans-serif" font-size="8.4" lengthAdjust="spacing" textLength="46.8" x="718.2" y="464.7645">name: string</text><text fill="#000000" font-family="sans-serif" font-size="8.4" lengthAdjust="spacing" textLength="52.2" x="718.2" y="475.9371">price: decimal</text><text fill="#000000" font-family="sans-serif" font-size="8.4" lengthAdjust="spacing" textLength="67.2" x="718.2" y="487.1098">description: string</text><line style="stroke:#181818;stroke-width:0.3;" x1="715.2" x2="807" y1="491.618" y2="491.618"/><ellipse cx="721.2" cy="500.5043" fill="#84BE84" rx="1.8" ry="1.8" style="stroke:#038048;stroke-width:0.6;"/><text fill="#000000" font-family="sans-serif" font-size="8.4" lengthAdjust="spacing" textLength="39.6" x="726.6" y="503.0824">id: int (PK)</text><text fill="#000000" font-family="sans-serif" font-size="8.4" lengthAdjust="spacing" textLength="77.4" x="726.6" y="514.2551">category_id: int (FK)</text></g><!--class Category--><g id="elem_Category"><rect codeLine="45" fill="#F1F1F1" height="51.1453" id="Category" rx="1.5" ry="1.5" style="stroke:#181818;stroke-width:0.3;" width="55.2" x="912.9" y="747.9"/><ellipse cx="922.44" cy="757.5" fill="#ADD1B2" rx="6.6" ry="6.6" style="stroke:#181818;stroke-width:0.6;"/><path d="M924.0994,755.025 Q924.1931,754.8938 924.3056,754.8281 Q924.4181,754.7625 924.5494,754.7625 Q924.7744,754.7625 924.915,754.9219 Q925.0556,755.0719 925.0556,755.4375 L925.0556,756.3094 Q925.0556,756.675 924.915,756.8344 Q924.7744,756.9938 924.5494,756.9938 Q924.3431,756.9938 924.2213,756.8719 Q924.0994,756.7594 924.0338,756.45 Q924.0056,756.2344 923.8931,756.1219 Q923.6963,755.8969 923.3306,755.7656 Q922.965,755.6344 922.59,755.6344 Q922.1306,755.6344 921.7463,755.8313 Q921.3713,756.0281 921.0713,756.4781 Q920.7806,756.9281 920.7806,757.5469 L920.7806,758.2031 Q920.7806,758.9438 921.315,759.4406 Q921.8494,759.9281 922.8056,759.9281 Q923.3681,759.9281 923.7619,759.7781 Q923.9963,759.6844 924.2494,759.4219 Q924.4088,759.2625 924.4931,759.2156 Q924.5869,759.1687 924.7088,759.1687 Q924.9056,759.1687 925.0556,759.3281 Q925.215,759.4781 925.215,759.6844 Q925.215,759.8906 925.0088,760.1344 Q924.7088,760.4812 924.2306,760.6781 Q923.5838,760.95 922.8056,760.95 Q921.8963,760.95 921.1744,760.575 Q920.5838,760.275 920.1713,759.6375 Q919.7588,758.9906 919.7588,758.2219 L919.7588,757.5281 Q919.7588,756.7312 920.1244,756.0469 Q920.4994,755.3531 921.1556,754.9875 Q921.8119,754.6125 922.5525,754.6125 Q922.9931,754.6125 923.3775,754.7156 Q923.7713,754.8094 924.0994,755.025 Z " fill="#000000"/><text fill="#000000" font-family="sans-serif" font-size="8.4" lengthAdjust="spacing" textLength="34.8" x="930.96" y="760.9781">Category</text><line style="stroke:#181818;stroke-width:0.3;" x1="913.5" x2="967.5" y1="767.1" y2="767.1"/><text fill="#000000" font-family="sans-serif" font-size="8.4" lengthAdjust="spacing" textLength="46.8" x="916.5" y="778.5645">name: string</text><line style="stroke:#181818;stroke-width:0.3;" x1="913.5" x2="967.5" y1="783.0727" y2="783.0727"/><ellipse cx="919.5" cy="791.959" fill="#84BE84" rx="1.8" ry="1.8" style="stroke:#038048;stroke-width:0.6;"/><text fill="#000000" font-family="sans-serif" font-size="8.4" lengthAdjust="spacing" textLength="39.6" x="924.9" y="794.5371">id: int (PK)</text></g><!--class Cart--><g id="elem_Cart"><rect codeLine="50" fill="#F1F1F1" height="73.4906" id="Cart" rx="1.5" ry="1.5" style="stroke:#181818;stroke-width:0.3;" width="94.8" x="258" y="540"/><ellipse cx="294.75" cy="549.6" fill="#ADD1B2" rx="6.6" ry="6.6" style="stroke:#181818;stroke-width:0.6;"/><path d="M296.4094,547.125 Q296.5031,546.9938 296.6156,546.9281 Q296.7281,546.8625 296.8594,546.8625 Q297.0844,546.8625 297.225,547.0219 Q297.3656,547.1719 297.3656,547.5375 L297.3656,548.4094 Q297.3656,548.775 297.225,548.9344 Q297.0844,549.0938 296.8594,549.0938 Q296.6531,549.0938 296.5313,548.9719 Q296.4094,548.8594 296.3438,548.55 Q296.3156,548.3344 296.2031,548.2219 Q296.0062,547.9969 295.6406,547.8656 Q295.275,547.7344 294.9,547.7344 Q294.4406,547.7344 294.0563,547.9313 Q293.6813,548.1281 293.3812,548.5781 Q293.0906,549.0281 293.0906,549.6469 L293.0906,550.3031 Q293.0906,551.0437 293.625,551.5406 Q294.1594,552.0281 295.1156,552.0281 Q295.6781,552.0281 296.0719,551.8781 Q296.3063,551.7844 296.5594,551.5219 Q296.7188,551.3625 296.8031,551.3156 Q296.8969,551.2688 297.0188,551.2688 Q297.2156,551.2688 297.3656,551.4281 Q297.525,551.5781 297.525,551.7844 Q297.525,551.9906 297.3187,552.2344 Q297.0188,552.5813 296.5406,552.7781 Q295.8938,553.05 295.1156,553.05 Q294.2063,553.05 293.4844,552.675 Q292.8938,552.375 292.4813,551.7375 Q292.0687,551.0906 292.0687,550.3219 L292.0687,549.6281 Q292.0687,548.8313 292.4344,548.1469 Q292.8094,547.4531 293.4656,547.0875 Q294.1219,546.7125 294.8625,546.7125 Q295.3031,546.7125 295.6875,546.8156 Q296.0813,546.9094 296.4094,547.125 Z " fill="#000000"/><text fill="#000000" font-family="sans-serif" font-size="8.4" lengthAdjust="spacing" textLength="16.2" x="307.05" y="553.0781">Cart</text><line style="stroke:#181818;stroke-width:0.3;" x1="258.6" x2="352.2" y1="559.2" y2="559.2"/><text fill="#000000" font-family="sans-serif" font-size="8.4" lengthAdjust="spacing" textLength="43.8" x="261.6" y="570.6645">quantity: int</text><line style="stroke:#181818;stroke-width:0.3;" x1="258.6" x2="352.2" y1="575.1727" y2="575.1727"/><ellipse cx="264.6" cy="584.059" fill="#84BE84" rx="1.8" ry="1.8" style="stroke:#038048;stroke-width:0.6;"/><text fill="#000000" font-family="sans-serif" font-size="8.4" lengthAdjust="spacing" textLength="39.6" x="270" y="586.6371">id: int (PK)</text><text fill="#000000" font-family="sans-serif" font-size="8.4" lengthAdjust="spacing" textLength="79.2" x="270" y="597.8098">customer_id: int (FK)</text><text fill="#000000" font-family="sans-serif" font-size="8.4" lengthAdjust="spacing" textLength="73.2" x="270" y="608.9824">product_id: int (FK)</text></g><!--class Order--><g id="elem_Order"><rect codeLine="57" fill="#F1F1F1" height="73.4906" id="Order" rx="1.5" ry="1.5" style="stroke:#181818;stroke-width:0.3;" width="94.8" x="370.8" y="209.4"/><ellipse cx="404.55" cy="219" fill="#ADD1B2" rx="6.6" ry="6.6" style="stroke:#181818;stroke-width:0.6;"/><path d="M406.2094,216.525 Q406.3031,216.3937 406.4156,216.3281 Q406.5281,216.2625 406.6594,216.2625 Q406.8844,216.2625 407.025,216.4219 Q407.1656,216.5719 407.1656,216.9375 L407.1656,217.8094 Q407.1656,218.175 407.025,218.3344 Q406.8844,218.4938 406.6594,218.4938 Q406.4531,218.4938 406.3313,218.3719 Q406.2094,218.2594 406.1438,217.95 Q406.1156,217.7344 406.0031,217.6219 Q405.8063,217.3969 405.4406,217.2656 Q405.075,217.1344 404.7,217.1344 Q404.2406,217.1344 403.8563,217.3312 Q403.4813,217.5281 403.1813,217.9781 Q402.8906,218.4281 402.8906,219.0469 L402.8906,219.7031 Q402.8906,220.4438 403.425,220.9406 Q403.9594,221.4281 404.9156,221.4281 Q405.4781,221.4281 405.8719,221.2781 Q406.1063,221.1844 406.3594,220.9219 Q406.5188,220.7625 406.6031,220.7156 Q406.6969,220.6688 406.8187,220.6688 Q407.0156,220.6688 407.1656,220.8281 Q407.325,220.9781 407.325,221.1844 Q407.325,221.3906 407.1188,221.6344 Q406.8187,221.9813 406.3406,222.1781 Q405.6937,222.45 404.9156,222.45 Q404.0062,222.45 403.2844,222.075 Q402.6937,221.775 402.2813,221.1375 Q401.8688,220.4906 401.8688,219.7219 L401.8688,219.0281 Q401.8688,218.2313 402.2344,217.5469 Q402.6094,216.8531 403.2656,216.4875 Q403.9219,216.1125 404.6625,216.1125 Q405.1031,216.1125 405.4875,216.2156 Q405.8812,216.3094 406.2094,216.525 Z " fill="#000000"/><text fill="#000000" font-family="sans-serif" font-size="8.4" lengthAdjust="spacing" textLength="22.2" x="416.85" y="222.4781">Order</text><line style="stroke:#181818;stroke-width:0.3;" x1="371.4" x2="465" y1="228.6" y2="228.6"/><text fill="#000000" font-family="sans-serif" font-size="8.4" lengthAdjust="spacing" textLength="79.2" x="374.4" y="240.0645">order_date: datetime</text><text fill="#000000" font-family="sans-serif" font-size="8.4" lengthAdjust="spacing" textLength="82.8" x="374.4" y="251.2371">total_amount: decimal</text><line style="stroke:#181818;stroke-width:0.3;" x1="371.4" x2="465" y1="255.7453" y2="255.7453"/><ellipse cx="377.4" cy="264.6316" fill="#84BE84" rx="1.8" ry="1.8" style="stroke:#038048;stroke-width:0.6;"/><text fill="#000000" font-family="sans-serif" font-size="8.4" lengthAdjust="spacing" textLength="39.6" x="382.8" y="267.2098">id: int (PK)</text><text fill="#000000" font-family="sans-serif" font-size="8.4" lengthAdjust="spacing" textLength="79.2" x="382.8" y="278.3824">customer_id: int (FK)</text></g><!--class OrderItem--><g id="elem_OrderItem"><rect codeLine="64" fill="#F1F1F1" height="84.6633" id="OrderItem" rx="1.5" ry="1.5" style="stroke:#181818;stroke-width:0.3;" width="88.8" x="540.9" y="510.3"/><ellipse cx="564.21" cy="519.9" fill="#ADD1B2" rx="6.6" ry="6.6" style="stroke:#181818;stroke-width:0.6;"/><path d="M565.8694,517.425 Q565.9631,517.2937 566.0756,517.2281 Q566.1881,517.1625 566.3194,517.1625 Q566.5444,517.1625 566.685,517.3219 Q566.8256,517.4719 566.8256,517.8375 L566.8256,518.7094 Q566.8256,519.075 566.685,519.2344 Q566.5444,519.3938 566.3194,519.3938 Q566.1131,519.3938 565.9913,519.2719 Q565.8694,519.1594 565.8038,518.85 Q565.7756,518.6344 565.6631,518.5219 Q565.4663,518.2969 565.1006,518.1656 Q564.735,518.0344 564.36,518.0344 Q563.9006,518.0344 563.5163,518.2312 Q563.1413,518.4281 562.8413,518.8781 Q562.5506,519.3281 562.5506,519.9469 L562.5506,520.6031 Q562.5506,521.3438 563.085,521.8406 Q563.6194,522.3281 564.5756,522.3281 Q565.1381,522.3281 565.5319,522.1781 Q565.7663,522.0844 566.0194,521.8219 Q566.1788,521.6625 566.2631,521.6156 Q566.3569,521.5688 566.4788,521.5688 Q566.6756,521.5688 566.8256,521.7281 Q566.985,521.8781 566.985,522.0844 Q566.985,522.2906 566.7788,522.5344 Q566.4788,522.8813 566.0006,523.0781 Q565.3538,523.35 564.5756,523.35 Q563.6663,523.35 562.9444,522.975 Q562.3538,522.675 561.9413,522.0375 Q561.5288,521.3906 561.5288,520.6219 L561.5288,519.9281 Q561.5288,519.1313 561.8944,518.4469 Q562.2694,517.7531 562.9256,517.3875 Q563.5819,517.0125 564.3225,517.0125 Q564.7631,517.0125 565.1475,517.1156 Q565.5413,517.2094 565.8694,517.425 Z " fill="#000000"/><text fill="#000000" font-family="sans-serif" font-size="8.4" lengthAdjust="spacing" textLength="37.8" x="575.79" y="523.3781">OrderItem</text><line style="stroke:#181818;stroke-width:0.3;" x1="541.5" x2="629.1" y1="529.5" y2="529.5"/><text fill="#000000" font-family="sans-serif" font-size="8.4" lengthAdjust="spacing" textLength="43.8" x="544.5" y="540.9645">quantity: int</text><text fill="#000000" font-family="sans-serif" font-size="8.4" lengthAdjust="spacing" textLength="52.2" x="544.5" y="552.1371">price: decimal</text><line style="stroke:#181818;stroke-width:0.3;" x1="541.5" x2="629.1" y1="556.6453" y2="556.6453"/><ellipse cx="547.5" cy="565.5316" fill="#84BE84" rx="1.8" ry="1.8" style="stroke:#038048;stroke-width:0.6;"/><text fill="#000000" font-family="sans-serif" font-size="8.4" lengthAdjust="spacing" textLength="39.6" x="552.9" y="568.1098">id: int (PK)</text><text fill="#000000" font-family="sans-serif" font-size="8.4" lengthAdjust="spacing" textLength="64.8" x="552.9" y="579.2824">order_id: int (FK)</text><text fill="#000000" font-family="sans-serif" font-size="8.4" lengthAdjust="spacing" textLength="73.2" x="552.9" y="590.4551">product_id: int (FK)</text></g><!--class Payment--><g id="elem_Payment"><rect codeLine="72" fill="#F1F1F1" height="84.6633" id="Payment" rx="1.5" ry="1.5" style="stroke:#181818;stroke-width:0.3;" width="98.4" x="137.7" y="309.3"/><ellipse cx="167.85" cy="318.9" fill="#ADD1B2" rx="6.6" ry="6.6" style="stroke:#181818;stroke-width:0.6;"/><path d="M169.5094,316.425 Q169.6031,316.2938 169.7156,316.2281 Q169.8281,316.1625 169.9594,316.1625 Q170.1844,316.1625 170.325,316.3219 Q170.4656,316.4719 170.4656,316.8375 L170.4656,317.7094 Q170.4656,318.075 170.325,318.2344 Q170.1844,318.3938 169.9594,318.3938 Q169.7531,318.3938 169.6313,318.2719 Q169.5094,318.1594 169.4438,317.85 Q169.4156,317.6344 169.3031,317.5219 Q169.1063,317.2969 168.7406,317.1656 Q168.375,317.0344 168,317.0344 Q167.5406,317.0344 167.1563,317.2313 Q166.7813,317.4281 166.4813,317.8781 Q166.1906,318.3281 166.1906,318.9469 L166.1906,319.6031 Q166.1906,320.3438 166.725,320.8406 Q167.2594,321.3281 168.2156,321.3281 Q168.7781,321.3281 169.1719,321.1781 Q169.4063,321.0844 169.6594,320.8219 Q169.8188,320.6625 169.9031,320.6156 Q169.9969,320.5687 170.1188,320.5687 Q170.3156,320.5687 170.4656,320.7281 Q170.625,320.8781 170.625,321.0844 Q170.625,321.2906 170.4188,321.5344 Q170.1188,321.8812 169.6406,322.0781 Q168.9938,322.35 168.2156,322.35 Q167.3063,322.35 166.5844,321.975 Q165.9938,321.675 165.5812,321.0375 Q165.1688,320.3906 165.1688,319.6219 L165.1688,318.9281 Q165.1688,318.1312 165.5344,317.4469 Q165.9094,316.7531 166.5656,316.3875 Q167.2219,316.0125 167.9625,316.0125 Q168.4031,316.0125 168.7875,316.1156 Q169.1813,316.2094 169.5094,316.425 Z " fill="#000000"/><text fill="#000000" font-family="sans-serif" font-size="8.4" lengthAdjust="spacing" textLength="33" x="180.15" y="322.3781">Payment</text><line style="stroke:#181818;stroke-width:0.3;" x1="138.3" x2="235.5" y1="328.5" y2="328.5"/><text fill="#000000" font-family="sans-serif" font-size="8.4" lengthAdjust="spacing" textLength="91.2" x="141.3" y="339.9645">payment_date: datetime</text><text fill="#000000" font-family="sans-serif" font-size="8.4" lengthAdjust="spacing" textLength="61.8" x="141.3" y="351.1371">amount: decimal</text><text fill="#000000" font-family="sans-serif" font-size="8.4" lengthAdjust="spacing" textLength="48.6" x="141.3" y="362.3098">status: string</text><line style="stroke:#181818;stroke-width:0.3;" x1="138.3" x2="235.5" y1="366.818" y2="366.818"/><ellipse cx="144.3" cy="375.7043" fill="#84BE84" rx="1.8" ry="1.8" style="stroke:#038048;stroke-width:0.6;"/><text fill="#000000" font-family="sans-serif" font-size="8.4" lengthAdjust="spacing" textLength="39.6" x="149.7" y="378.2824">id: int (PK)</text><text fill="#000000" font-family="sans-serif" font-size="8.4" lengthAdjust="spacing" textLength="64.8" x="149.7" y="389.4551">order_id: int (FK)</text></g><!--class DeliveryAddress--><g id="elem_DeliveryAddress"><rect codeLine="80" fill="#F1F1F1" height="62.318" id="DeliveryAddress" rx="1.5" ry="1.5" style="stroke:#181818;stroke-width:0.3;" width="94.8" x="537.9" y="98.4"/><ellipse cx="553.11" cy="108" fill="#ADD1B2" rx="6.6" ry="6.6" style="stroke:#181818;stroke-width:0.6;"/><path d="M554.7694,105.525 Q554.8631,105.3938 554.9756,105.3281 Q555.0881,105.2625 555.2194,105.2625 Q555.4444,105.2625 555.585,105.4219 Q555.7256,105.5719 555.7256,105.9375 L555.7256,106.8094 Q555.7256,107.175 555.585,107.3344 Q555.4444,107.4937 555.2194,107.4937 Q555.0131,107.4937 554.8913,107.3719 Q554.7694,107.2594 554.7038,106.95 Q554.6756,106.7344 554.5631,106.6219 Q554.3663,106.3969 554.0006,106.2656 Q553.635,106.1344 553.26,106.1344 Q552.8006,106.1344 552.4163,106.3313 Q552.0413,106.5281 551.7413,106.9781 Q551.4506,107.4281 551.4506,108.0469 L551.4506,108.7031 Q551.4506,109.4438 551.985,109.9406 Q552.5194,110.4281 553.4756,110.4281 Q554.0381,110.4281 554.4319,110.2781 Q554.6663,110.1844 554.9194,109.9219 Q555.0788,109.7625 555.1631,109.7156 Q555.2569,109.6688 555.3788,109.6688 Q555.5756,109.6688 555.7256,109.8281 Q555.885,109.9781 555.885,110.1844 Q555.885,110.3906 555.6788,110.6344 Q555.3788,110.9813 554.9006,111.1781 Q554.2538,111.45 553.4756,111.45 Q552.5663,111.45 551.8444,111.075 Q551.2538,110.775 550.8413,110.1375 Q550.4288,109.4906 550.4288,108.7219 L550.4288,108.0281 Q550.4288,107.2313 550.7944,106.5469 Q551.1694,105.8531 551.8256,105.4875 Q552.4819,105.1125 553.2225,105.1125 Q553.6631,105.1125 554.0475,105.2156 Q554.4413,105.3094 554.7694,105.525 Z " fill="#000000"/><text fill="#000000" font-family="sans-serif" font-size="8.4" lengthAdjust="spacing" textLength="61.8" x="562.89" y="111.4781">DeliveryAddress</text><line style="stroke:#181818;stroke-width:0.3;" x1="538.5" x2="632.1" y1="117.6" y2="117.6"/><text fill="#000000" font-family="sans-serif" font-size="8.4" lengthAdjust="spacing" textLength="56.4" x="541.5" y="129.0645">address: string</text><line style="stroke:#181818;stroke-width:0.3;" x1="538.5" x2="632.1" y1="133.5727" y2="133.5727"/><ellipse cx="544.5" cy="142.459" fill="#84BE84" rx="1.8" ry="1.8" style="stroke:#038048;stroke-width:0.6;"/><text fill="#000000" font-family="sans-serif" font-size="8.4" lengthAdjust="spacing" textLength="39.6" x="549.9" y="145.0371">id: int (PK)</text><text fill="#000000" font-family="sans-serif" font-size="8.4" lengthAdjust="spacing" textLength="79.2" x="549.9" y="156.2098">customer_id: int (FK)</text></g><!--class Admin--><g id="elem_Admin"><rect codeLine="86" fill="#F1F1F1" height="73.4906" id="Admin" rx="1.5" ry="1.5" style="stroke:#181818;stroke-width:0.3;" width="69" x="550.8" y="658.8"/><ellipse cx="571.68" cy="668.4" fill="#ADD1B2" rx="6.6" ry="6.6" style="stroke:#181818;stroke-width:0.6;"/><path d="M573.3394,665.925 Q573.4331,665.7937 573.5456,665.7281 Q573.6581,665.6625 573.7894,665.6625 Q574.0144,665.6625 574.155,665.8219 Q574.2956,665.9719 574.2956,666.3375 L574.2956,667.2094 Q574.2956,667.575 574.155,667.7344 Q574.0144,667.8938 573.7894,667.8938 Q573.5831,667.8938 573.4613,667.7719 Q573.3394,667.6594 573.2738,667.35 Q573.2456,667.1344 573.1331,667.0219 Q572.9363,666.7969 572.5706,666.6656 Q572.205,666.5344 571.83,666.5344 Q571.3706,666.5344 570.9862,666.7312 Q570.6112,666.9281 570.3113,667.3781 Q570.0206,667.8281 570.0206,668.4469 L570.0206,669.1031 Q570.0206,669.8438 570.555,670.3406 Q571.0894,670.8281 572.0456,670.8281 Q572.6081,670.8281 573.0019,670.6781 Q573.2362,670.5844 573.4894,670.3219 Q573.6488,670.1625 573.7331,670.1156 Q573.8269,670.0688 573.9487,670.0688 Q574.1456,670.0688 574.2956,670.2281 Q574.455,670.3781 574.455,670.5844 Q574.455,670.7906 574.2488,671.0344 Q573.9487,671.3813 573.4706,671.5781 Q572.8237,671.85 572.0456,671.85 Q571.1362,671.85 570.4144,671.475 Q569.8237,671.175 569.4113,670.5375 Q568.9988,669.8906 568.9988,669.1219 L568.9988,668.4281 Q568.9988,667.6313 569.3644,666.9469 Q569.7394,666.2531 570.3956,665.8875 Q571.0519,665.5125 571.7925,665.5125 Q572.2331,665.5125 572.6175,665.6156 Q573.0112,665.7094 573.3394,665.925 Z " fill="#000000"/><text fill="#000000" font-family="sans-serif" font-size="8.4" lengthAdjust="spacing" textLength="23.4" x="582.72" y="671.8781">Admin</text><line style="stroke:#181818;stroke-width:0.3;" x1="551.4" x2="619.2" y1="678" y2="678"/><text fill="#000000" font-family="sans-serif" font-size="8.4" lengthAdjust="spacing" textLength="46.8" x="554.4" y="689.4645">name: string</text><text fill="#000000" font-family="sans-serif" font-size="8.4" lengthAdjust="spacing" textLength="45.6" x="554.4" y="700.6371">email: string</text><text fill="#000000" font-family="sans-serif" font-size="8.4" lengthAdjust="spacing" textLength="61.8" x="554.4" y="711.8098">password: string</text><line style="stroke:#181818;stroke-width:0.3;" x1="551.4" x2="619.2" y1="716.318" y2="716.318"/><ellipse cx="557.4" cy="725.2043" fill="#84BE84" rx="1.8" ry="1.8" style="stroke:#038048;stroke-width:0.6;"/><text fill="#000000" font-family="sans-serif" font-size="8.4" lengthAdjust="spacing" textLength="39.6" x="562.8" y="727.7824">id: int (PK)</text></g><!--class ProductDetails--><g id="elem_ProductDetails"><rect codeLine="93" fill="#F1F1F1" height="84.6633" id="ProductDetails" rx="1.5" ry="1.5" style="stroke:#181818;stroke-width:0.3;" width="106.2" x="887.4" y="228.3"/><ellipse cx="910.71" cy="237.9" fill="#ADD1B2" rx="6.6" ry="6.6" style="stroke:#181818;stroke-width:0.6;"/><path d="M912.3694,235.425 Q912.4631,235.2938 912.5756,235.2281 Q912.6881,235.1625 912.8194,235.1625 Q913.0444,235.1625 913.185,235.3219 Q913.3256,235.4719 913.3256,235.8375 L913.3256,236.7094 Q913.3256,237.075 913.185,237.2344 Q913.0444,237.3937 912.8194,237.3937 Q912.6131,237.3937 912.4912,237.2719 Q912.3694,237.1594 912.3037,236.85 Q912.2756,236.6344 912.1631,236.5219 Q911.9663,236.2969 911.6006,236.1656 Q911.235,236.0344 910.86,236.0344 Q910.4006,236.0344 910.0162,236.2313 Q909.6412,236.4281 909.3413,236.8781 Q909.0506,237.3281 909.0506,237.9469 L909.0506,238.6031 Q909.0506,239.3438 909.585,239.8406 Q910.1194,240.3281 911.0756,240.3281 Q911.6381,240.3281 912.0319,240.1781 Q912.2662,240.0844 912.5194,239.8219 Q912.6787,239.6625 912.7631,239.6156 Q912.8569,239.5688 912.9787,239.5688 Q913.1756,239.5688 913.3256,239.7281 Q913.485,239.8781 913.485,240.0844 Q913.485,240.2906 913.2788,240.5344 Q912.9787,240.8813 912.5006,241.0781 Q911.8537,241.35 911.0756,241.35 Q910.1662,241.35 909.4444,240.975 Q908.8537,240.675 908.4413,240.0375 Q908.0288,239.3906 908.0288,238.6219 L908.0288,237.9281 Q908.0288,237.1313 908.3944,236.4469 Q908.7694,235.7531 909.4256,235.3875 Q910.0819,235.0125 910.8225,235.0125 Q911.2631,235.0125 911.6475,235.1156 Q912.0412,235.2094 912.3694,235.425 Z " fill="#000000"/><text fill="#000000" font-family="sans-serif" font-size="8.4" lengthAdjust="spacing" textLength="55.2" x="922.29" y="241.3781">ProductDetails</text><line style="stroke:#181818;stroke-width:0.3;" x1="888" x2="993" y1="247.5" y2="247.5"/><text fill="#000000" font-family="sans-serif" font-size="8.4" lengthAdjust="spacing" textLength="44.4" x="891" y="258.9645">color: string</text><text fill="#000000" font-family="sans-serif" font-size="8.4" lengthAdjust="spacing" textLength="40.2" x="891" y="270.1371">size: string</text><text fill="#000000" font-family="sans-serif" font-size="8.4" lengthAdjust="spacing" textLength="99" x="891" y="281.3098">// Add more relevant fields</text><line style="stroke:#181818;stroke-width:0.3;" x1="888" x2="993" y1="285.818" y2="285.818"/><ellipse cx="894" cy="294.7043" fill="#84BE84" rx="1.8" ry="1.8" style="stroke:#038048;stroke-width:0.6;"/><text fill="#000000" font-family="sans-serif" font-size="8.4" lengthAdjust="spacing" textLength="39.6" x="899.4" y="297.2824">id: int (PK)</text><text fill="#000000" font-family="sans-serif" font-size="8.4" lengthAdjust="spacing" textLength="73.2" x="899.4" y="308.4551">product_id: int (FK)</text></g><!--class ProductImages--><g id="elem_ProductImages"><rect codeLine="101" fill="#F1F1F1" height="73.4906" id="ProductImages" rx="1.5" ry="1.5" style="stroke:#181818;stroke-width:0.3;" width="106.2" x="887.4" y="334.2"/><ellipse cx="910.17" cy="343.8" fill="#ADD1B2" rx="6.6" ry="6.6" style="stroke:#181818;stroke-width:0.6;"/><path d="M911.8294,341.325 Q911.9231,341.1937 912.0356,341.1281 Q912.1481,341.0625 912.2794,341.0625 Q912.5044,341.0625 912.645,341.2219 Q912.7856,341.3719 912.7856,341.7375 L912.7856,342.6094 Q912.7856,342.975 912.645,343.1344 Q912.5044,343.2938 912.2794,343.2938 Q912.0731,343.2938 911.9513,343.1719 Q911.8294,343.0594 911.7638,342.75 Q911.7356,342.5344 911.6231,342.4219 Q911.4263,342.1969 911.0606,342.0656 Q910.695,341.9344 910.32,341.9344 Q909.8606,341.9344 909.4763,342.1312 Q909.1013,342.3281 908.8013,342.7781 Q908.5106,343.2281 908.5106,343.8469 L908.5106,344.5031 Q908.5106,345.2438 909.045,345.7406 Q909.5794,346.2281 910.5356,346.2281 Q911.0981,346.2281 911.4919,346.0781 Q911.7263,345.9844 911.9794,345.7219 Q912.1388,345.5625 912.2231,345.5156 Q912.3169,345.4688 912.4388,345.4688 Q912.6356,345.4688 912.7856,345.6281 Q912.945,345.7781 912.945,345.9844 Q912.945,346.1906 912.7388,346.4344 Q912.4388,346.7813 911.9606,346.9781 Q911.3138,347.25 910.5356,347.25 Q909.6263,347.25 908.9044,346.875 Q908.3138,346.575 907.9013,345.9375 Q907.4888,345.2906 907.4888,344.5219 L907.4888,343.8281 Q907.4888,343.0313 907.8544,342.3469 Q908.2294,341.6531 908.8856,341.2875 Q909.5419,340.9125 910.2825,340.9125 Q910.7231,340.9125 911.1075,341.0156 Q911.5013,341.1094 911.8294,341.325 Z " fill="#000000"/><text fill="#000000" font-family="sans-serif" font-size="8.4" lengthAdjust="spacing" textLength="56.4" x="921.63" y="347.2781">ProductImages</text><line style="stroke:#181818;stroke-width:0.3;" x1="888" x2="993" y1="353.4" y2="353.4"/><text fill="#000000" font-family="sans-serif" font-size="8.4" lengthAdjust="spacing" textLength="63" x="891" y="364.8645">image_url: string</text><text fill="#000000" font-family="sans-serif" font-size="8.4" lengthAdjust="spacing" textLength="99" x="891" y="376.0371">// Add more relevant fields</text><line style="stroke:#181818;stroke-width:0.3;" x1="888" x2="993" y1="380.5453" y2="380.5453"/><ellipse cx="894" cy="389.4316" fill="#84BE84" rx="1.8" ry="1.8" style="stroke:#038048;stroke-width:0.6;"/><text fill="#000000" font-family="sans-serif" font-size="8.4" lengthAdjust="spacing" textLength="39.6" x="899.4" y="392.0098">id: int (PK)</text><text fill="#000000" font-family="sans-serif" font-size="8.4" lengthAdjust="spacing" textLength="73.2" x="899.4" y="403.1824">product_id: int (FK)</text></g><!--class Users--><g id="elem_Users"><rect codeLine="108" fill="#F1F1F1" height="73.4906" id="Users" rx="1.5" ry="1.5" style="stroke:#181818;stroke-width:0.3;" width="106.2" x="1065" y="439.8"/><ellipse cx="1104.75" cy="449.4" fill="#ADD1B2" rx="6.6" ry="6.6" style="stroke:#181818;stroke-width:0.6;"/><path d="M1106.4094,446.925 Q1106.5031,446.7938 1106.6156,446.7281 Q1106.7281,446.6625 1106.8594,446.6625 Q1107.0844,446.6625 1107.225,446.8219 Q1107.3656,446.9719 1107.3656,447.3375 L1107.3656,448.2094 Q1107.3656,448.575 1107.225,448.7344 Q1107.0844,448.8938 1106.8594,448.8938 Q1106.6531,448.8938 1106.5313,448.7719 Q1106.4094,448.6594 1106.3438,448.35 Q1106.3156,448.1344 1106.2031,448.0219 Q1106.0063,447.7969 1105.6406,447.6656 Q1105.275,447.5344 1104.9,447.5344 Q1104.4406,447.5344 1104.0562,447.7313 Q1103.6812,447.9281 1103.3813,448.3781 Q1103.0906,448.8281 1103.0906,449.4469 L1103.0906,450.1031 Q1103.0906,450.8438 1103.625,451.3406 Q1104.1594,451.8281 1105.1156,451.8281 Q1105.6781,451.8281 1106.0719,451.6781 Q1106.3062,451.5844 1106.5594,451.3219 Q1106.7188,451.1625 1106.8031,451.1156 Q1106.8969,451.0687 1107.0188,451.0687 Q1107.2156,451.0687 1107.3656,451.2281 Q1107.525,451.3781 1107.525,451.5844 Q1107.525,451.7906 1107.3188,452.0344 Q1107.0188,452.3812 1106.5406,452.5781 Q1105.8938,452.85 1105.1156,452.85 Q1104.2063,452.85 1103.4844,452.475 Q1102.8938,452.175 1102.4813,451.5375 Q1102.0688,450.8906 1102.0688,450.1219 L1102.0688,449.4281 Q1102.0688,448.6312 1102.4344,447.9469 Q1102.8094,447.2531 1103.4656,446.8875 Q1104.1219,446.5125 1104.8625,446.5125 Q1105.3031,446.5125 1105.6875,446.6156 Q1106.0813,446.7094 1106.4094,446.925 Z " fill="#000000"/><text fill="#000000" font-family="sans-serif" font-size="8.4" lengthAdjust="spacing" textLength="21.6" x="1117.05" y="452.8781">Users</text><line style="stroke:#181818;stroke-width:0.3;" x1="1065.6" x2="1170.6" y1="459" y2="459"/><text fill="#000000" font-family="sans-serif" font-size="8.4" lengthAdjust="spacing" textLength="63.6" x="1068.6" y="470.4645">username: string</text><text fill="#000000" font-family="sans-serif" font-size="8.4" lengthAdjust="spacing" textLength="45.6" x="1068.6" y="481.6371">email: string</text><text fill="#000000" font-family="sans-serif" font-size="8.4" lengthAdjust="spacing" textLength="99" x="1068.6" y="492.8098">// Add more relevant fields</text><line style="stroke:#181818;stroke-width:0.3;" x1="1065.6" x2="1170.6" y1="497.318" y2="497.318"/><ellipse cx="1071.6" cy="506.2043" fill="#84BE84" rx="1.8" ry="1.8" style="stroke:#038048;stroke-width:0.6;"/><text fill="#000000" font-family="sans-serif" font-size="8.4" lengthAdjust="spacing" textLength="39.6" x="1077" y="508.7824">id: int (PK)</text></g><!--class Reviews--><g id="elem_Reviews"><rect codeLine="115" fill="#F1F1F1" height="95.8359" id="Reviews" rx="1.5" ry="1.5" style="stroke:#181818;stroke-width:0.3;" width="106.2" x="887.4" y="428.4"/><ellipse cx="922.35" cy="438" fill="#ADD1B2" rx="6.6" ry="6.6" style="stroke:#181818;stroke-width:0.6;"/><path d="M924.0094,435.525 Q924.1031,435.3938 924.2156,435.3281 Q924.3281,435.2625 924.4594,435.2625 Q924.6844,435.2625 924.825,435.4219 Q924.9656,435.5719 924.9656,435.9375 L924.9656,436.8094 Q924.9656,437.175 924.825,437.3344 Q924.6844,437.4938 924.4594,437.4938 Q924.2531,437.4938 924.1312,437.3719 Q924.0094,437.2594 923.9437,436.95 Q923.9156,436.7344 923.8031,436.6219 Q923.6062,436.3969 923.2406,436.2656 Q922.875,436.1344 922.5,436.1344 Q922.0406,436.1344 921.6563,436.3313 Q921.2813,436.5281 920.9812,436.9781 Q920.6906,437.4281 920.6906,438.0469 L920.6906,438.7031 Q920.6906,439.4437 921.225,439.9406 Q921.7594,440.4281 922.7156,440.4281 Q923.2781,440.4281 923.6719,440.2781 Q923.9063,440.1844 924.1594,439.9219 Q924.3187,439.7625 924.4031,439.7156 Q924.4969,439.6688 924.6188,439.6688 Q924.8156,439.6688 924.9656,439.8281 Q925.125,439.9781 925.125,440.1844 Q925.125,440.3906 924.9187,440.6344 Q924.6188,440.9813 924.1406,441.1781 Q923.4938,441.45 922.7156,441.45 Q921.8063,441.45 921.0844,441.075 Q920.4938,440.775 920.0813,440.1375 Q919.6687,439.4906 919.6687,438.7219 L919.6687,438.0281 Q919.6687,437.2313 920.0344,436.5469 Q920.4094,435.8531 921.0656,435.4875 Q921.7219,435.1125 922.4625,435.1125 Q922.9031,435.1125 923.2875,435.2156 Q923.6813,435.3094 924.0094,435.525 Z " fill="#000000"/><text fill="#000000" font-family="sans-serif" font-size="8.4" lengthAdjust="spacing" textLength="31.2" x="934.65" y="441.4781">Reviews</text><line style="stroke:#181818;stroke-width:0.3;" x1="888" x2="993" y1="447.6" y2="447.6"/><text fill="#000000" font-family="sans-serif" font-size="8.4" lengthAdjust="spacing" textLength="35.4" x="891" y="459.0645">rating: int</text><text fill="#000000" font-family="sans-serif" font-size="8.4" lengthAdjust="spacing" textLength="67.8" x="891" y="470.2371">review_text: string</text><text fill="#000000" font-family="sans-serif" font-size="8.4" lengthAdjust="spacing" textLength="99" x="891" y="481.4098">// Add more relevant fields</text><line style="stroke:#181818;stroke-width:0.3;" x1="888" x2="993" y1="485.918" y2="485.918"/><ellipse cx="894" cy="494.8043" fill="#84BE84" rx="1.8" ry="1.8" style="stroke:#038048;stroke-width:0.6;"/><text fill="#000000" font-family="sans-serif" font-size="8.4" lengthAdjust="spacing" textLength="39.6" x="899.4" y="497.3824">id: int (PK)</text><text fill="#000000" font-family="sans-serif" font-size="8.4" lengthAdjust="spacing" textLength="73.2" x="899.4" y="508.5551">product_id: int (FK)</text><text fill="#000000" font-family="sans-serif" font-size="8.4" lengthAdjust="spacing" textLength="61.2" x="899.4" y="519.7277">user_id: int (FK)</text></g><!--class ShippingRates--><g id="elem_ShippingRates"><rect codeLine="124" fill="#F1F1F1" height="73.4906" id="ShippingRates" rx="1.5" ry="1.5" style="stroke:#181818;stroke-width:0.3;" width="106.2" x="133.8" y="161.4"/><ellipse cx="157.11" cy="171" fill="#ADD1B2" rx="6.6" ry="6.6" style="stroke:#181818;stroke-width:0.6;"/><path d="M158.7694,168.525 Q158.8631,168.3937 158.9756,168.3281 Q159.0881,168.2625 159.2194,168.2625 Q159.4444,168.2625 159.585,168.4219 Q159.7256,168.5719 159.7256,168.9375 L159.7256,169.8094 Q159.7256,170.175 159.585,170.3344 Q159.4444,170.4938 159.2194,170.4938 Q159.0131,170.4938 158.8913,170.3719 Q158.7694,170.2594 158.7038,169.95 Q158.6756,169.7344 158.5631,169.6219 Q158.3663,169.3969 158.0006,169.2656 Q157.635,169.1344 157.26,169.1344 Q156.8006,169.1344 156.4163,169.3312 Q156.0413,169.5281 155.7413,169.9781 Q155.4506,170.4281 155.4506,171.0469 L155.4506,171.7031 Q155.4506,172.4438 155.985,172.9406 Q156.5194,173.4281 157.4756,173.4281 Q158.0381,173.4281 158.4319,173.2781 Q158.6663,173.1844 158.9194,172.9219 Q159.0788,172.7625 159.1631,172.7156 Q159.2569,172.6688 159.3788,172.6688 Q159.5756,172.6688 159.7256,172.8281 Q159.885,172.9781 159.885,173.1844 Q159.885,173.3906 159.6788,173.6344 Q159.3788,173.9813 158.9006,174.1781 Q158.2538,174.45 157.4756,174.45 Q156.5663,174.45 155.8444,174.075 Q155.2538,173.775 154.8413,173.1375 Q154.4288,172.4906 154.4288,171.7219 L154.4288,171.0281 Q154.4288,170.2313 154.7944,169.5469 Q155.1694,168.8531 155.8256,168.4875 Q156.4819,168.1125 157.2225,168.1125 Q157.6631,168.1125 158.0475,168.2156 Q158.4413,168.3094 158.7694,168.525 Z " fill="#000000"/><text fill="#000000" font-family="sans-serif" font-size="8.4" lengthAdjust="spacing" textLength="55.2" x="168.69" y="174.4781">ShippingRates</text><line style="stroke:#181818;stroke-width:0.3;" x1="134.4" x2="239.4" y1="180.6" y2="180.6"/><text fill="#000000" font-family="sans-serif" font-size="8.4" lengthAdjust="spacing" textLength="67.2" x="137.4" y="192.0645">destination: string</text><text fill="#000000" font-family="sans-serif" font-size="8.4" lengthAdjust="spacing" textLength="48.6" x="137.4" y="203.2371">rate: decimal</text><text fill="#000000" font-family="sans-serif" font-size="8.4" lengthAdjust="spacing" textLength="99" x="137.4" y="214.4098">// Add more relevant fields</text><line style="stroke:#181818;stroke-width:0.3;" x1="134.4" x2="239.4" y1="218.918" y2="218.918"/><ellipse cx="140.4" cy="227.8043" fill="#84BE84" rx="1.8" ry="1.8" style="stroke:#038048;stroke-width:0.6;"/><text fill="#000000" font-family="sans-serif" font-size="8.4" lengthAdjust="spacing" textLength="39.6" x="145.8" y="230.3824">id: int (PK)</text></g><!--class Articles--><g id="elem_Articles"><rect codeLine="131" fill="#F1F1F1" height="73.4906" id="Articles" rx="1.5" ry="1.5" style="stroke:#181818;stroke-width:0.3;" width="106.2" x="708" y="874.2"/><ellipse cx="744.75" cy="883.8" fill="#ADD1B2" rx="6.6" ry="6.6" style="stroke:#181818;stroke-width:0.6;"/><path d="M746.4094,881.325 Q746.5031,881.1938 746.6156,881.1281 Q746.7281,881.0625 746.8594,881.0625 Q747.0844,881.0625 747.225,881.2219 Q747.3656,881.3719 747.3656,881.7375 L747.3656,882.6094 Q747.3656,882.975 747.225,883.1344 Q747.0844,883.2937 746.8594,883.2937 Q746.6531,883.2937 746.5313,883.1719 Q746.4094,883.0594 746.3438,882.75 Q746.3156,882.5344 746.2031,882.4219 Q746.0063,882.1969 745.6406,882.0656 Q745.275,881.9344 744.9,881.9344 Q744.4406,881.9344 744.0563,882.1313 Q743.6813,882.3281 743.3813,882.7781 Q743.0906,883.2281 743.0906,883.8469 L743.0906,884.5031 Q743.0906,885.2438 743.625,885.7406 Q744.1594,886.2281 745.1156,886.2281 Q745.6781,886.2281 746.0719,886.0781 Q746.3063,885.9844 746.5594,885.7219 Q746.7188,885.5625 746.8031,885.5156 Q746.8969,885.4688 747.0188,885.4688 Q747.2156,885.4688 747.3656,885.6281 Q747.525,885.7781 747.525,885.9844 Q747.525,886.1906 747.3188,886.4344 Q747.0188,886.7813 746.5406,886.9781 Q745.8938,887.25 745.1156,887.25 Q744.2063,887.25 743.4844,886.875 Q742.8938,886.575 742.4812,885.9375 Q742.0688,885.2906 742.0688,884.5219 L742.0688,883.8281 Q742.0688,883.0313 742.4344,882.3469 Q742.8094,881.6531 743.4656,881.2875 Q744.1219,880.9125 744.8625,880.9125 Q745.3031,880.9125 745.6875,881.0156 Q746.0813,881.1094 746.4094,881.325 Z " fill="#000000"/><text fill="#000000" font-family="sans-serif" font-size="8.4" lengthAdjust="spacing" textLength="27.6" x="757.05" y="887.2781">Articles</text><line style="stroke:#181818;stroke-width:0.3;" x1="708.6" x2="813.6" y1="893.4" y2="893.4"/><text fill="#000000" font-family="sans-serif" font-size="8.4" lengthAdjust="spacing" textLength="39" x="711.6" y="904.8645">title: string</text><text fill="#000000" font-family="sans-serif" font-size="8.4" lengthAdjust="spacing" textLength="54" x="711.6" y="916.0371">content: string</text><text fill="#000000" font-family="sans-serif" font-size="8.4" lengthAdjust="spacing" textLength="99" x="711.6" y="927.2098">// Add more relevant fields</text><line style="stroke:#181818;stroke-width:0.3;" x1="708.6" x2="813.6" y1="931.718" y2="931.718"/><ellipse cx="714.6" cy="940.6043" fill="#84BE84" rx="1.8" ry="1.8" style="stroke:#038048;stroke-width:0.6;"/><text fill="#000000" font-family="sans-serif" font-size="8.4" lengthAdjust="spacing" textLength="39.6" x="720" y="943.1824">id: int (PK)</text></g><!--class Roles--><g id="elem_Roles"><rect codeLine="138" fill="#F1F1F1" height="62.318" id="Roles" rx="1.5" ry="1.5" style="stroke:#181818;stroke-width:0.3;" width="106.2" x="708" y="737.4"/><ellipse cx="747.75" cy="747" fill="#ADD1B2" rx="6.6" ry="6.6" style="stroke:#181818;stroke-width:0.6;"/><path d="M749.4094,744.525 Q749.5031,744.3938 749.6156,744.3281 Q749.7281,744.2625 749.8594,744.2625 Q750.0844,744.2625 750.225,744.4219 Q750.3656,744.5719 750.3656,744.9375 L750.3656,745.8094 Q750.3656,746.175 750.225,746.3344 Q750.0844,746.4938 749.8594,746.4938 Q749.6531,746.4938 749.5313,746.3719 Q749.4094,746.2594 749.3438,745.95 Q749.3156,745.7344 749.2031,745.6219 Q749.0063,745.3969 748.6406,745.2656 Q748.275,745.1344 747.9,745.1344 Q747.4406,745.1344 747.0563,745.3313 Q746.6813,745.5281 746.3813,745.9781 Q746.0906,746.4281 746.0906,747.0469 L746.0906,747.7031 Q746.0906,748.4438 746.625,748.9406 Q747.1594,749.4281 748.1156,749.4281 Q748.6781,749.4281 749.0719,749.2781 Q749.3063,749.1844 749.5594,748.9219 Q749.7188,748.7625 749.8031,748.7156 Q749.8969,748.6687 750.0188,748.6687 Q750.2156,748.6687 750.3656,748.8281 Q750.525,748.9781 750.525,749.1844 Q750.525,749.3906 750.3188,749.6344 Q750.0188,749.9812 749.5406,750.1781 Q748.8938,750.45 748.1156,750.45 Q747.2063,750.45 746.4844,750.075 Q745.8938,749.775 745.4812,749.1375 Q745.0688,748.4906 745.0688,747.7219 L745.0688,747.0281 Q745.0688,746.2312 745.4344,745.5469 Q745.8094,744.8531 746.4656,744.4875 Q747.1219,744.1125 747.8625,744.1125 Q748.3031,744.1125 748.6875,744.2156 Q749.0813,744.3094 749.4094,744.525 Z " fill="#000000"/><text fill="#000000" font-family="sans-serif" font-size="8.4" lengthAdjust="spacing" textLength="21.6" x="760.05" y="750.4781">Roles</text><line style="stroke:#181818;stroke-width:0.3;" x1="708.6" x2="813.6" y1="756.6" y2="756.6"/><text fill="#000000" font-family="sans-serif" font-size="8.4" lengthAdjust="spacing" textLength="46.8" x="711.6" y="768.0645">name: string</text><text fill="#000000" font-family="sans-serif" font-size="8.4" lengthAdjust="spacing" textLength="99" x="711.6" y="779.2371">// Add more relevant fields</text><line style="stroke:#181818;stroke-width:0.3;" x1="708.6" x2="813.6" y1="783.7453" y2="783.7453"/><ellipse cx="714.6" cy="792.6316" fill="#84BE84" rx="1.8" ry="1.8" style="stroke:#038048;stroke-width:0.6;"/><text fill="#000000" font-family="sans-serif" font-size="8.4" lengthAdjust="spacing" textLength="39.6" x="720" y="795.2098">id: int (PK)</text></g><!--class Menus--><g id="elem_Menus"><rect codeLine="144" fill="#F1F1F1" height="73.4906" id="Menus" rx="1.5" ry="1.5" style="stroke:#181818;stroke-width:0.3;" width="106.2" x="532.2" y="795.6"/><ellipse cx="570.15" cy="805.2" fill="#ADD1B2" rx="6.6" ry="6.6" style="stroke:#181818;stroke-width:0.6;"/><path d="M571.8094,802.725 Q571.9031,802.5938 572.0156,802.5281 Q572.1281,802.4625 572.2594,802.4625 Q572.4844,802.4625 572.625,802.6219 Q572.7656,802.7719 572.7656,803.1375 L572.7656,804.0094 Q572.7656,804.375 572.625,804.5344 Q572.4844,804.6938 572.2594,804.6938 Q572.0531,804.6938 571.9313,804.5719 Q571.8094,804.4594 571.7438,804.15 Q571.7156,803.9344 571.6031,803.8219 Q571.4063,803.5969 571.0406,803.4656 Q570.675,803.3344 570.3,803.3344 Q569.8406,803.3344 569.4563,803.5313 Q569.0813,803.7281 568.7813,804.1781 Q568.4906,804.6281 568.4906,805.2469 L568.4906,805.9031 Q568.4906,806.6438 569.025,807.1406 Q569.5594,807.6281 570.5156,807.6281 Q571.0781,807.6281 571.4719,807.4781 Q571.7063,807.3844 571.9594,807.1219 Q572.1188,806.9625 572.2031,806.9156 Q572.2969,806.8688 572.4187,806.8688 Q572.6156,806.8688 572.7656,807.0281 Q572.925,807.1781 572.925,807.3844 Q572.925,807.5906 572.7188,807.8344 Q572.4187,808.1813 571.9406,808.3781 Q571.2937,808.65 570.5156,808.65 Q569.6062,808.65 568.8844,808.275 Q568.2937,807.975 567.8813,807.3375 Q567.4688,806.6906 567.4688,805.9219 L567.4688,805.2281 Q567.4688,804.4313 567.8344,803.7469 Q568.2094,803.0531 568.8656,802.6875 Q569.5219,802.3125 570.2625,802.3125 Q570.7031,802.3125 571.0875,802.4156 Q571.4812,802.5094 571.8094,802.725 Z " fill="#000000"/><text fill="#000000" font-family="sans-serif" font-size="8.4" lengthAdjust="spacing" textLength="25.2" x="582.45" y="808.6781">Menus</text><line style="stroke:#181818;stroke-width:0.3;" x1="532.8" x2="637.8" y1="814.8" y2="814.8"/><text fill="#000000" font-family="sans-serif" font-size="8.4" lengthAdjust="spacing" textLength="46.8" x="535.8" y="826.2645">name: string</text><text fill="#000000" font-family="sans-serif" font-size="8.4" lengthAdjust="spacing" textLength="35.4" x="535.8" y="837.4371">url: string</text><text fill="#000000" font-family="sans-serif" font-size="8.4" lengthAdjust="spacing" textLength="99" x="535.8" y="848.6098">// Add more relevant fields</text><line style="stroke:#181818;stroke-width:0.3;" x1="532.8" x2="637.8" y1="853.118" y2="853.118"/><ellipse cx="538.8" cy="862.0043" fill="#84BE84" rx="1.8" ry="1.8" style="stroke:#038048;stroke-width:0.6;"/><text fill="#000000" font-family="sans-serif" font-size="8.4" lengthAdjust="spacing" textLength="39.6" x="544.2" y="864.5824">id: int (PK)</text></g><!--class Color--><g id="elem_Color"><rect codeLine="151" fill="#F1F1F1" height="51.1453" id="Color" rx="1.5" ry="1.5" style="stroke:#181818;stroke-width:0.3;" width="55.2" x="912.9" y="545.7"/><ellipse cx="928.92" cy="555.3" fill="#ADD1B2" rx="6.6" ry="6.6" style="stroke:#181818;stroke-width:0.6;"/><path d="M930.5794,552.825 Q930.6731,552.6938 930.7856,552.6281 Q930.8981,552.5625 931.0294,552.5625 Q931.2544,552.5625 931.395,552.7219 Q931.5356,552.8719 931.5356,553.2375 L931.5356,554.1094 Q931.5356,554.475 931.395,554.6344 Q931.2544,554.7937 931.0294,554.7937 Q930.8231,554.7937 930.7013,554.6719 Q930.5794,554.5594 930.5138,554.25 Q930.4856,554.0344 930.3731,553.9219 Q930.1763,553.6969 929.8106,553.5656 Q929.445,553.4344 929.07,553.4344 Q928.6106,553.4344 928.2262,553.6313 Q927.8512,553.8281 927.5513,554.2781 Q927.2606,554.7281 927.2606,555.3469 L927.2606,556.0031 Q927.2606,556.7438 927.795,557.2406 Q928.3294,557.7281 929.2856,557.7281 Q929.8481,557.7281 930.2419,557.5781 Q930.4762,557.4844 930.7294,557.2219 Q930.8888,557.0625 930.9731,557.0156 Q931.0669,556.9688 931.1888,556.9688 Q931.3856,556.9688 931.5356,557.1281 Q931.695,557.2781 931.695,557.4844 Q931.695,557.6906 931.4888,557.9344 Q931.1888,558.2813 930.7106,558.4781 Q930.0638,558.75 929.2856,558.75 Q928.3763,558.75 927.6544,558.375 Q927.0638,558.075 926.6513,557.4375 Q926.2388,556.7906 926.2388,556.0219 L926.2388,555.3281 Q926.2388,554.5313 926.6044,553.8469 Q926.9794,553.1531 927.6356,552.7875 Q928.2919,552.4125 929.0325,552.4125 Q929.4731,552.4125 929.8575,552.5156 Q930.2513,552.6094 930.5794,552.825 Z " fill="#000000"/><text fill="#000000" font-family="sans-serif" font-size="8.4" lengthAdjust="spacing" textLength="20.4" x="938.88" y="558.7781">Color</text><line style="stroke:#181818;stroke-width:0.3;" x1="913.5" x2="967.5" y1="564.9" y2="564.9"/><text fill="#000000" font-family="sans-serif" font-size="8.4" lengthAdjust="spacing" textLength="46.8" x="916.5" y="576.3645">name: string</text><line style="stroke:#181818;stroke-width:0.3;" x1="913.5" x2="967.5" y1="580.8727" y2="580.8727"/><ellipse cx="919.5" cy="589.759" fill="#84BE84" rx="1.8" ry="1.8" style="stroke:#038048;stroke-width:0.6;"/><text fill="#000000" font-family="sans-serif" font-size="8.4" lengthAdjust="spacing" textLength="39.6" x="924.9" y="592.3371">id: int (PK)</text></g><!--class Size--><g id="elem_Size"><rect codeLine="156" fill="#F1F1F1" height="51.1453" id="Size" rx="1.5" ry="1.5" style="stroke:#181818;stroke-width:0.3;" width="55.2" x="912.9" y="617.7"/><ellipse cx="931.08" cy="627.3" fill="#ADD1B2" rx="6.6" ry="6.6" style="stroke:#181818;stroke-width:0.6;"/><path d="M932.7394,624.825 Q932.8331,624.6938 932.9456,624.6281 Q933.0581,624.5625 933.1894,624.5625 Q933.4144,624.5625 933.555,624.7219 Q933.6956,624.8719 933.6956,625.2375 L933.6956,626.1094 Q933.6956,626.475 933.555,626.6344 Q933.4144,626.7937 933.1894,626.7937 Q932.9831,626.7937 932.8612,626.6719 Q932.7394,626.5594 932.6737,626.25 Q932.6456,626.0344 932.5331,625.9219 Q932.3363,625.6969 931.9706,625.5656 Q931.605,625.4344 931.23,625.4344 Q930.7706,625.4344 930.3862,625.6313 Q930.0112,625.8281 929.7113,626.2781 Q929.4206,626.7281 929.4206,627.3469 L929.4206,628.0031 Q929.4206,628.7438 929.955,629.2406 Q930.4894,629.7281 931.4456,629.7281 Q932.0081,629.7281 932.4019,629.5781 Q932.6362,629.4844 932.8894,629.2219 Q933.0487,629.0625 933.1331,629.0156 Q933.2269,628.9688 933.3487,628.9688 Q933.5456,628.9688 933.6956,629.1281 Q933.855,629.2781 933.855,629.4844 Q933.855,629.6906 933.6488,629.9344 Q933.3487,630.2813 932.8706,630.4781 Q932.2237,630.75 931.4456,630.75 Q930.5362,630.75 929.8144,630.375 Q929.2237,630.075 928.8113,629.4375 Q928.3988,628.7906 928.3988,628.0219 L928.3988,627.3281 Q928.3988,626.5313 928.7644,625.8469 Q929.1394,625.1531 929.7956,624.7875 Q930.4519,624.4125 931.1925,624.4125 Q931.6331,624.4125 932.0175,624.5156 Q932.4112,624.6094 932.7394,624.825 Z " fill="#000000"/><text fill="#000000" font-family="sans-serif" font-size="8.4" lengthAdjust="spacing" textLength="15.6" x="941.52" y="630.7781">Size</text><line style="stroke:#181818;stroke-width:0.3;" x1="913.5" x2="967.5" y1="636.9" y2="636.9"/><text fill="#000000" font-family="sans-serif" font-size="8.4" lengthAdjust="spacing" textLength="46.8" x="916.5" y="648.3645">name: string</text><line style="stroke:#181818;stroke-width:0.3;" x1="913.5" x2="967.5" y1="652.8727" y2="652.8727"/><ellipse cx="919.5" cy="661.759" fill="#84BE84" rx="1.8" ry="1.8" style="stroke:#038048;stroke-width:0.6;"/><text fill="#000000" font-family="sans-serif" font-size="8.4" lengthAdjust="spacing" textLength="39.6" x="924.9" y="664.3371">id: int (PK)</text></g><!--class Questions--><g id="elem_Questions"><rect codeLine="161" fill="#F1F1F1" height="73.4906" id="Questions" rx="1.5" ry="1.5" style="stroke:#181818;stroke-width:0.3;" width="106.2" x="532.2" y="4.2"/><ellipse cx="563.55" cy="13.8" fill="#ADD1B2" rx="6.6" ry="6.6" style="stroke:#181818;stroke-width:0.6;"/><path d="M565.2094,11.325 Q565.3031,11.1938 565.4156,11.1281 Q565.5281,11.0625 565.6594,11.0625 Q565.8844,11.0625 566.025,11.2219 Q566.1656,11.3719 566.1656,11.7375 L566.1656,12.6094 Q566.1656,12.975 566.025,13.1344 Q565.8844,13.2938 565.6594,13.2938 Q565.4531,13.2938 565.3313,13.1719 Q565.2094,13.0594 565.1438,12.75 Q565.1156,12.5344 565.0031,12.4219 Q564.8063,12.1969 564.4406,12.0656 Q564.075,11.9344 563.7,11.9344 Q563.2406,11.9344 562.8562,12.1313 Q562.4812,12.3281 562.1813,12.7781 Q561.8906,13.2281 561.8906,13.8469 L561.8906,14.5031 Q561.8906,15.2437 562.425,15.7406 Q562.9594,16.2281 563.9156,16.2281 Q564.4781,16.2281 564.8719,16.0781 Q565.1062,15.9844 565.3594,15.7219 Q565.5188,15.5625 565.6031,15.5156 Q565.6969,15.4688 565.8188,15.4688 Q566.0156,15.4688 566.1656,15.6281 Q566.325,15.7781 566.325,15.9844 Q566.325,16.1906 566.1188,16.4344 Q565.8188,16.7813 565.3406,16.9781 Q564.6938,17.25 563.9156,17.25 Q563.0063,17.25 562.2844,16.875 Q561.6938,16.575 561.2813,15.9375 Q560.8688,15.2906 560.8688,14.5219 L560.8688,13.8281 Q560.8688,13.0313 561.2344,12.3469 Q561.6094,11.6531 562.2656,11.2875 Q562.9219,10.9125 563.6625,10.9125 Q564.1031,10.9125 564.4875,11.0156 Q564.8813,11.1094 565.2094,11.325 Z " fill="#000000"/><text fill="#000000" font-family="sans-serif" font-size="8.4" lengthAdjust="spacing" textLength="38.4" x="575.85" y="17.2781">Questions</text><line style="stroke:#181818;stroke-width:0.3;" x1="532.8" x2="637.8" y1="23.4" y2="23.4"/><text fill="#000000" font-family="sans-serif" font-size="8.4" lengthAdjust="spacing" textLength="58.2" x="535.8" y="34.8645">question: string</text><text fill="#000000" font-family="sans-serif" font-size="8.4" lengthAdjust="spacing" textLength="52.8" x="535.8" y="46.0371">answer: string</text><text fill="#000000" font-family="sans-serif" font-size="8.4" lengthAdjust="spacing" textLength="99" x="535.8" y="57.2098">// Add more relevant fields</text><line style="stroke:#181818;stroke-width:0.3;" x1="532.8" x2="637.8" y1="61.718" y2="61.718"/><ellipse cx="538.8" cy="70.6043" fill="#84BE84" rx="1.8" ry="1.8" style="stroke:#038048;stroke-width:0.6;"/><text fill="#000000" font-family="sans-serif" font-size="8.4" lengthAdjust="spacing" textLength="39.6" x="544.2" y="73.1824">id: int (PK)</text></g><!--class OrderTrack--><g id="elem_OrderTrack"><rect codeLine="168" fill="#F1F1F1" height="84.6633" id="OrderTrack" rx="1.5" ry="1.5" style="stroke:#181818;stroke-width:0.3;" width="106.2" x="532.2" y="182.1"/><ellipse cx="560.85" cy="191.7" fill="#ADD1B2" rx="6.6" ry="6.6" style="stroke:#181818;stroke-width:0.6;"/><path d="M562.5094,189.225 Q562.6031,189.0938 562.7156,189.0281 Q562.8281,188.9625 562.9594,188.9625 Q563.1844,188.9625 563.325,189.1219 Q563.4656,189.2719 563.4656,189.6375 L563.4656,190.5094 Q563.4656,190.875 563.325,191.0344 Q563.1844,191.1938 562.9594,191.1938 Q562.7531,191.1938 562.6313,191.0719 Q562.5094,190.9594 562.4438,190.65 Q562.4156,190.4344 562.3031,190.3219 Q562.1062,190.0969 561.7406,189.9656 Q561.375,189.8344 561,189.8344 Q560.5406,189.8344 560.1563,190.0313 Q559.7813,190.2281 559.4812,190.6781 Q559.1906,191.1281 559.1906,191.7469 L559.1906,192.4031 Q559.1906,193.1437 559.725,193.6406 Q560.2594,194.1281 561.2156,194.1281 Q561.7781,194.1281 562.1719,193.9781 Q562.4063,193.8844 562.6594,193.6219 Q562.8188,193.4625 562.9031,193.4156 Q562.9969,193.3688 563.1188,193.3688 Q563.3156,193.3688 563.4656,193.5281 Q563.625,193.6781 563.625,193.8844 Q563.625,194.0906 563.4187,194.3344 Q563.1188,194.6813 562.6406,194.8781 Q561.9938,195.15 561.2156,195.15 Q560.3063,195.15 559.5844,194.775 Q558.9938,194.475 558.5813,193.8375 Q558.1687,193.1906 558.1687,192.4219 L558.1687,191.7281 Q558.1687,190.9313 558.5344,190.2469 Q558.9094,189.5531 559.5656,189.1875 Q560.2219,188.8125 560.9625,188.8125 Q561.4031,188.8125 561.7875,188.9156 Q562.1813,189.0094 562.5094,189.225 Z " fill="#000000"/><text fill="#000000" font-family="sans-serif" font-size="8.4" lengthAdjust="spacing" textLength="43.8" x="573.15" y="195.1781">OrderTrack</text><line style="stroke:#181818;stroke-width:0.3;" x1="532.8" x2="637.8" y1="201.3" y2="201.3"/><text fill="#000000" font-family="sans-serif" font-size="8.4" lengthAdjust="spacing" textLength="48.6" x="535.8" y="212.7645">status: string</text><text fill="#000000" font-family="sans-serif" font-size="8.4" lengthAdjust="spacing" textLength="85.2" x="535.8" y="223.9371">update_date: datetime</text><text fill="#000000" font-family="sans-serif" font-size="8.4" lengthAdjust="spacing" textLength="99" x="535.8" y="235.1098">// Add more relevant fields</text><line style="stroke:#181818;stroke-width:0.3;" x1="532.8" x2="637.8" y1="239.618" y2="239.618"/><ellipse cx="538.8" cy="248.5043" fill="#84BE84" rx="1.8" ry="1.8" style="stroke:#038048;stroke-width:0.6;"/><text fill="#000000" font-family="sans-serif" font-size="8.4" lengthAdjust="spacing" textLength="39.6" x="544.2" y="251.0824">id: int (PK)</text><text fill="#000000" font-family="sans-serif" font-size="8.4" lengthAdjust="spacing" textLength="64.8" x="544.2" y="262.2551">order_id: int (FK)</text></g><!--class Brands--><g id="elem_Brands"><rect codeLine="176" fill="#F1F1F1" height="62.318" id="Brands" rx="1.5" ry="1.5" style="stroke:#181818;stroke-width:0.3;" width="106.2" x="887.4" y="144.6"/><ellipse cx="924.45" cy="154.2" fill="#ADD1B2" rx="6.6" ry="6.6" style="stroke:#181818;stroke-width:0.6;"/><path d="M926.1094,151.725 Q926.2031,151.5938 926.3156,151.5281 Q926.4281,151.4625 926.5594,151.4625 Q926.7844,151.4625 926.925,151.6219 Q927.0656,151.7719 927.0656,152.1375 L927.0656,153.0094 Q927.0656,153.375 926.925,153.5344 Q926.7844,153.6938 926.5594,153.6938 Q926.3531,153.6938 926.2312,153.5719 Q926.1094,153.4594 926.0437,153.15 Q926.0156,152.9344 925.9031,152.8219 Q925.7063,152.5969 925.3406,152.4656 Q924.975,152.3344 924.6,152.3344 Q924.1406,152.3344 923.7562,152.5313 Q923.3812,152.7281 923.0813,153.1781 Q922.7906,153.6281 922.7906,154.2469 L922.7906,154.9031 Q922.7906,155.6437 923.325,156.1406 Q923.8594,156.6281 924.8156,156.6281 Q925.3781,156.6281 925.7719,156.4781 Q926.0062,156.3844 926.2594,156.1219 Q926.4187,155.9625 926.5031,155.9156 Q926.5969,155.8688 926.7188,155.8688 Q926.9156,155.8688 927.0656,156.0281 Q927.225,156.1781 927.225,156.3844 Q927.225,156.5906 927.0188,156.8344 Q926.7188,157.1813 926.2406,157.3781 Q925.5938,157.65 924.8156,157.65 Q923.9063,157.65 923.1844,157.275 Q922.5938,156.975 922.1813,156.3375 Q921.7688,155.6906 921.7688,154.9219 L921.7688,154.2281 Q921.7688,153.4313 922.1344,152.7469 Q922.5094,152.0531 923.1656,151.6875 Q923.8219,151.3125 924.5625,151.3125 Q925.0031,151.3125 925.3875,151.4156 Q925.7813,151.5094 926.1094,151.725 Z " fill="#000000"/><text fill="#000000" font-family="sans-serif" font-size="8.4" lengthAdjust="spacing" textLength="27" x="936.75" y="157.6781">Brands</text><line style="stroke:#181818;stroke-width:0.3;" x1="888" x2="993" y1="163.8" y2="163.8"/><text fill="#000000" font-family="sans-serif" font-size="8.4" lengthAdjust="spacing" textLength="46.8" x="891" y="175.2645">name: string</text><text fill="#000000" font-family="sans-serif" font-size="8.4" lengthAdjust="spacing" textLength="99" x="891" y="186.4371">// Add more relevant fields</text><line style="stroke:#181818;stroke-width:0.3;" x1="888" x2="993" y1="190.9453" y2="190.9453"/><ellipse cx="894" cy="199.8316" fill="#84BE84" rx="1.8" ry="1.8" style="stroke:#038048;stroke-width:0.6;"/><text fill="#000000" font-family="sans-serif" font-size="8.4" lengthAdjust="spacing" textLength="39.6" x="899.4" y="202.4098">id: int (PK)</text></g><!--class Vendor--><g id="elem_Vendor"><rect codeLine="182" fill="#F1F1F1" height="107.0086" id="Vendor" rx="1.5" ry="1.5" style="stroke:#181818;stroke-width:0.3;" width="74.4" x="548.1" y="288"/><ellipse cx="569.52" cy="297.6" fill="#ADD1B2" rx="6.6" ry="6.6" style="stroke:#181818;stroke-width:0.6;"/><path d="M571.1794,295.125 Q571.2731,294.9938 571.3856,294.9281 Q571.4981,294.8625 571.6294,294.8625 Q571.8544,294.8625 571.995,295.0219 Q572.1356,295.1719 572.1356,295.5375 L572.1356,296.4094 Q572.1356,296.775 571.995,296.9344 Q571.8544,297.0938 571.6294,297.0938 Q571.4231,297.0938 571.3013,296.9719 Q571.1794,296.8594 571.1138,296.55 Q571.0856,296.3344 570.9731,296.2219 Q570.7763,295.9969 570.4106,295.8656 Q570.045,295.7344 569.67,295.7344 Q569.2106,295.7344 568.8263,295.9313 Q568.4513,296.1281 568.1513,296.5781 Q567.8606,297.0281 567.8606,297.6469 L567.8606,298.3031 Q567.8606,299.0438 568.395,299.5406 Q568.9294,300.0281 569.8856,300.0281 Q570.4481,300.0281 570.8419,299.8781 Q571.0763,299.7844 571.3294,299.5219 Q571.4888,299.3625 571.5731,299.3156 Q571.6669,299.2688 571.7888,299.2688 Q571.9856,299.2688 572.1356,299.4281 Q572.295,299.5781 572.295,299.7844 Q572.295,299.9906 572.0888,300.2344 Q571.7888,300.5813 571.3106,300.7781 Q570.6638,301.05 569.8856,301.05 Q568.9763,301.05 568.2544,300.675 Q567.6638,300.375 567.2513,299.7375 Q566.8388,299.0906 566.8388,298.3219 L566.8388,297.6281 Q566.8388,296.8313 567.2044,296.1469 Q567.5794,295.4531 568.2356,295.0875 Q568.8919,294.7125 569.6325,294.7125 Q570.0731,294.7125 570.4575,294.8156 Q570.8513,294.9094 571.1794,295.125 Z " fill="#000000"/><text fill="#000000" font-family="sans-serif" font-size="8.4" lengthAdjust="spacing" textLength="27.6" x="580.68" y="301.0781">Vendor</text><line style="stroke:#181818;stroke-width:0.3;" x1="548.7" x2="621.9" y1="307.2" y2="307.2"/><text fill="#000000" font-family="sans-serif" font-size="8.4" lengthAdjust="spacing" textLength="46.8" x="551.7" y="318.6645">name: string</text><text fill="#000000" font-family="sans-serif" font-size="8.4" lengthAdjust="spacing" textLength="45.6" x="551.7" y="329.8371">email: string</text><text fill="#000000" font-family="sans-serif" font-size="8.4" lengthAdjust="spacing" textLength="49.8" x="551.7" y="341.0098">phone: string</text><text fill="#000000" font-family="sans-serif" font-size="8.4" lengthAdjust="spacing" textLength="56.4" x="551.7" y="352.1824">address: string</text><text fill="#000000" font-family="sans-serif" font-size="8.4" lengthAdjust="spacing" textLength="54.6" x="551.7" y="363.3551">pan_no: string</text><text fill="#000000" font-family="sans-serif" font-size="8.4" lengthAdjust="spacing" textLength="67.2" x="551.7" y="374.5277">aadhar_no: string</text><line style="stroke:#181818;stroke-width:0.3;" x1="548.7" x2="621.9" y1="379.0359" y2="379.0359"/><ellipse cx="554.7" cy="387.9223" fill="#84BE84" rx="1.8" ry="1.8" style="stroke:#038048;stroke-width:0.6;"/><text fill="#000000" font-family="sans-serif" font-size="8.4" lengthAdjust="spacing" textLength="39.6" x="560.1" y="390.5004">id: int (PK)</text></g><!--class WishList--><g id="elem_WishList"><rect codeLine="192" fill="#F1F1F1" height="73.4906" id="WishList" rx="1.5" ry="1.5" style="stroke:#181818;stroke-width:0.3;" width="94.8" x="537.9" y="415.8"/><ellipse cx="566.85" cy="425.4" fill="#ADD1B2" rx="6.6" ry="6.6" style="stroke:#181818;stroke-width:0.6;"/><path d="M568.5094,422.925 Q568.6031,422.7938 568.7156,422.7281 Q568.8281,422.6625 568.9594,422.6625 Q569.1844,422.6625 569.325,422.8219 Q569.4656,422.9719 569.4656,423.3375 L569.4656,424.2094 Q569.4656,424.575 569.325,424.7344 Q569.1844,424.8938 568.9594,424.8938 Q568.7531,424.8938 568.6313,424.7719 Q568.5094,424.6594 568.4438,424.35 Q568.4156,424.1344 568.3031,424.0219 Q568.1062,423.7969 567.7406,423.6656 Q567.375,423.5344 567,423.5344 Q566.5406,423.5344 566.1563,423.7313 Q565.7813,423.9281 565.4812,424.3781 Q565.1906,424.8281 565.1906,425.4469 L565.1906,426.1031 Q565.1906,426.8438 565.725,427.3406 Q566.2594,427.8281 567.2156,427.8281 Q567.7781,427.8281 568.1719,427.6781 Q568.4063,427.5844 568.6594,427.3219 Q568.8188,427.1625 568.9031,427.1156 Q568.9969,427.0687 569.1188,427.0687 Q569.3156,427.0687 569.4656,427.2281 Q569.625,427.3781 569.625,427.5844 Q569.625,427.7906 569.4187,428.0344 Q569.1188,428.3812 568.6406,428.5781 Q567.9938,428.85 567.2156,428.85 Q566.3063,428.85 565.5844,428.475 Q564.9938,428.175 564.5813,427.5375 Q564.1687,426.8906 564.1687,426.1219 L564.1687,425.4281 Q564.1687,424.6312 564.5344,423.9469 Q564.9094,423.2531 565.5656,422.8875 Q566.2219,422.5125 566.9625,422.5125 Q567.4031,422.5125 567.7875,422.6156 Q568.1813,422.7094 568.5094,422.925 Z " fill="#000000"/><text fill="#000000" font-family="sans-serif" font-size="8.4" lengthAdjust="spacing" textLength="31.8" x="579.15" y="428.8781">WishList</text><line style="stroke:#181818;stroke-width:0.3;" x1="538.5" x2="632.1" y1="435" y2="435"/><text fill="#000000" font-family="sans-serif" font-size="8.4" lengthAdjust="spacing" textLength="43.8" x="541.5" y="446.4645">quantity: int</text><line style="stroke:#181818;stroke-width:0.3;" x1="538.5" x2="632.1" y1="450.9727" y2="450.9727"/><ellipse cx="544.5" cy="459.859" fill="#84BE84" rx="1.8" ry="1.8" style="stroke:#038048;stroke-width:0.6;"/><text fill="#000000" font-family="sans-serif" font-size="8.4" lengthAdjust="spacing" textLength="39.6" x="549.9" y="462.4371">id: int (PK)</text><text fill="#000000" font-family="sans-serif" font-size="8.4" lengthAdjust="spacing" textLength="79.2" x="549.9" y="473.6098">customer_id: int (FK)</text><text fill="#000000" font-family="sans-serif" font-size="8.4" lengthAdjust="spacing" textLength="73.2" x="549.9" y="484.7824">product_id: int (FK)</text></g><!--link Vendor to Product--><g id="link_Vendor_Product"><path codeLine="200" d="M622.5,369.702 C649.254,390.384 682.8678,416.3763 711.6018,438.5883 " fill="none" id="Vendor-to-Product" style="stroke:#181818;stroke-width:0.6;"/><polygon fill="#181818" points="714.45,440.79,711.6455,435.5886,712.0765,438.9552,708.7098,439.3862,714.45,440.79" style="stroke:#181818;stroke-width:0.6;"/><text fill="#000000" font-family="sans-serif" font-size="7.8" lengthAdjust="spacing" textLength="28.8" x="658.8" y="394.817">supplies</text></g><!--link WishList to Product--><g id="link_WishList_Product"><path codeLine="201" d="M632.922,458.862 C658.218,462.342 685.7375,466.1239 710.8895,469.5799 " fill="none" id="WishList-to-Product" style="stroke:#181818;stroke-width:0.6;"/><polygon fill="#181818" points="714.456,470.07,709.433,466.9573,711.4839,469.6616,708.7796,471.7126,714.456,470.07" style="stroke:#181818;stroke-width:0.6;"/><text fill="#000000" font-family="sans-serif" font-size="7.8" lengthAdjust="spacing" textLength="29.4" x="658.5" y="459.617">contains</text></g><!--link Product to Category--><g id="link_Product_Category"><path codeLine="203" d="M783.588,518.784 C797.118,544.47 815.1,577.74 832.2,606.6 C862.416,657.612 898.6367,712.3883 920.4707,744.8003 " fill="none" id="Product-to-Category" style="stroke:#181818;stroke-width:0.6;"/><polygon fill="#181818" points="922.482,747.786,921.4555,741.9665,920.8059,745.2979,917.4745,744.6483,922.482,747.786" style="stroke:#181818;stroke-width:0.6;"/><text fill="#000000" font-family="sans-serif" font-size="7.8" lengthAdjust="spacing" textLength="36" x="832.8" y="604.217">belongs to</text></g><!--link Product to ProductDetails--><g id="link_Product_ProductDetails"><path codeLine="204" d="M794.802,433.944 C819.564,402.72 854.658,359.61 887.4,323.4 C890.52,319.95 891.3219,319.0314 894.6579,315.5214 " fill="none" id="Product-to-ProductDetails" style="stroke:#181818;stroke-width:0.6;"/><polygon fill="#181818" points="897.138,312.912,891.6782,315.1728,895.0713,315.0865,895.1575,318.4796,897.138,312.912" style="stroke:#181818;stroke-width:0.6;"/><text fill="#000000" font-family="sans-serif" font-size="7.8" lengthAdjust="spacing" textLength="12.6" x="844.5" y="345.617">has</text></g><!--link Product to ProductImages--><g id="link_Product_ProductImages"><path codeLine="205" d="M807.822,449.07 C832.158,434.646 859.025,418.7274 884.255,403.7754 " fill="none" id="Product-to-ProductImages" style="stroke:#181818;stroke-width:0.6;"/><polygon fill="#181818" points="887.352,401.94,881.4829,402.6284,884.7712,403.4695,883.9301,406.7577,887.352,401.94" style="stroke:#181818;stroke-width:0.6;"/><text fill="#000000" font-family="sans-serif" font-size="7.8" lengthAdjust="spacing" textLength="12.6" x="844.5" y="412.217">has</text></g><!--link Product to Reviews--><g id="link_Product_Reviews"><path codeLine="206" d="M807.822,476.4 C832.158,476.4 858.522,476.4 883.752,476.4 " fill="none" id="Product-to-Reviews" style="stroke:#181818;stroke-width:0.6;"/><polygon fill="#181818" points="887.352,476.4,881.952,474,884.352,476.4,881.952,478.8,887.352,476.4" style="stroke:#181818;stroke-width:0.6;"/><text fill="#000000" font-family="sans-serif" font-size="7.8" lengthAdjust="spacing" textLength="12.6" x="844.5" y="474.017">has</text></g><!--link Product to Brands--><g id="link_Product_Brands"><path codeLine="207" d="M775.686,433.986 C794.922,379.914 833.406,285.36 887.4,217.8 C890.388,214.062 891.1772,212.9456 894.7412,209.5016 " fill="none" id="Product-to-Brands" style="stroke:#181818;stroke-width:0.6;"/><polygon fill="#181818" points="897.33,207,891.7791,209.0266,895.1727,209.0847,895.1146,212.4783,897.33,207" style="stroke:#181818;stroke-width:0.6;"/><text fill="#000000" font-family="sans-serif" font-size="7.8" lengthAdjust="spacing" textLength="36" x="832.8" y="240.617">belongs to</text></g><!--link Product to Color--><g id="link_Product_Color"><path codeLine="208" d="M807.822,500.934 C841.134,518.658 881.7978,540.2892 909.6318,555.0972 " fill="none" id="Product-to-Color" style="stroke:#181818;stroke-width:0.6;"/><polygon fill="#181818" points="912.81,556.788,909.1699,552.1329,910.1615,555.379,906.9154,556.3705,912.81,556.788" style="stroke:#181818;stroke-width:0.6;"/><text fill="#000000" font-family="sans-serif" font-size="7.8" lengthAdjust="spacing" textLength="12.6" x="844.5" y="512.417">has</text></g><!--link Product to Size--><g id="link_Product_Size"><path codeLine="209" d="M798.336,518.76 C822.402,545.478 855.27,579.96 887.4,607.2 C895.242,613.848 901.3335,618.3929 909.7035,624.0629 " fill="none" id="Product-to-Size" style="stroke:#181818;stroke-width:0.6;"/><polygon fill="#181818" points="912.684,626.082,909.5593,621.0664,910.2002,624.3995,906.8672,625.0404,912.684,626.082" style="stroke:#181818;stroke-width:0.6;"/><text fill="#000000" font-family="sans-serif" font-size="7.8" lengthAdjust="spacing" textLength="12.6" x="844.5" y="553.217">has</text></g><!--link Customer to Cart--><g id="link_Customer_Cart"><path codeLine="211" d="M73.332,332.328 C90.894,354.372 112.962,381.264 133.8,404.4 C177.504,452.922 228.3807,503.3169 263.7687,537.4989 " fill="none" id="Customer-to-Cart" style="stroke:#181818;stroke-width:0.6;"/><polygon fill="#181818" points="266.358,540,264.1414,534.5222,264.2002,537.9158,260.8066,537.9746,266.358,540" style="stroke:#181818;stroke-width:0.6;"/><text fill="#000000" font-family="sans-serif" font-size="7.8" lengthAdjust="spacing" textLength="12.6" x="97.2" y="353.417">has</text></g><!--link Customer to Order--><g id="link_Customer_Order"><path codeLine="212" d="M73.206,284.784 C140.988,277.152 289.7506,260.3948 367.0786,251.6888 " fill="none" id="Customer-to-Order" style="stroke:#181818;stroke-width:0.6;"/><polygon fill="#181818" points="370.656,251.286,365.0214,249.5052,367.6748,251.6216,365.5584,254.2751,370.656,251.286" style="stroke:#181818;stroke-width:0.6;"/><text fill="#000000" font-family="sans-serif" font-size="7.8" lengthAdjust="spacing" textLength="22.8" x="175.5" y="264.617">places</text></g><!--link Customer to DeliveryAddress--><g id="link_Customer_DeliveryAddress"><path codeLine="213" d="M58.548,240.444 C73.89,208.962 98.67,170.178 133.8,150.6 C264.714,77.64 448.1479,101.2742 534.3499,118.2542 " fill="none" id="Customer-to-DeliveryAddress" style="stroke:#181818;stroke-width:0.6;"/><polygon fill="#181818" points="537.882,118.95,533.0476,115.5516,534.9386,118.3702,532.12,120.2611,537.882,118.95" style="stroke:#181818;stroke-width:0.6;"/><text fill="#000000" font-family="sans-serif" font-size="7.8" lengthAdjust="spacing" textLength="12.6" x="299.1" y="99.017">has</text></g><!--link Customer to Payment--><g id="link_Customer_Payment"><path codeLine="214" d="M73.212,303.132 C92.286,311.31 113.1271,320.2419 134.2111,329.2779 " fill="none" id="Customer-to-Payment" style="stroke:#181818;stroke-width:0.6;"/><polygon fill="#181818" points="137.52,330.696,133.502,326.3629,134.7626,329.5142,131.6112,330.7748,137.52,330.696" style="stroke:#181818;stroke-width:0.6;"/><text fill="#000000" font-family="sans-serif" font-size="7.8" lengthAdjust="spacing" textLength="23.4" x="91.8" y="310.817">makes</text></g><!--link Cart to Product--><g id="link_Cart_Product"><path codeLine="216" d="M352.836,594.156 C419.292,616.146 543.426,646.278 638.4,605.4 C679.188,587.844 710.6426,552.1607 732.1766,521.7287 " fill="none" id="Cart-to-Product" style="stroke:#181818;stroke-width:0.6;"/><polygon fill="#181818" points="734.256,518.79,729.1777,521.8117,732.5231,521.2389,733.096,524.5843,734.256,518.79" style="stroke:#181818;stroke-width:0.6;"/><text fill="#000000" font-family="sans-serif" font-size="7.8" lengthAdjust="spacing" textLength="29.4" x="484.2" y="621.017">contains</text></g><!--link Order to OrderItem--><g id="link_Order_OrderItem"><path codeLine="217" d="M430.506,282.816 C447.858,334.2 483.666,429.066 532.2,499.8 C534.834,503.64 535.4525,504.6764 538.5485,508.3784 " fill="none" id="Order-to-OrderItem" style="stroke:#181818;stroke-width:0.6;"/><polygon fill="#181818" points="540.858,511.14,539.2348,505.458,538.9334,508.8387,535.5527,508.5373,540.858,511.14" style="stroke:#181818;stroke-width:0.6;"/><text fill="#000000" font-family="sans-serif" font-size="7.8" lengthAdjust="spacing" textLength="12.6" x="492.6" y="418.217">has</text></g><!--link Order to DeliveryAddress--><g id="link_Order_DeliveryAddress"><path codeLine="219" d="M465.678,213.114 C489.054,196.71 514.2349,179.0376 537.2749,162.8736 " fill="none" id="Order-to-DeliveryAddress" style="stroke:#181818;stroke-width:0.6;"/><polygon fill="#181818" points="540.222,160.806,534.423,161.9426,537.7661,162.529,537.1798,165.872,540.222,160.806" style="stroke:#181818;stroke-width:0.6;"/><text fill="#000000" font-family="sans-serif" font-size="7.8" lengthAdjust="spacing" textLength="12.6" x="492.6" y="178.817">has</text></g><!--link Order to OrderTrack--><g id="link_Order_OrderTrack"><path codeLine="220" d="M465.678,239.898 C486.372,237.204 507.2222,234.4893 528.5342,231.7113 " fill="none" id="Order-to-OrderTrack" style="stroke:#181818;stroke-width:0.6;"/><polygon fill="#181818" points="532.104,231.246,526.4391,229.5641,529.1292,231.6338,527.0595,234.3238,532.104,231.246" style="stroke:#181818;stroke-width:0.6;"/><text fill="#000000" font-family="sans-serif" font-size="7.8" lengthAdjust="spacing" textLength="12.6" x="492.6" y="231.617">has</text></g><!--link Admin to Category--><g id="link_Admin_Category"><path codeLine="222" d="M619.986,697.86 C664.992,701.628 746.46,710.244 814.2,727.2 C849.048,735.924 884.2965,749.5548 909.4005,760.0908 " fill="none" id="Admin-to-Category" style="stroke:#181818;stroke-width:0.6;"/><polygon fill="#181818" points="912.72,761.484,908.6695,757.1812,909.9538,760.323,906.812,761.6072,912.72,761.484" style="stroke:#181818;stroke-width:0.6;"/><text fill="#000000" font-family="sans-serif" font-size="7.8" lengthAdjust="spacing" textLength="31.8" x="745.2" y="705.017">manages</text></g><!--link Admin to Product--><g id="link_Admin_Product"><path codeLine="223" d="M620.016,689.16 C642.468,683.454 671.094,672.918 690,654 C726.876,617.1 744.2936,562.0416 752.8256,522.3396 " fill="none" id="Admin-to-Product" style="stroke:#181818;stroke-width:0.6;"/><polygon fill="#181818" points="753.582,518.82,750.101,523.5952,752.9517,521.753,754.7939,524.6037,753.582,518.82" style="stroke:#181818;stroke-width:0.6;"/><text fill="#000000" font-family="sans-serif" font-size="7.8" lengthAdjust="spacing" textLength="31.8" x="657.3" y="651.617">manages</text></g><!--link OrderItem to Product--><g id="link_OrderItem_Product"><path codeLine="227" d="M629.736,533.472 C655.596,522.186 684.9846,509.3582 711.2106,497.9102 " fill="none" id="OrderItem-to-Product" style="stroke:#181818;stroke-width:0.6;"/><polygon fill="#181818" points="714.51,496.47,708.6008,496.4307,711.7605,497.6702,710.5211,500.8299,714.51,496.47" style="stroke:#181818;stroke-width:0.6;"/><text fill="#000000" font-family="sans-serif" font-size="7.8" lengthAdjust="spacing" textLength="12.6" x="666.9" y="505.217">has</text></g><!--link Payment to Order--><g id="link_Payment_Order"><path codeLine="228" d="M236.124,338.88 C269.934,329.034 315.456,313.746 352.8,294 C359.112,290.664 362.488,288.757 368.644,284.629 " fill="none" id="Payment-to-Order" style="stroke:#181818;stroke-width:0.6;"/><polygon fill="#181818" points="371.634,282.624,365.8124,283.6381,369.1423,284.2948,368.4857,287.6248,371.634,282.624" style="stroke:#181818;stroke-width:0.6;"/><text fill="#000000" font-family="sans-serif" font-size="7.8" lengthAdjust="spacing" textLength="36" x="287.4" y="291.617">belongs to</text></g><!--link Reviews to Users--><g id="link_Reviews_Users"><path codeLine="234" d="M993.786,476.4 C1016.274,476.4 1038.858,476.4 1061.334,476.4 " fill="none" id="Reviews-to-Users" style="stroke:#181818;stroke-width:0.6;"/><polygon fill="#181818" points="1064.934,476.4,1059.534,474,1061.934,476.4,1059.534,478.8,1064.934,476.4" style="stroke:#181818;stroke-width:0.6;"/><text fill="#000000" font-family="sans-serif" font-size="7.8" lengthAdjust="spacing" textLength="34.2" x="1012.2" y="474.017">posted by</text></g><!--link ShippingRates to Order--><g id="link_ShippingRates_Order"><path codeLine="235" d="M240,208.95 C279.396,217.17 329.3199,227.5824 367.2639,235.5024 " fill="none" id="ShippingRates-to-Order" style="stroke:#181818;stroke-width:0.6;"/><polygon fill="#181818" points="370.788,236.238,365.9923,232.7853,367.8513,235.625,365.0115,237.484,370.788,236.238" style="stroke:#181818;stroke-width:0.6;"/><text fill="#000000" font-family="sans-serif" font-size="7.8" lengthAdjust="spacing" textLength="33.6" x="288.6" y="211.217">applies to</text></g><!--link Articles to Category--><g id="link_Articles_Category"><path codeLine="237" d="M814.212,891.168 C832.68,882.876 852.918,872.118 869.4,859.2 C891.018,842.25 908.3547,820.5355 921.3027,801.9955 " fill="none" id="Articles-to-Category" style="stroke:#181818;stroke-width:0.6;"/><polygon fill="#181818" points="923.364,799.044,918.3045,802.097,921.6463,801.5036,922.2398,804.8454,923.364,799.044" style="stroke:#181818;stroke-width:0.6;"/><text fill="#000000" font-family="sans-serif" font-size="7.8" lengthAdjust="spacing" textLength="36" x="832.8" y="856.817">belongs to</text></g><!--link Menus to Roles--><g id="link_Menus_Roles"><path codeLine="238" d="M638.52,813.03 C660.51,805.02 682.6273,796.9639 704.6053,788.9599 " fill="none" id="Menus-to-Roles" style="stroke:#181818;stroke-width:0.6;"/><polygon fill="#181818" points="707.988,787.728,702.0927,787.3208,705.1691,788.7546,703.7353,791.831,707.988,787.728" style="stroke:#181818;stroke-width:0.6;"/><text fill="#000000" font-family="sans-serif" font-size="7.8" lengthAdjust="spacing" textLength="27.6" x="659.4" y="792.017">requires</text></g><!--link Menus to Articles--><g id="link_Menus_Articles"><path codeLine="239" d="M638.52,855.888 C660.51,865.788 682.7273,875.7882 704.7053,885.6822 " fill="none" id="Menus-to-Articles" style="stroke:#181818;stroke-width:0.6;"/><polygon fill="#181818" points="707.988,887.16,704.0491,882.7548,705.2524,885.9285,702.0788,887.1318,707.988,887.16" style="stroke:#181818;stroke-width:0.6;"/><text fill="#000000" font-family="sans-serif" font-size="7.8" lengthAdjust="spacing" textLength="12.6" x="666.9" y="861.617">has</text></g><!--link Menus to Category--><g id="link_Menus_Category"><path codeLine="240" d="M638.412,834.636 C685.074,835.668 754.89,834.444 814.2,822 C849.462,814.602 884.5278,800.0384 909.4698,788.3984 " fill="none" id="Menus-to-Category" style="stroke:#181818;stroke-width:0.6;"/><polygon fill="#181818" points="912.732,786.876,906.8237,786.9848,910.0135,788.1447,908.8536,791.3345,912.732,786.876" style="stroke:#181818;stroke-width:0.6;"/><text fill="#000000" font-family="sans-serif" font-size="7.8" lengthAdjust="spacing" textLength="12.6" x="754.8" y="819.617">has</text></g><!--link Questions to Product--><g id="link_Questions_Product"><path codeLine="242" d="M630.786,77.478 C633.57,80.724 636.15,84.114 638.4,87.6 C711.048,200.07 742.4604,355.1771 754.1904,430.2671 " fill="none" id="Questions-to-Product" style="stroke:#181818;stroke-width:0.6;"/><polygon fill="#181818" points="754.746,433.824,756.2838,428.1183,754.283,430.8599,751.5413,428.8591,754.746,433.824" style="stroke:#181818;stroke-width:0.6;"/><text fill="#000000" font-family="sans-serif" font-size="7.8" lengthAdjust="spacing" textLength="32.4" x="657" y="123.617">relates to</text></g><!--SRC=[hLTBJzmm4BxdLrXxsLOLuiu1YO8geROgXJwEaOc7NOl43hO3tLRyzuuVSHnlTjaWE43i6Sytxnbgk3F4IABuQcq8umegmwKeYgLK39GEVqi6Xl8w7hc11WyLLMRuDh2IYWD-toegcBsJjLJ5KlE_K2mVEj1MTXHY5AtkaQdJHZOEgrMITPKPlWRS_e8tT6KXEkrUA7Zay8GVUitRbejLgL0FFADclAhjbvBkJmEYitBe1hzCiMHGyqTGcv8ofa3R9wpXQ7bLKwt9UT2A_2i8-S3P2U72a7TNdz_ZMT06JeWs2W7n20tgc9nR5F24DYPN0IHbMain27dkSQ-ydOV0jefNU6PGeLDgl62WAyLRw-I4BGHcKqPfdr1Q13mFv9SHaoTgMi4-b6Cegsa8tlZweQF2SBDnbuFuRpOxPiaFEOgMe3lmj-4DuBMHXjObRMGdpE2dCSubPkyaLaZqLnYo5PaXk3xvPk3v1zkcvKOH318rdTuEraN8ypEVWRFyccTj57fcI-LDIYDF_0jVy9EoTtZVTPa4mxQRv7XyZEeoqaW5H44DZnWhSiUXnWwLer-wxZ87tFMZibFrNCIVje5D8jdMze8R3qAuzhrnZZKMEh_3XegWVMhxXbiQ-6FcwdCJMlIrxT2JMZ4x8GJD6fZooHyp_I2miz3_9t6mLklKlPKK1iHiWwxbBe0iV0T9-se7r27INf5ivxP4PdJu6ooX6UpV-z4- -QOV_Eau5Fe9r5mhNCF-ORU6mpjerXRHUwrjeziTzI0DFhh5vir2_Wi4mmK9nUNIjkHjzu1yXR0tssk6RRcY57BCHjcQglJsEMZqc-lr5wvDCMMY_TarAXpIT5EnF-C9YN3UT79qT1fNdXEoq5tRrhX2BefUaPp3bYhb0ZcA_jPon2q6MMwXbcAbSVmlHZpPX47EDTMJB64CJ77qJNMA5h9ZZmg-3gVUkehh2KNSFhrjoaJIYE8t9IIrDQqWf-QJVr94lv8WiQ7tuC0jtawtUyo8xlQdNlAo9wPY7MLujKkhJAuly-WGlt3aaMwei85Q9EH4vqXDz8gsPq5Q3iOWL_Hhof9oZ71yB8F1ex2C47B3zsXJBBDSjHuT04TYnocxXx7FtDqi0yTfM4ziQabjW97RpQ8O3_2HfTJNhTS-pjvzbUd7dIifDqQHhE2Xm_z0TKgCidf73wHKii-IOGvb8S8Ex7IsmFy1]--></g></svg>