<svg xmlns="http://www.w3.org/2000/svg" xmlns:xlink="http://www.w3.org/1999/xlink" width="798" height="1230" contentStyleType="text/css" preserveAspectRatio="none" style="width:798px;height:1230px;background:#fff" version="1.1" viewBox="0 0 798 1230" zoomAndPan="magnify"><g><g id="cluster_com"><path fill="none" d="M8.5,6.0137 L38.5,6.0137 A3.75,3.75 0 0 1 41,8.5137 L48,30.6348 L788.5,30.6348 A2.5,2.5 0 0 1 791,33.1348 L791,1220.5137 A2.5,2.5 0 0 1 788.5,1223.0137 L8.5,1223.0137 A2.5,2.5 0 0 1 6,1220.5137 L6,8.5137 A2.5,2.5 0 0 1 8.5,6.0137" style="stroke:#000;stroke-width:1.5"/><line style="stroke:#000;stroke-width:1.5" x1="6" x2="48" y1="30.635" y2="30.635"/><text x="10" y="23.121" fill="#000" font-family="sans-serif" font-size="14" font-weight="bold" lengthAdjust="spacing" textLength="29">com</text></g><g id="cluster_curiositees"><path fill="none" d="M32.5,51.0137 L112.5,51.0137 A3.75,3.75 0 0 1 115,53.5137 L122,75.6348 L764.5,75.6348 A2.5,2.5 0 0 1 767,78.1348 L767,1196.5137 A2.5,2.5 0 0 1 764.5,1199.0137 L32.5,1199.0137 A2.5,2.5 0 0 1 30,1196.5137 L30,53.5137 A2.5,2.5 0 0 1 32.5,51.0137" style="stroke:#000;stroke-width:1.5"/><line style="stroke:#000;stroke-width:1.5" x1="30" x2="122" y1="75.635" y2="75.635"/><text x="34" y="68.121" fill="#000" font-family="sans-serif" font-size="14" font-weight="bold" lengthAdjust="spacing" textLength="79">curiositees</text></g><g id="cluster_common"><path fill="none" d="M56.5,96.0137 L116.5,96.0137 A3.75,3.75 0 0 1 119,98.5137 L126,120.6348 L740.5,120.6348 A2.5,2.5 0 0 1 743,123.1348 L743,1172.5137 A2.5,2.5 0 0 1 740.5,1175.0137 L56.5,1175.0137 A2.5,2.5 0 0 1 54,1172.5137 L54,98.5137 A2.5,2.5 0 0 1 56.5,96.0137" style="stroke:#000;stroke-width:1.5"/><line style="stroke:#000;stroke-width:1.5" x1="54" x2="126" y1="120.635" y2="120.635"/><text x="58" y="113.121" fill="#000" font-family="sans-serif" font-size="14" font-weight="bold" lengthAdjust="spacing" textLength="59">common</text></g><g id="cluster_entity"><path fill="none" d="M80.5,141.0137 L120.5,141.0137 A3.75,3.75 0 0 1 123,143.5137 L130,165.6348 L716.5,165.6348 A2.5,2.5 0 0 1 719,168.1348 L719,1148.5137 A2.5,2.5 0 0 1 716.5,1151.0137 L80.5,1151.0137 A2.5,2.5 0 0 1 78,1148.5137 L78,143.5137 A2.5,2.5 0 0 1 80.5,141.0137" style="stroke:#000;stroke-width:1.5"/><line style="stroke:#000;stroke-width:1.5" x1="78" x2="130" y1="165.635" y2="165.635"/><text x="82" y="158.121" fill="#000" font-family="sans-serif" font-size="14" font-weight="bold" lengthAdjust="spacing" textLength="39">entity</text></g><g id="elem_Category"><rect id="Category" width="285" height="681.117" x="94.5" y="178.014" fill="#F1F1F1" codeLine="1" rx="2.5" ry="2.5" style="stroke:#181818;stroke-width:.5"/><ellipse cx="203.75" cy="194.014" fill="#ADD1B2" rx="11" ry="11" style="stroke:#181818;stroke-width:1"/><path fill="#000" d="M206.5156,189.8887 Q206.6719,189.6699 206.8594,189.5605 Q207.0469,189.4512 207.2656,189.4512 Q207.6406,189.4512 207.875,189.7168 Q208.1094,189.9668 208.1094,190.5762 L208.1094,192.0293 Q208.1094,192.6387 207.875,192.9043 Q207.6406,193.1699 207.2656,193.1699 Q206.9219,193.1699 206.7188,192.9668 Q206.5156,192.7793 206.4063,192.2637 Q206.3594,191.9043 206.1719,191.7168 Q205.8438,191.3418 205.2344,191.123 Q204.625,190.9043 204,190.9043 Q203.2344,190.9043 202.5938,191.2324 Q201.9688,191.5605 201.4688,192.3105 Q200.9844,193.0605 200.9844,194.0918 L200.9844,195.1855 Q200.9844,196.4199 201.875,197.248 Q202.7656,198.0605 204.3594,198.0605 Q205.2969,198.0605 205.9531,197.8105 Q206.3438,197.6543 206.7656,197.2168 Q207.0313,196.9512 207.1719,196.873 Q207.3281,196.7949 207.5313,196.7949 Q207.8594,196.7949 208.1094,197.0605 Q208.375,197.3105 208.375,197.6543 Q208.375,197.998 208.0313,198.4043 Q207.5313,198.9824 206.7344,199.3105 Q205.6563,199.7637 204.3594,199.7637 Q202.8438,199.7637 201.6406,199.1387 Q200.6563,198.6387 199.9688,197.5762 Q199.2813,196.498 199.2813,195.2168 L199.2813,194.0605 Q199.2813,192.7324 199.8906,191.5918 Q200.5156,190.4355 201.6094,189.8262 Q202.7031,189.2012 203.9375,189.2012 Q204.6719,189.2012 205.3125,189.373 Q205.9688,189.5293 206.5156,189.8887 Z"/><text x="224.25" y="199.81" fill="#000" font-family="sans-serif" font-size="14" lengthAdjust="spacing" textLength="58">Category</text><line style="stroke:#181818;stroke-width:.5" x1="95.5" x2="378.5" y1="210.014" y2="210.014"/><rect width="6" height="6" x="102.5" fill="none" style="stroke:#c82930;stroke-width:1" y="221.824"/><text x="114.5" y="229.121" fill="#000" font-family="sans-serif" font-size="14" lengthAdjust="spacing" textLength="59">Integer id</text><rect width="6" height="6" x="102.5" fill="none" style="stroke:#c82930;stroke-width:1" y="240.445"/><text x="114.5" y="247.742" fill="#000" font-family="sans-serif" font-size="14" lengthAdjust="spacing" textLength="76">String name</text><rect width="6" height="6" x="102.5" fill="none" style="stroke:#c82930;stroke-width:1" y="259.066"/><text x="114.5" y="266.363" fill="#000" font-family="sans-serif" font-size="14" lengthAdjust="spacing" textLength="70">String alias</text><rect width="6" height="6" x="102.5" fill="none" style="stroke:#c82930;stroke-width:1" y="277.688"/><text x="114.5" y="284.984" fill="#000" font-family="sans-serif" font-size="14" lengthAdjust="spacing" textLength="79">String image</text><rect width="6" height="6" x="102.5" fill="none" style="stroke:#c82930;stroke-width:1" y="296.309"/><text x="114.5" y="303.606" fill="#000" font-family="sans-serif" font-size="14" lengthAdjust="spacing" textLength="106">boolean enabled</text><rect width="6" height="6" x="102.5" fill="none" style="stroke:#c82930;stroke-width:1" y="314.93"/><text x="114.5" y="322.227" fill="#000" font-family="sans-serif" font-size="14" lengthAdjust="spacing" textLength="103">Category parent</text><rect width="6" height="6" x="102.5" fill="none" style="stroke:#c82930;stroke-width:1" y="333.551"/><text x="114.5" y="340.848" fill="#000" font-family="sans-serif" font-size="14" lengthAdjust="spacing" textLength="149">Set&lt;Category&gt; children</text><rect width="6" height="6" x="102.5" fill="none" style="stroke:#c82930;stroke-width:1" y="352.172"/><text x="114.5" y="359.469" fill="#000" font-family="sans-serif" font-size="14" lengthAdjust="spacing" textLength="131">boolean hasChildren</text><line style="stroke:#181818;stroke-width:.5" x1="95.5" x2="378.5" y1="366.982" y2="366.982"/><ellipse cx="105.5" cy="381.793" fill="#84BE84" rx="3" ry="3" style="stroke:#038048;stroke-width:1"/><text x="114.5" y="386.09" fill="#000" font-family="sans-serif" font-size="14" lengthAdjust="spacing" textLength="131">«Create» Category()</text><ellipse cx="105.5" cy="400.414" fill="#84BE84" rx="3" ry="3" style="stroke:#038048;stroke-width:1"/><text x="114.5" y="404.711" fill="#000" font-family="sans-serif" font-size="14" lengthAdjust="spacing" textLength="175">«Create» Category(Integer)</text><ellipse cx="105.5" cy="419.035" fill="#84BE84" rx="3" ry="3" style="stroke:#038048;stroke-width:1"/><text x="114.5" y="423.332" fill="#000" font-family="sans-serif" font-size="14" lengthAdjust="spacing" textLength="168">«Create» Category(String)</text><ellipse cx="105.5" cy="437.656" fill="#84BE84" rx="3" ry="3" style="stroke:#038048;stroke-width:1"/><text x="114.5" y="441.953" fill="#000" font-family="sans-serif" font-size="14" lengthAdjust="spacing" textLength="230">«Create» Category(String,Category)</text><ellipse cx="105.5" cy="456.277" fill="#84BE84" rx="3" ry="3" style="stroke:#038048;stroke-width:1"/><text x="114.5" y="460.574" fill="#000" font-family="sans-serif" font-size="14" lengthAdjust="spacing" textLength="257">«Create» Category(Integer,String,String)</text><ellipse cx="105.5" cy="474.898" fill="#84BE84" rx="3" ry="3" style="stroke:#038048;stroke-width:1"/><text x="114.5" y="479.195" fill="#000" font-family="sans-serif" font-size="14" lengthAdjust="spacing" text-decoration="underline" textLength="232">Category copyIdAndName(Category)</text><ellipse cx="105.5" cy="493.519" fill="#84BE84" rx="3" ry="3" style="stroke:#038048;stroke-width:1"/><text x="114.5" y="497.816" fill="#000" font-family="sans-serif" font-size="14" lengthAdjust="spacing" text-decoration="underline" textLength="259">Category copyIdAndName(Integer,String)</text><ellipse cx="105.5" cy="512.141" fill="#84BE84" rx="3" ry="3" style="stroke:#038048;stroke-width:1"/><text x="114.5" y="516.438" fill="#000" font-family="sans-serif" font-size="14" lengthAdjust="spacing" text-decoration="underline" textLength="183">Category copyFull(Category)</text><ellipse cx="105.5" cy="530.762" fill="#84BE84" rx="3" ry="3" style="stroke:#038048;stroke-width:1"/><text x="114.5" y="535.059" fill="#000" font-family="sans-serif" font-size="14" lengthAdjust="spacing" text-decoration="underline" textLength="224">Category copyFull(Category,String)</text><ellipse cx="105.5" cy="549.383" fill="#84BE84" rx="3" ry="3" style="stroke:#038048;stroke-width:1"/><text x="114.5" y="553.68" fill="#000" font-family="sans-serif" font-size="14" lengthAdjust="spacing" textLength="89">Integer getId()</text><ellipse cx="105.5" cy="568.004" fill="#84BE84" rx="3" ry="3" style="stroke:#038048;stroke-width:1"/><text x="114.5" y="572.301" fill="#000" font-family="sans-serif" font-size="14" lengthAdjust="spacing" textLength="114">void setId(Integer)</text><ellipse cx="105.5" cy="586.625" fill="#84BE84" rx="3" ry="3" style="stroke:#038048;stroke-width:1"/><text x="114.5" y="590.922" fill="#000" font-family="sans-serif" font-size="14" lengthAdjust="spacing" textLength="107">String getName()</text><ellipse cx="105.5" cy="605.246" fill="#84BE84" rx="3" ry="3" style="stroke:#038048;stroke-width:1"/><text x="114.5" y="609.543" fill="#000" font-family="sans-serif" font-size="14" lengthAdjust="spacing" textLength="132">void setName(String)</text><ellipse cx="105.5" cy="623.867" fill="#84BE84" rx="3" ry="3" style="stroke:#038048;stroke-width:1"/><text x="114.5" y="628.164" fill="#000" font-family="sans-serif" font-size="14" lengthAdjust="spacing" textLength="101">String getAlias()</text><ellipse cx="105.5" cy="642.488" fill="#84BE84" rx="3" ry="3" style="stroke:#038048;stroke-width:1"/><text x="114.5" y="646.785" fill="#000" font-family="sans-serif" font-size="14" lengthAdjust="spacing" textLength="126">void setAlias(String)</text><ellipse cx="105.5" cy="661.109" fill="#84BE84" rx="3" ry="3" style="stroke:#038048;stroke-width:1"/><text x="114.5" y="665.406" fill="#000" font-family="sans-serif" font-size="14" lengthAdjust="spacing" textLength="109">String getImage()</text><ellipse cx="105.5" cy="679.731" fill="#84BE84" rx="3" ry="3" style="stroke:#038048;stroke-width:1"/><text x="114.5" y="684.027" fill="#000" font-family="sans-serif" font-size="14" lengthAdjust="spacing" textLength="134">void setImage(String)</text><ellipse cx="105.5" cy="698.352" fill="#84BE84" rx="3" ry="3" style="stroke:#038048;stroke-width:1"/><text x="114.5" y="702.648" fill="#000" font-family="sans-serif" font-size="14" lengthAdjust="spacing" textLength="127">boolean isEnabled()</text><ellipse cx="105.5" cy="716.973" fill="#84BE84" rx="3" ry="3" style="stroke:#038048;stroke-width:1"/><text x="114.5" y="721.269" fill="#000" font-family="sans-serif" font-size="14" lengthAdjust="spacing" textLength="162">void setEnabled(boolean)</text><ellipse cx="105.5" cy="735.594" fill="#84BE84" rx="3" ry="3" style="stroke:#038048;stroke-width:1"/><text x="114.5" y="739.891" fill="#000" font-family="sans-serif" font-size="14" lengthAdjust="spacing" textLength="134">Category getParent()</text><ellipse cx="105.5" cy="754.215" fill="#84BE84" rx="3" ry="3" style="stroke:#038048;stroke-width:1"/><text x="114.5" y="758.512" fill="#000" font-family="sans-serif" font-size="14" lengthAdjust="spacing" textLength="159">void setParent(Category)</text><ellipse cx="105.5" cy="772.836" fill="#84BE84" rx="3" ry="3" style="stroke:#038048;stroke-width:1"/><text x="114.5" y="777.133" fill="#000" font-family="sans-serif" font-size="14" lengthAdjust="spacing" textLength="182">Set&lt;Category&gt; getChildren()</text><ellipse cx="105.5" cy="791.457" fill="#84BE84" rx="3" ry="3" style="stroke:#038048;stroke-width:1"/><text x="114.5" y="795.754" fill="#000" font-family="sans-serif" font-size="14" lengthAdjust="spacing" textLength="207">void setChildren(Set&lt;Category&gt;)</text><ellipse cx="105.5" cy="810.078" fill="#84BE84" rx="3" ry="3" style="stroke:#038048;stroke-width:1"/><text x="114.5" y="814.375" fill="#000" font-family="sans-serif" font-size="14" lengthAdjust="spacing" textLength="138">String getImagePath()</text><ellipse cx="105.5" cy="828.699" fill="#84BE84" rx="3" ry="3" style="stroke:#038048;stroke-width:1"/><text x="114.5" y="832.996" fill="#000" font-family="sans-serif" font-size="14" lengthAdjust="spacing" textLength="152">boolean isHasChildren()</text><ellipse cx="105.5" cy="847.32" fill="#84BE84" rx="3" ry="3" style="stroke:#038048;stroke-width:1"/><text x="114.5" y="851.617" fill="#000" font-family="sans-serif" font-size="14" lengthAdjust="spacing" textLength="187">void setHasChildren(boolean)</text></g><g id="elem_User"><rect id="User" width="288" height="290.074" x="415" y="373.514" fill="#F1F1F1" codeLine="39" rx="2.5" ry="2.5" style="stroke:#181818;stroke-width:.5"/><ellipse cx="540.25" cy="389.514" fill="#ADD1B2" rx="11" ry="11" style="stroke:#181818;stroke-width:1"/><path fill="#000" d="M543.0156,385.3887 Q543.1719,385.1699 543.3594,385.0605 Q543.5469,384.9512 543.7656,384.9512 Q544.1406,384.9512 544.375,385.2168 Q544.6094,385.4668 544.6094,386.0762 L544.6094,387.5293 Q544.6094,388.1387 544.375,388.4043 Q544.1406,388.6699 543.7656,388.6699 Q543.4219,388.6699 543.2188,388.4668 Q543.0156,388.2793 542.9063,387.7637 Q542.8594,387.4043 542.6719,387.2168 Q542.3438,386.8418 541.7344,386.623 Q541.125,386.4043 540.5,386.4043 Q539.7344,386.4043 539.0938,386.7324 Q538.4688,387.0605 537.9688,387.8105 Q537.4844,388.5605 537.4844,389.5918 L537.4844,390.6855 Q537.4844,391.9199 538.375,392.748 Q539.2656,393.5605 540.8594,393.5605 Q541.7969,393.5605 542.4531,393.3105 Q542.8438,393.1543 543.2656,392.7168 Q543.5313,392.4512 543.6719,392.373 Q543.8281,392.2949 544.0313,392.2949 Q544.3594,392.2949 544.6094,392.5605 Q544.875,392.8105 544.875,393.1543 Q544.875,393.498 544.5313,393.9043 Q544.0313,394.4824 543.2344,394.8105 Q542.1563,395.2637 540.8594,395.2637 Q539.3438,395.2637 538.1406,394.6387 Q537.1563,394.1387 536.4688,393.0762 Q535.7813,391.998 535.7813,390.7168 L535.7813,389.5605 Q535.7813,388.2324 536.3906,387.0918 Q537.0156,385.9355 538.1094,385.3262 Q539.2031,384.7012 540.4375,384.7012 Q541.1719,384.7012 541.8125,384.873 Q542.4688,385.0293 543.0156,385.3887 Z"/><text x="560.75" y="395.31" fill="#000" font-family="sans-serif" font-size="14" lengthAdjust="spacing" textLength="29">User</text><line style="stroke:#181818;stroke-width:.5" x1="416" x2="702" y1="405.514" y2="405.514"/><rect width="6" height="6" x="423" fill="none" style="stroke:#c82930;stroke-width:1" y="417.324"/><text x="435" y="424.621" fill="#000" font-family="sans-serif" font-size="14" lengthAdjust="spacing" textLength="59">Integer id</text><rect width="6" height="6" x="423" fill="none" style="stroke:#c82930;stroke-width:1" y="435.945"/><text x="435" y="443.242" fill="#000" font-family="sans-serif" font-size="14" lengthAdjust="spacing" textLength="74">String email</text><rect width="6" height="6" x="423" fill="none" style="stroke:#c82930;stroke-width:1" y="454.566"/><text x="435" y="461.863" fill="#000" font-family="sans-serif" font-size="14" lengthAdjust="spacing" textLength="101">String password</text><rect width="6" height="6" x="423" fill="none" style="stroke:#c82930;stroke-width:1" y="473.188"/><text x="435" y="480.484" fill="#000" font-family="sans-serif" font-size="14" lengthAdjust="spacing" textLength="100">String firstName</text><rect width="6" height="6" x="423" fill="none" style="stroke:#c82930;stroke-width:1" y="491.809"/><text x="435" y="499.106" fill="#000" font-family="sans-serif" font-size="14" lengthAdjust="spacing" textLength="99">String lastName</text><rect width="6" height="6" x="423" fill="none" style="stroke:#c82930;stroke-width:1" y="510.43"/><text x="435" y="517.727" fill="#000" font-family="sans-serif" font-size="14" lengthAdjust="spacing" textLength="84">String photos</text><rect width="6" height="6" x="423" fill="none" style="stroke:#c82930;stroke-width:1" y="529.051"/><text x="435" y="536.348" fill="#000" font-family="sans-serif" font-size="14" lengthAdjust="spacing" textLength="106">boolean enabled</text><rect width="6" height="6" x="423" fill="none" style="stroke:#c82930;stroke-width:1" y="547.672"/><text x="435" y="554.969" fill="#000" font-family="sans-serif" font-size="14" lengthAdjust="spacing" textLength="101">Set&lt;Role&gt; roles</text><line style="stroke:#181818;stroke-width:.5" x1="416" x2="702" y1="562.482" y2="562.482"/><ellipse cx="426" cy="577.293" fill="#84BE84" rx="3" ry="3" style="stroke:#038048;stroke-width:1"/><text x="435" y="581.59" fill="#000" font-family="sans-serif" font-size="14" lengthAdjust="spacing" textLength="262">«Create» User(String,String,String,String)</text><ellipse cx="426" cy="595.914" fill="#84BE84" rx="3" ry="3" style="stroke:#038048;stroke-width:1"/><text x="435" y="600.211" fill="#000" font-family="sans-serif" font-size="14" lengthAdjust="spacing" textLength="122">void addRole(Role)</text><ellipse cx="426" cy="614.535" fill="#84BE84" rx="3" ry="3" style="stroke:#038048;stroke-width:1"/><text x="435" y="618.832" fill="#000" font-family="sans-serif" font-size="14" lengthAdjust="spacing" textLength="100">String toString()</text><ellipse cx="426" cy="633.156" fill="#84BE84" rx="3" ry="3" style="stroke:#038048;stroke-width:1"/><text x="435" y="637.453" fill="#000" font-family="sans-serif" font-size="14" lengthAdjust="spacing" textLength="182">String getPhotosImagePath()</text><ellipse cx="426" cy="651.777" fill="#84BE84" rx="3" ry="3" style="stroke:#038048;stroke-width:1"/><text x="435" y="656.074" fill="#000" font-family="sans-serif" font-size="14" lengthAdjust="spacing" textLength="130">String getFullName()</text></g><g id="elem_Role"><rect id="Role" width="206" height="215.59" x="134" y="919.014" fill="#F1F1F1" codeLine="56" rx="2.5" ry="2.5" style="stroke:#181818;stroke-width:.5"/><ellipse cx="218.25" cy="935.014" fill="#ADD1B2" rx="11" ry="11" style="stroke:#181818;stroke-width:1"/><path fill="#000" d="M221.0156,930.8887 Q221.1719,930.6699 221.3594,930.5605 Q221.5469,930.4512 221.7656,930.4512 Q222.1406,930.4512 222.375,930.7168 Q222.6094,930.9668 222.6094,931.5762 L222.6094,933.0293 Q222.6094,933.6387 222.375,933.9043 Q222.1406,934.1699 221.7656,934.1699 Q221.4219,934.1699 221.2188,933.9668 Q221.0156,933.7793 220.9063,933.2637 Q220.8594,932.9043 220.6719,932.7168 Q220.3438,932.3418 219.7344,932.123 Q219.125,931.9043 218.5,931.9043 Q217.7344,931.9043 217.0938,932.2324 Q216.4688,932.5605 215.9688,933.3105 Q215.4844,934.0605 215.4844,935.0918 L215.4844,936.1855 Q215.4844,937.4199 216.375,938.248 Q217.2656,939.0605 218.8594,939.0605 Q219.7969,939.0605 220.4531,938.8105 Q220.8438,938.6543 221.2656,938.2168 Q221.5313,937.9512 221.6719,937.873 Q221.8281,937.7949 222.0313,937.7949 Q222.3594,937.7949 222.6094,938.0605 Q222.875,938.3105 222.875,938.6543 Q222.875,938.998 222.5313,939.4043 Q222.0313,939.9824 221.2344,940.3105 Q220.1563,940.7637 218.8594,940.7637 Q217.3438,940.7637 216.1406,940.1387 Q215.1563,939.6387 214.4688,938.5762 Q213.7813,937.498 213.7813,936.2168 L213.7813,935.0605 Q213.7813,933.7324 214.3906,932.5918 Q215.0156,931.4355 216.1094,930.8262 Q217.2031,930.2012 218.4375,930.2012 Q219.1719,930.2012 219.8125,930.373 Q220.4688,930.5293 221.0156,930.8887 Z"/><text x="238.75" y="940.811" fill="#000" font-family="sans-serif" font-size="14" lengthAdjust="spacing" textLength="29">Role</text><line style="stroke:#181818;stroke-width:.5" x1="135" x2="339" y1="951.014" y2="951.014"/><rect width="6" height="6" x="142" fill="none" style="stroke:#c82930;stroke-width:1" y="962.824"/><text x="154" y="970.121" fill="#000" font-family="sans-serif" font-size="14" lengthAdjust="spacing" textLength="59">Integer id</text><rect width="6" height="6" x="142" fill="none" style="stroke:#c82930;stroke-width:1" y="981.445"/><text x="154" y="988.742" fill="#000" font-family="sans-serif" font-size="14" lengthAdjust="spacing" textLength="76">String name</text><rect width="6" height="6" x="142" fill="none" style="stroke:#c82930;stroke-width:1" y="1000.066"/><text x="154" y="1007.363" fill="#000" font-family="sans-serif" font-size="14" lengthAdjust="spacing" textLength="110">String description</text><line style="stroke:#181818;stroke-width:.5" x1="135" x2="339" y1="1014.877" y2="1014.877"/><ellipse cx="145" cy="1029.688" fill="#84BE84" rx="3" ry="3" style="stroke:#038048;stroke-width:1"/><text x="154" y="1033.984" fill="#000" font-family="sans-serif" font-size="14" lengthAdjust="spacing" textLength="180">«Create» Role(String,String)</text><ellipse cx="145" cy="1048.309" fill="#84BE84" rx="3" ry="3" style="stroke:#038048;stroke-width:1"/><text x="154" y="1052.605" fill="#000" font-family="sans-serif" font-size="14" lengthAdjust="spacing" textLength="146">«Create» Role(Integer)</text><ellipse cx="145" cy="1066.93" fill="#84BE84" rx="3" ry="3" style="stroke:#038048;stroke-width:1"/><text x="154" y="1071.227" fill="#000" font-family="sans-serif" font-size="14" lengthAdjust="spacing" textLength="139">«Create» Role(String)</text><ellipse cx="145" cy="1085.551" fill="#84BE84" rx="3" ry="3" style="stroke:#038048;stroke-width:1"/><text x="154" y="1089.848" fill="#000" font-family="sans-serif" font-size="14" lengthAdjust="spacing" textLength="148">boolean equals(Object)</text><ellipse cx="145" cy="1104.172" fill="#84BE84" rx="3" ry="3" style="stroke:#038048;stroke-width:1"/><text x="154" y="1108.469" fill="#000" font-family="sans-serif" font-size="14" lengthAdjust="spacing" textLength="94">int hashCode()</text><ellipse cx="145" cy="1122.793" fill="#84BE84" rx="3" ry="3" style="stroke:#038048;stroke-width:1"/><text x="154" y="1127.09" fill="#000" font-family="sans-serif" font-size="14" lengthAdjust="spacing" textLength="100">String toString()</text></g></g></svg>