<?xml version="1.0" encoding="us-ascii" standalone="no"?><svg xmlns="http://www.w3.org/2000/svg" xmlns:xlink="http://www.w3.org/1999/xlink" contentStyleType="text/css" height="1230px" preserveAspectRatio="none" style="width:798px;height:1230px;background:#FFFFFF;" version="1.1" viewBox="0 0 798 1230" width="798px" zoomAndPan="magnify"><defs/><g><!--cluster com--><g id="cluster_com"><path d="M8.5,6.0137 L38.5,6.0137 A3.75,3.75 0 0 1 41,8.5137 L48,30.6348 L788.5,30.6348 A2.5,2.5 0 0 1 791,33.1348 L791,1220.5137 A2.5,2.5 0 0 1 788.5,1223.0137 L8.5,1223.0137 A2.5,2.5 0 0 1 6,1220.5137 L6,8.5137 A2.5,2.5 0 0 1 8.5,6.0137 " fill="none" style="stroke:#000000;stroke-width:1.5;"/><line style="stroke:#000000;stroke-width:1.5;" x1="6" x2="48" y1="30.6348" y2="30.6348"/><text fill="#000000" font-family="sans-serif" font-size="14" font-weight="bold" lengthAdjust="spacing" textLength="29" x="10" y="23.1211">com</text></g><!--cluster curiositees--><g id="cluster_curiositees"><path d="M32.5,51.0137 L112.5,51.0137 A3.75,3.75 0 0 1 115,53.5137 L122,75.6348 L764.5,75.6348 A2.5,2.5 0 0 1 767,78.1348 L767,1196.5137 A2.5,2.5 0 0 1 764.5,1199.0137 L32.5,1199.0137 A2.5,2.5 0 0 1 30,1196.5137 L30,53.5137 A2.5,2.5 0 0 1 32.5,51.0137 " fill="none" style="stroke:#000000;stroke-width:1.5;"/><line style="stroke:#000000;stroke-width:1.5;" x1="30" x2="122" y1="75.6348" y2="75.6348"/><text fill="#000000" font-family="sans-serif" font-size="14" font-weight="bold" lengthAdjust="spacing" textLength="79" x="34" y="68.1211">curiositees</text></g><!--cluster common--><g id="cluster_common"><path d="M56.5,96.0137 L116.5,96.0137 A3.75,3.75 0 0 1 119,98.5137 L126,120.6348 L740.5,120.6348 A2.5,2.5 0 0 1 743,123.1348 L743,1172.5137 A2.5,2.5 0 0 1 740.5,1175.0137 L56.5,1175.0137 A2.5,2.5 0 0 1 54,1172.5137 L54,98.5137 A2.5,2.5 0 0 1 56.5,96.0137 " fill="none" style="stroke:#000000;stroke-width:1.5;"/><line style="stroke:#000000;stroke-width:1.5;" x1="54" x2="126" y1="120.6348" y2="120.6348"/><text fill="#000000" font-family="sans-serif" font-size="14" font-weight="bold" lengthAdjust="spacing" textLength="59" x="58" y="113.1211">common</text></g><!--cluster entity--><g id="cluster_entity"><path d="M80.5,141.0137 L120.5,141.0137 A3.75,3.75 0 0 1 123,143.5137 L130,165.6348 L716.5,165.6348 A2.5,2.5 0 0 1 719,168.1348 L719,1148.5137 A2.5,2.5 0 0 1 716.5,1151.0137 L80.5,1151.0137 A2.5,2.5 0 0 1 78,1148.5137 L78,143.5137 A2.5,2.5 0 0 1 80.5,141.0137 " fill="none" style="stroke:#000000;stroke-width:1.5;"/><line style="stroke:#000000;stroke-width:1.5;" x1="78" x2="130" y1="165.6348" y2="165.6348"/><text fill="#000000" font-family="sans-serif" font-size="14" font-weight="bold" lengthAdjust="spacing" textLength="39" x="82" y="158.1211">entity</text></g><!--class Category--><g id="elem_Category"><rect codeLine="1" fill="#F1F1F1" height="681.1172" id="Category" rx="2.5" ry="2.5" style="stroke:#181818;stroke-width:0.5;" width="285" x="94.5" y="178.0137"/><ellipse cx="203.75" cy="194.0137" fill="#ADD1B2" rx="11" ry="11" style="stroke:#181818;stroke-width:1.0;"/><path d="M206.5156,189.8887 Q206.6719,189.6699 206.8594,189.5605 Q207.0469,189.4512 207.2656,189.4512 Q207.6406,189.4512 207.875,189.7168 Q208.1094,189.9668 208.1094,190.5762 L208.1094,192.0293 Q208.1094,192.6387 207.875,192.9043 Q207.6406,193.1699 207.2656,193.1699 Q206.9219,193.1699 206.7188,192.9668 Q206.5156,192.7793 206.4063,192.2637 Q206.3594,191.9043 206.1719,191.7168 Q205.8438,191.3418 205.2344,191.123 Q204.625,190.9043 204,190.9043 Q203.2344,190.9043 202.5938,191.2324 Q201.9688,191.5605 201.4688,192.3105 Q200.9844,193.0605 200.9844,194.0918 L200.9844,195.1855 Q200.9844,196.4199 201.875,197.248 Q202.7656,198.0605 204.3594,198.0605 Q205.2969,198.0605 205.9531,197.8105 Q206.3438,197.6543 206.7656,197.2168 Q207.0313,196.9512 207.1719,196.873 Q207.3281,196.7949 207.5313,196.7949 Q207.8594,196.7949 208.1094,197.0605 Q208.375,197.3105 208.375,197.6543 Q208.375,197.998 208.0313,198.4043 Q207.5313,198.9824 206.7344,199.3105 Q205.6563,199.7637 204.3594,199.7637 Q202.8438,199.7637 201.6406,199.1387 Q200.6563,198.6387 199.9688,197.5762 Q199.2813,196.498 199.2813,195.2168 L199.2813,194.0605 Q199.2813,192.7324 199.8906,191.5918 Q200.5156,190.4355 201.6094,189.8262 Q202.7031,189.2012 203.9375,189.2012 Q204.6719,189.2012 205.3125,189.373 Q205.9688,189.5293 206.5156,189.8887 Z " fill="#000000"/><text fill="#000000" font-family="sans-serif" font-size="14" lengthAdjust="spacing" textLength="58" x="224.25" y="199.8105">Category</text><line style="stroke:#181818;stroke-width:0.5;" x1="95.5" x2="378.5" y1="210.0137" y2="210.0137"/><rect fill="none" height="6" style="stroke:#C82930;stroke-width:1.0;" width="6" x="102.5" y="221.8242"/><text fill="#000000" font-family="sans-serif" font-size="14" lengthAdjust="spacing" textLength="59" x="114.5" y="229.1211">Integer id</text><rect fill="none" height="6" style="stroke:#C82930;stroke-width:1.0;" width="6" x="102.5" y="240.4453"/><text fill="#000000" font-family="sans-serif" font-size="14" lengthAdjust="spacing" textLength="76" x="114.5" y="247.7422">String name</text><rect fill="none" height="6" style="stroke:#C82930;stroke-width:1.0;" width="6" x="102.5" y="259.0664"/><text fill="#000000" font-family="sans-serif" font-size="14" lengthAdjust="spacing" textLength="70" x="114.5" y="266.3633">String alias</text><rect fill="none" height="6" style="stroke:#C82930;stroke-width:1.0;" width="6" x="102.5" y="277.6875"/><text fill="#000000" font-family="sans-serif" font-size="14" lengthAdjust="spacing" textLength="79" x="114.5" y="284.9844">String image</text><rect fill="none" height="6" style="stroke:#C82930;stroke-width:1.0;" width="6" x="102.5" y="296.3086"/><text fill="#000000" font-family="sans-serif" font-size="14" lengthAdjust="spacing" textLength="106" x="114.5" y="303.6055">boolean enabled</text><rect fill="none" height="6" style="stroke:#C82930;stroke-width:1.0;" width="6" x="102.5" y="314.9297"/><text fill="#000000" font-family="sans-serif" font-size="14" lengthAdjust="spacing" textLength="103" x="114.5" y="322.2266">Category parent</text><rect fill="none" height="6" style="stroke:#C82930;stroke-width:1.0;" width="6" x="102.5" y="333.5508"/><text fill="#000000" font-family="sans-serif" font-size="14" lengthAdjust="spacing" textLength="149" x="114.5" y="340.8477">Set&lt;Category&gt; children</text><rect fill="none" height="6" style="stroke:#C82930;stroke-width:1.0;" width="6" x="102.5" y="352.1719"/><text fill="#000000" font-family="sans-serif" font-size="14" lengthAdjust="spacing" textLength="131" x="114.5" y="359.4688">boolean hasChildren</text><line style="stroke:#181818;stroke-width:0.5;" x1="95.5" x2="378.5" y1="366.9824" y2="366.9824"/><ellipse cx="105.5" cy="381.793" fill="#84BE84" rx="3" ry="3" style="stroke:#038048;stroke-width:1.0;"/><text fill="#000000" font-family="sans-serif" font-size="14" lengthAdjust="spacing" textLength="131" x="114.5" y="386.0898">&#171;Create&#187; Category()</text><ellipse cx="105.5" cy="400.4141" fill="#84BE84" rx="3" ry="3" style="stroke:#038048;stroke-width:1.0;"/><text fill="#000000" font-family="sans-serif" font-size="14" lengthAdjust="spacing" textLength="175" x="114.5" y="404.7109">&#171;Create&#187; Category(Integer)</text><ellipse cx="105.5" cy="419.0352" fill="#84BE84" rx="3" ry="3" style="stroke:#038048;stroke-width:1.0;"/><text fill="#000000" font-family="sans-serif" font-size="14" lengthAdjust="spacing" textLength="168" x="114.5" y="423.332">&#171;Create&#187; Category(String)</text><ellipse cx="105.5" cy="437.6563" fill="#84BE84" rx="3" ry="3" style="stroke:#038048;stroke-width:1.0;"/><text fill="#000000" font-family="sans-serif" font-size="14" lengthAdjust="spacing" textLength="230" x="114.5" y="441.9531">&#171;Create&#187; Category(String,Category)</text><ellipse cx="105.5" cy="456.2773" fill="#84BE84" rx="3" ry="3" style="stroke:#038048;stroke-width:1.0;"/><text fill="#000000" font-family="sans-serif" font-size="14" lengthAdjust="spacing" textLength="257" x="114.5" y="460.5742">&#171;Create&#187; Category(Integer,String,String)</text><ellipse cx="105.5" cy="474.8984" fill="#84BE84" rx="3" ry="3" style="stroke:#038048;stroke-width:1.0;"/><text fill="#000000" font-family="sans-serif" font-size="14" lengthAdjust="spacing" text-decoration="underline" textLength="232" x="114.5" y="479.1953">Category copyIdAndName(Category)</text><ellipse cx="105.5" cy="493.5195" fill="#84BE84" rx="3" ry="3" style="stroke:#038048;stroke-width:1.0;"/><text fill="#000000" font-family="sans-serif" font-size="14" lengthAdjust="spacing" text-decoration="underline" textLength="259" x="114.5" y="497.8164">Category copyIdAndName(Integer,String)</text><ellipse cx="105.5" cy="512.1406" fill="#84BE84" rx="3" ry="3" style="stroke:#038048;stroke-width:1.0;"/><text fill="#000000" font-family="sans-serif" font-size="14" lengthAdjust="spacing" text-decoration="underline" textLength="183" x="114.5" y="516.4375">Category copyFull(Category)</text><ellipse cx="105.5" cy="530.7617" fill="#84BE84" rx="3" ry="3" style="stroke:#038048;stroke-width:1.0;"/><text fill="#000000" font-family="sans-serif" font-size="14" lengthAdjust="spacing" text-decoration="underline" textLength="224" x="114.5" y="535.0586">Category copyFull(Category,String)</text><ellipse cx="105.5" cy="549.3828" fill="#84BE84" rx="3" ry="3" style="stroke:#038048;stroke-width:1.0;"/><text fill="#000000" font-family="sans-serif" font-size="14" lengthAdjust="spacing" textLength="89" x="114.5" y="553.6797">Integer getId()</text><ellipse cx="105.5" cy="568.0039" fill="#84BE84" rx="3" ry="3" style="stroke:#038048;stroke-width:1.0;"/><text fill="#000000" font-family="sans-serif" font-size="14" lengthAdjust="spacing" textLength="114" x="114.5" y="572.3008">void setId(Integer)</text><ellipse cx="105.5" cy="586.625" fill="#84BE84" rx="3" ry="3" style="stroke:#038048;stroke-width:1.0;"/><text fill="#000000" font-family="sans-serif" font-size="14" lengthAdjust="spacing" textLength="107" x="114.5" y="590.9219">String getName()</text><ellipse cx="105.5" cy="605.2461" fill="#84BE84" rx="3" ry="3" style="stroke:#038048;stroke-width:1.0;"/><text fill="#000000" font-family="sans-serif" font-size="14" lengthAdjust="spacing" textLength="132" x="114.5" y="609.543">void setName(String)</text><ellipse cx="105.5" cy="623.8672" fill="#84BE84" rx="3" ry="3" style="stroke:#038048;stroke-width:1.0;"/><text fill="#000000" font-family="sans-serif" font-size="14" lengthAdjust="spacing" textLength="101" x="114.5" y="628.1641">String getAlias()</text><ellipse cx="105.5" cy="642.4883" fill="#84BE84" rx="3" ry="3" style="stroke:#038048;stroke-width:1.0;"/><text fill="#000000" font-family="sans-serif" font-size="14" lengthAdjust="spacing" textLength="126" x="114.5" y="646.7852">void setAlias(String)</text><ellipse cx="105.5" cy="661.1094" fill="#84BE84" rx="3" ry="3" style="stroke:#038048;stroke-width:1.0;"/><text fill="#000000" font-family="sans-serif" font-size="14" lengthAdjust="spacing" textLength="109" x="114.5" y="665.4063">String getImage()</text><ellipse cx="105.5" cy="679.7305" fill="#84BE84" rx="3" ry="3" style="stroke:#038048;stroke-width:1.0;"/><text fill="#000000" font-family="sans-serif" font-size="14" lengthAdjust="spacing" textLength="134" x="114.5" y="684.0273">void setImage(String)</text><ellipse cx="105.5" cy="698.3516" fill="#84BE84" rx="3" ry="3" style="stroke:#038048;stroke-width:1.0;"/><text fill="#000000" font-family="sans-serif" font-size="14" lengthAdjust="spacing" textLength="127" x="114.5" y="702.6484">boolean isEnabled()</text><ellipse cx="105.5" cy="716.9727" fill="#84BE84" rx="3" ry="3" style="stroke:#038048;stroke-width:1.0;"/><text fill="#000000" font-family="sans-serif" font-size="14" lengthAdjust="spacing" textLength="162" x="114.5" y="721.2695">void setEnabled(boolean)</text><ellipse cx="105.5" cy="735.5938" fill="#84BE84" rx="3" ry="3" style="stroke:#038048;stroke-width:1.0;"/><text fill="#000000" font-family="sans-serif" font-size="14" lengthAdjust="spacing" textLength="134" x="114.5" y="739.8906">Category getParent()</text><ellipse cx="105.5" cy="754.2148" fill="#84BE84" rx="3" ry="3" style="stroke:#038048;stroke-width:1.0;"/><text fill="#000000" font-family="sans-serif" font-size="14" lengthAdjust="spacing" textLength="159" x="114.5" y="758.5117">void setParent(Category)</text><ellipse cx="105.5" cy="772.8359" fill="#84BE84" rx="3" ry="3" style="stroke:#038048;stroke-width:1.0;"/><text fill="#000000" font-family="sans-serif" font-size="14" lengthAdjust="spacing" textLength="182" x="114.5" y="777.1328">Set&lt;Category&gt; getChildren()</text><ellipse cx="105.5" cy="791.457" fill="#84BE84" rx="3" ry="3" style="stroke:#038048;stroke-width:1.0;"/><text fill="#000000" font-family="sans-serif" font-size="14" lengthAdjust="spacing" textLength="207" x="114.5" y="795.7539">void setChildren(Set&lt;Category&gt;)</text><ellipse cx="105.5" cy="810.0781" fill="#84BE84" rx="3" ry="3" style="stroke:#038048;stroke-width:1.0;"/><text fill="#000000" font-family="sans-serif" font-size="14" lengthAdjust="spacing" textLength="138" x="114.5" y="814.375">String getImagePath()</text><ellipse cx="105.5" cy="828.6992" fill="#84BE84" rx="3" ry="3" style="stroke:#038048;stroke-width:1.0;"/><text fill="#000000" font-family="sans-serif" font-size="14" lengthAdjust="spacing" textLength="152" x="114.5" y="832.9961">boolean isHasChildren()</text><ellipse cx="105.5" cy="847.3203" fill="#84BE84" rx="3" ry="3" style="stroke:#038048;stroke-width:1.0;"/><text fill="#000000" font-family="sans-serif" font-size="14" lengthAdjust="spacing" textLength="187" x="114.5" y="851.6172">void setHasChildren(boolean)</text></g><!--class User--><g id="elem_User"><rect codeLine="39" fill="#F1F1F1" height="290.0742" id="User" rx="2.5" ry="2.5" style="stroke:#181818;stroke-width:0.5;" width="288" x="415" y="373.5137"/><ellipse cx="540.25" cy="389.5137" fill="#ADD1B2" rx="11" ry="11" style="stroke:#181818;stroke-width:1.0;"/><path d="M543.0156,385.3887 Q543.1719,385.1699 543.3594,385.0605 Q543.5469,384.9512 543.7656,384.9512 Q544.1406,384.9512 544.375,385.2168 Q544.6094,385.4668 544.6094,386.0762 L544.6094,387.5293 Q544.6094,388.1387 544.375,388.4043 Q544.1406,388.6699 543.7656,388.6699 Q543.4219,388.6699 543.2188,388.4668 Q543.0156,388.2793 542.9063,387.7637 Q542.8594,387.4043 542.6719,387.2168 Q542.3438,386.8418 541.7344,386.623 Q541.125,386.4043 540.5,386.4043 Q539.7344,386.4043 539.0938,386.7324 Q538.4688,387.0605 537.9688,387.8105 Q537.4844,388.5605 537.4844,389.5918 L537.4844,390.6855 Q537.4844,391.9199 538.375,392.748 Q539.2656,393.5605 540.8594,393.5605 Q541.7969,393.5605 542.4531,393.3105 Q542.8438,393.1543 543.2656,392.7168 Q543.5313,392.4512 543.6719,392.373 Q543.8281,392.2949 544.0313,392.2949 Q544.3594,392.2949 544.6094,392.5605 Q544.875,392.8105 544.875,393.1543 Q544.875,393.498 544.5313,393.9043 Q544.0313,394.4824 543.2344,394.8105 Q542.1563,395.2637 540.8594,395.2637 Q539.3438,395.2637 538.1406,394.6387 Q537.1563,394.1387 536.4688,393.0762 Q535.7813,391.998 535.7813,390.7168 L535.7813,389.5605 Q535.7813,388.2324 536.3906,387.0918 Q537.0156,385.9355 538.1094,385.3262 Q539.2031,384.7012 540.4375,384.7012 Q541.1719,384.7012 541.8125,384.873 Q542.4688,385.0293 543.0156,385.3887 Z " fill="#000000"/><text fill="#000000" font-family="sans-serif" font-size="14" lengthAdjust="spacing" textLength="29" x="560.75" y="395.3105">User</text><line style="stroke:#181818;stroke-width:0.5;" x1="416" x2="702" y1="405.5137" y2="405.5137"/><rect fill="none" height="6" style="stroke:#C82930;stroke-width:1.0;" width="6" x="423" y="417.3242"/><text fill="#000000" font-family="sans-serif" font-size="14" lengthAdjust="spacing" textLength="59" x="435" y="424.6211">Integer id</text><rect fill="none" height="6" style="stroke:#C82930;stroke-width:1.0;" width="6" x="423" y="435.9453"/><text fill="#000000" font-family="sans-serif" font-size="14" lengthAdjust="spacing" textLength="74" x="435" y="443.2422">String email</text><rect fill="none" height="6" style="stroke:#C82930;stroke-width:1.0;" width="6" x="423" y="454.5664"/><text fill="#000000" font-family="sans-serif" font-size="14" lengthAdjust="spacing" textLength="101" x="435" y="461.8633">String password</text><rect fill="none" height="6" style="stroke:#C82930;stroke-width:1.0;" width="6" x="423" y="473.1875"/><text fill="#000000" font-family="sans-serif" font-size="14" lengthAdjust="spacing" textLength="100" x="435" y="480.4844">String firstName</text><rect fill="none" height="6" style="stroke:#C82930;stroke-width:1.0;" width="6" x="423" y="491.8086"/><text fill="#000000" font-family="sans-serif" font-size="14" lengthAdjust="spacing" textLength="99" x="435" y="499.1055">String lastName</text><rect fill="none" height="6" style="stroke:#C82930;stroke-width:1.0;" width="6" x="423" y="510.4297"/><text fill="#000000" font-family="sans-serif" font-size="14" lengthAdjust="spacing" textLength="84" x="435" y="517.7266">String photos</text><rect fill="none" height="6" style="stroke:#C82930;stroke-width:1.0;" width="6" x="423" y="529.0508"/><text fill="#000000" font-family="sans-serif" font-size="14" lengthAdjust="spacing" textLength="106" x="435" y="536.3477">boolean enabled</text><rect fill="none" height="6" style="stroke:#C82930;stroke-width:1.0;" width="6" x="423" y="547.6719"/><text fill="#000000" font-family="sans-serif" font-size="14" lengthAdjust="spacing" textLength="101" x="435" y="554.9688">Set&lt;Role&gt; roles</text><line style="stroke:#181818;stroke-width:0.5;" x1="416" x2="702" y1="562.4824" y2="562.4824"/><ellipse cx="426" cy="577.293" fill="#84BE84" rx="3" ry="3" style="stroke:#038048;stroke-width:1.0;"/><text fill="#000000" font-family="sans-serif" font-size="14" lengthAdjust="spacing" textLength="262" x="435" y="581.5898">&#171;Create&#187; User(String,String,String,String)</text><ellipse cx="426" cy="595.9141" fill="#84BE84" rx="3" ry="3" style="stroke:#038048;stroke-width:1.0;"/><text fill="#000000" font-family="sans-serif" font-size="14" lengthAdjust="spacing" textLength="122" x="435" y="600.2109">void addRole(Role)</text><ellipse cx="426" cy="614.5352" fill="#84BE84" rx="3" ry="3" style="stroke:#038048;stroke-width:1.0;"/><text fill="#000000" font-family="sans-serif" font-size="14" lengthAdjust="spacing" textLength="100" x="435" y="618.832">String toString()</text><ellipse cx="426" cy="633.1563" fill="#84BE84" rx="3" ry="3" style="stroke:#038048;stroke-width:1.0;"/><text fill="#000000" font-family="sans-serif" font-size="14" lengthAdjust="spacing" textLength="182" x="435" y="637.4531">String getPhotosImagePath()</text><ellipse cx="426" cy="651.7773" fill="#84BE84" rx="3" ry="3" style="stroke:#038048;stroke-width:1.0;"/><text fill="#000000" font-family="sans-serif" font-size="14" lengthAdjust="spacing" textLength="130" x="435" y="656.0742">String getFullName()</text></g><!--class Role--><g id="elem_Role"><rect codeLine="56" fill="#F1F1F1" height="215.5898" id="Role" rx="2.5" ry="2.5" style="stroke:#181818;stroke-width:0.5;" width="206" x="134" y="919.0137"/><ellipse cx="218.25" cy="935.0137" fill="#ADD1B2" rx="11" ry="11" style="stroke:#181818;stroke-width:1.0;"/><path d="M221.0156,930.8887 Q221.1719,930.6699 221.3594,930.5605 Q221.5469,930.4512 221.7656,930.4512 Q222.1406,930.4512 222.375,930.7168 Q222.6094,930.9668 222.6094,931.5762 L222.6094,933.0293 Q222.6094,933.6387 222.375,933.9043 Q222.1406,934.1699 221.7656,934.1699 Q221.4219,934.1699 221.2188,933.9668 Q221.0156,933.7793 220.9063,933.2637 Q220.8594,932.9043 220.6719,932.7168 Q220.3438,932.3418 219.7344,932.123 Q219.125,931.9043 218.5,931.9043 Q217.7344,931.9043 217.0938,932.2324 Q216.4688,932.5605 215.9688,933.3105 Q215.4844,934.0605 215.4844,935.0918 L215.4844,936.1855 Q215.4844,937.4199 216.375,938.248 Q217.2656,939.0605 218.8594,939.0605 Q219.7969,939.0605 220.4531,938.8105 Q220.8438,938.6543 221.2656,938.2168 Q221.5313,937.9512 221.6719,937.873 Q221.8281,937.7949 222.0313,937.7949 Q222.3594,937.7949 222.6094,938.0605 Q222.875,938.3105 222.875,938.6543 Q222.875,938.998 222.5313,939.4043 Q222.0313,939.9824 221.2344,940.3105 Q220.1563,940.7637 218.8594,940.7637 Q217.3438,940.7637 216.1406,940.1387 Q215.1563,939.6387 214.4688,938.5762 Q213.7813,937.498 213.7813,936.2168 L213.7813,935.0605 Q213.7813,933.7324 214.3906,932.5918 Q215.0156,931.4355 216.1094,930.8262 Q217.2031,930.2012 218.4375,930.2012 Q219.1719,930.2012 219.8125,930.373 Q220.4688,930.5293 221.0156,930.8887 Z " fill="#000000"/><text fill="#000000" font-family="sans-serif" font-size="14" lengthAdjust="spacing" textLength="29" x="238.75" y="940.8105">Role</text><line style="stroke:#181818;stroke-width:0.5;" x1="135" x2="339" y1="951.0137" y2="951.0137"/><rect fill="none" height="6" style="stroke:#C82930;stroke-width:1.0;" width="6" x="142" y="962.8242"/><text fill="#000000" font-family="sans-serif" font-size="14" lengthAdjust="spacing" textLength="59" x="154" y="970.1211">Integer id</text><rect fill="none" height="6" style="stroke:#C82930;stroke-width:1.0;" width="6" x="142" y="981.4453"/><text fill="#000000" font-family="sans-serif" font-size="14" lengthAdjust="spacing" textLength="76" x="154" y="988.7422">String name</text><rect fill="none" height="6" style="stroke:#C82930;stroke-width:1.0;" width="6" x="142" y="1000.0664"/><text fill="#000000" font-family="sans-serif" font-size="14" lengthAdjust="spacing" textLength="110" x="154" y="1007.3633">String description</text><line style="stroke:#181818;stroke-width:0.5;" x1="135" x2="339" y1="1014.877" y2="1014.877"/><ellipse cx="145" cy="1029.6875" fill="#84BE84" rx="3" ry="3" style="stroke:#038048;stroke-width:1.0;"/><text fill="#000000" font-family="sans-serif" font-size="14" lengthAdjust="spacing" textLength="180" x="154" y="1033.9844">&#171;Create&#187; Role(String,String)</text><ellipse cx="145" cy="1048.3086" fill="#84BE84" rx="3" ry="3" style="stroke:#038048;stroke-width:1.0;"/><text fill="#000000" font-family="sans-serif" font-size="14" lengthAdjust="spacing" textLength="146" x="154" y="1052.6055">&#171;Create&#187; Role(Integer)</text><ellipse cx="145" cy="1066.9297" fill="#84BE84" rx="3" ry="3" style="stroke:#038048;stroke-width:1.0;"/><text fill="#000000" font-family="sans-serif" font-size="14" lengthAdjust="spacing" textLength="139" x="154" y="1071.2266">&#171;Create&#187; Role(String)</text><ellipse cx="145" cy="1085.5508" fill="#84BE84" rx="3" ry="3" style="stroke:#038048;stroke-width:1.0;"/><text fill="#000000" font-family="sans-serif" font-size="14" lengthAdjust="spacing" textLength="148" x="154" y="1089.8477">boolean equals(Object)</text><ellipse cx="145" cy="1104.1719" fill="#84BE84" rx="3" ry="3" style="stroke:#038048;stroke-width:1.0;"/><text fill="#000000" font-family="sans-serif" font-size="14" lengthAdjust="spacing" textLength="94" x="154" y="1108.4688">int hashCode()</text><ellipse cx="145" cy="1122.793" fill="#84BE84" rx="3" ry="3" style="stroke:#038048;stroke-width:1.0;"/><text fill="#000000" font-family="sans-serif" font-size="14" lengthAdjust="spacing" textLength="100" x="154" y="1127.0898">String toString()</text></g><!--SRC=[ZLHBRiCW4Dtd52ofckO4aQN8QjLisgXL3q1W6bDXS86qYgBSlO0_GE8qtbYUDs_UV1YWWXY3gAeNTA-vCjm2c8MpQoKN82stXqL9BEoKFg3Zx06jfJD08ywSyMurbpiaIGtH8e8J4qrUavttRfKIG2G2IRO2VFIWsn3jKlaGiCiUBH2jk63EamHNn9GzUe-MorA3enV5e8Nlhk1TtTVSRR7_U-UzVIF7lAD7pQEnn79wYYrJrHpMR2NPYviTJeLlSVCaroEUza9C4CveYMX_pZkmQnQc-gCuGoQOoJ2xKtQqK5rA341KZCoLtv2CsY9ZtBLVdpn_G2Attmrk7jlLojWzrh6yQ-ZVoM_2wcKH7PIEBjzB5zOlOHOuW1bzf9qDiHNEIt-EYvrfflZGmcascz495_V3k0EyTccX9bn4it5olqedX4-kJJZ32BcSPqXJAQlCwFNsKtXpO86q-vhyplZIS7PFBczDc05Xp8jW_qb6QLNxW_FnRa8v-P2Zr-zwjwLJH-ZJJdpt61YgUMEvEdkRGlqNtPqJnX-e93PT6FZU4s7mw_OBgFKEBgr_7AjICS3ZSt8j_m40]--></g></svg>