<svg xmlns="http://www.w3.org/2000/svg" xmlns:xlink="http://www.w3.org/1999/xlink" width="911.4" height="1414.8" contentStyleType="text/css" preserveAspectRatio="none" style="width:911px;height:1414px;background:#fff" version="1.1" viewBox="0 0 911 1414" zoomAndPan="magnify"><g><g id="cluster_com"><path fill="none" d="M274.5,3.6082 L292.5,3.6082 A2.25,2.25 0 0 1 294,5.1082 L298.2,18.3809 L905.7,18.3809 A1.5,1.5 0 0 1 907.2,19.8809 L907.2,1409.1082 A1.5,1.5 0 0 1 905.7,1410.6082 L274.5,1410.6082 A1.5,1.5 0 0 1 273,1409.1082 L273,5.1082 A1.5,1.5 0 0 1 274.5,3.6082" style="stroke:#000;stroke-width:.8999999999999999"/><line style="stroke:#000;stroke-width:.8999999999999999" x1="273" x2="298.2" y1="18.381" y2="18.381"/><text x="275.4" y="13.873" fill="#000" font-family="sans-serif" font-size="8.4" font-weight="bold" lengthAdjust="spacing" textLength="17.4">com</text></g><g id="cluster_sunbeaminfo"><path fill="none" d="M288.9,30.6082 L344.1,30.6082 A2.25,2.25 0 0 1 345.6,32.1082 L349.8,45.3809 L891.3,45.3809 A1.5,1.5 0 0 1 892.8,46.8809 L892.8,1394.7082 A1.5,1.5 0 0 1 891.3,1396.2082 L288.9,1396.2082 A1.5,1.5 0 0 1 287.4,1394.7082 L287.4,32.1082 A1.5,1.5 0 0 1 288.9,30.6082" style="stroke:#000;stroke-width:.8999999999999999"/><line style="stroke:#000;stroke-width:.8999999999999999" x1="287.4" x2="349.8" y1="45.381" y2="45.381"/><text x="289.8" y="40.873" fill="#000" font-family="sans-serif" font-size="8.4" font-weight="bold" lengthAdjust="spacing" textLength="54.6">sunbeaminfo</text></g><g id="cluster_curiositees"><path fill="none" d="M303.3,57.6082 L351.3,57.6082 A2.25,2.25 0 0 1 352.8,59.1082 L357,72.3809 L876.9,72.3809 A1.5,1.5 0 0 1 878.4,73.8809 L878.4,1380.3082 A1.5,1.5 0 0 1 876.9,1381.8082 L303.3,1381.8082 A1.5,1.5 0 0 1 301.8,1380.3082 L301.8,59.1082 A1.5,1.5 0 0 1 303.3,57.6082" style="stroke:#000;stroke-width:.8999999999999999"/><line style="stroke:#000;stroke-width:.8999999999999999" x1="301.8" x2="357" y1="72.381" y2="72.381"/><text x="304.2" y="67.873" fill="#000" font-family="sans-serif" font-size="8.4" font-weight="bold" lengthAdjust="spacing" textLength="47.4">curiositees</text></g><g id="cluster_admin"><path fill="none" d="M317.7,84.6082 L343.5,84.6082 A2.25,2.25 0 0 1 345,86.1082 L349.2,99.3809 L862.5,99.3809 A1.5,1.5 0 0 1 864,100.8809 L864,1365.9082 A1.5,1.5 0 0 1 862.5,1367.4082 L317.7,1367.4082 A1.5,1.5 0 0 1 316.2,1365.9082 L316.2,86.1082 A1.5,1.5 0 0 1 317.7,84.6082" style="stroke:#000;stroke-width:.8999999999999999"/><line style="stroke:#000;stroke-width:.8999999999999999" x1="316.2" x2="349.2" y1="99.381" y2="99.381"/><text x="318.6" y="94.873" fill="#000" font-family="sans-serif" font-size="8.4" font-weight="bold" lengthAdjust="spacing" textLength="25.2">admin</text></g><g id="cluster_security"><path fill="none" d="M356.1,111.6082 L390.3,111.6082 A2.25,2.25 0 0 1 391.8,113.1082 L396,126.3809 L599.1,126.3809 A1.5,1.5 0 0 1 600.6,127.8809 L600.6,438.3082 A1.5,1.5 0 0 1 599.1,439.8082 L356.1,439.8082 A1.5,1.5 0 0 1 354.6,438.3082 L354.6,113.1082 A1.5,1.5 0 0 1 356.1,111.6082" style="stroke:#000;stroke-width:.8999999999999999"/><line style="stroke:#000;stroke-width:.8999999999999999" x1="354.6" x2="396" y1="126.381" y2="126.381"/><text x="357" y="121.873" fill="#000" font-family="sans-serif" font-size="8.4" font-weight="bold" lengthAdjust="spacing" textLength="33.6">security</text></g><g id="cluster_user"><path fill="none" d="M332.1,454.2082 L351.9,454.2082 A2.25,2.25 0 0 1 353.4,455.7082 L357.6,468.9809 L848.1,468.9809 A1.5,1.5 0 0 1 849.6,470.4809 L849.6,1160.1082 A1.5,1.5 0 0 1 848.1,1161.6082 L332.1,1161.6082 A1.5,1.5 0 0 1 330.6,1160.1082 L330.6,455.7082 A1.5,1.5 0 0 1 332.1,454.2082" style="stroke:#000;stroke-width:.8999999999999999"/><line style="stroke:#000;stroke-width:.8999999999999999" x1="330.6" x2="357.6" y1="468.981" y2="468.981"/><text x="333" y="464.473" fill="#000" font-family="sans-serif" font-size="8.4" font-weight="bold" lengthAdjust="spacing" textLength="19.2">user</text></g><g id="cluster_org"><path fill="none" d="M5.1,648.6082 L20.1,648.6082 A2.25,2.25 0 0 1 21.6,650.1082 L25.8,663.3809 L257.1,663.3809 A1.5,1.5 0 0 1 258.6,664.8809 L258.6,1288.5082 A1.5,1.5 0 0 1 257.1,1290.0082 L5.1,1290.0082 A1.5,1.5 0 0 1 3.6,1288.5082 L3.6,650.1082 A1.5,1.5 0 0 1 5.1,648.6082" style="stroke:#000;stroke-width:.8999999999999999"/><line style="stroke:#000;stroke-width:.8999999999999999" x1="3.6" x2="25.8" y1="663.381" y2="663.381"/><text x="6" y="658.873" fill="#000" font-family="sans-serif" font-size="8.4" font-weight="bold" lengthAdjust="spacing" textLength="14.4">org</text></g><g id="cluster_springframework"><path fill="none" d="M19.5,675.6082 L91.5,675.6082 A2.25,2.25 0 0 1 93,677.1082 L97.2,690.3809 L242.7,690.3809 A1.5,1.5 0 0 1 244.2,691.8809 L244.2,1274.1082 A1.5,1.5 0 0 1 242.7,1275.6082 L19.5,1275.6082 A1.5,1.5 0 0 1 18,1274.1082 L18,677.1082 A1.5,1.5 0 0 1 19.5,675.6082" style="stroke:#000;stroke-width:.8999999999999999"/><line style="stroke:#000;stroke-width:.8999999999999999" x1="18" x2="97.2" y1="690.381" y2="690.381"/><text x="20.4" y="685.873" fill="#000" font-family="sans-serif" font-size="8.4" font-weight="bold" lengthAdjust="spacing" textLength="71.4">springframework</text></g><g id="cluster_data"><path fill="none" d="M44.4,910.2082 L63,910.2082 A2.25,2.25 0 0 1 64.5,911.7082 L68.7,924.9809 L217.8,924.9809 A1.5,1.5 0 0 1 219.3,926.4809 L219.3,1060.5082 A1.5,1.5 0 0 1 217.8,1062.0082 L44.4,1062.0082 A1.5,1.5 0 0 1 42.9,1060.5082 L42.9,911.7082 A1.5,1.5 0 0 1 44.4,910.2082" style="stroke:#000;stroke-width:.8999999999999999"/><line style="stroke:#000;stroke-width:.8999999999999999" x1="42.9" x2="68.7" y1="924.981" y2="924.981"/><text x="45.3" y="920.473" fill="#000" font-family="sans-serif" font-size="8.4" font-weight="bold" lengthAdjust="spacing" textLength="18">data</text></g><g id="cluster_repository"><path fill="none" d="M58.8,937.2082 L102.6,937.2082 A2.25,2.25 0 0 1 104.1,938.7082 L108.3,951.9809 L203.4,951.9809 A1.5,1.5 0 0 1 204.9,953.4809 L204.9,1046.1082 A1.5,1.5 0 0 1 203.4,1047.6082 L58.8,1047.6082 A1.5,1.5 0 0 1 57.3,1046.1082 L57.3,938.7082 A1.5,1.5 0 0 1 58.8,937.2082" style="stroke:#000;stroke-width:.8999999999999999"/><line style="stroke:#000;stroke-width:.8999999999999999" x1="57.3" x2="108.3" y1="951.981" y2="951.981"/><text x="59.7" y="947.473" fill="#000" font-family="sans-serif" font-size="8.4" font-weight="bold" lengthAdjust="spacing" textLength="43.2">repository</text></g><g id="cluster_web"><path fill="none" d="M33.9,1076.4082 L51.9,1076.4082 A2.25,2.25 0 0 1 53.4,1077.9082 L57.6,1091.1809 L228.3,1091.1809 A1.5,1.5 0 0 1 229.8,1092.6809 L229.8,1259.7082 A1.5,1.5 0 0 1 228.3,1261.2082 L33.9,1261.2082 A1.5,1.5 0 0 1 32.4,1259.7082 L32.4,1077.9082 A1.5,1.5 0 0 1 33.9,1076.4082" style="stroke:#000;stroke-width:.8999999999999999"/><line style="stroke:#000;stroke-width:.8999999999999999" x1="32.4" x2="57.6" y1="1091.181" y2="1091.181"/><text x="34.8" y="1086.673" fill="#000" font-family="sans-serif" font-size="8.4" font-weight="bold" lengthAdjust="spacing" textLength="17.4">web</text></g><g id="cluster_servlet"><path fill="none" d="M48.3,1103.4082 L78.9,1103.4082 A2.25,2.25 0 0 1 80.4,1104.9082 L84.6,1118.1809 L213.9,1118.1809 A1.5,1.5 0 0 1 215.4,1119.6809 L215.4,1245.3082 A1.5,1.5 0 0 1 213.9,1246.8082 L48.3,1246.8082 A1.5,1.5 0 0 1 46.8,1245.3082 L46.8,1104.9082 A1.5,1.5 0 0 1 48.3,1103.4082" style="stroke:#000;stroke-width:.8999999999999999"/><line style="stroke:#000;stroke-width:.8999999999999999" x1="46.8" x2="84.6" y1="1118.181" y2="1118.181"/><text x="49.2" y="1113.673" fill="#000" font-family="sans-serif" font-size="8.4" font-weight="bold" lengthAdjust="spacing" textLength="30">servlet</text></g><g id="cluster_config"><path fill="none" d="M62.7,1130.4082 L89.7,1130.4082 A2.25,2.25 0 0 1 91.2,1131.9082 L95.4,1145.1809 L199.5,1145.1809 A1.5,1.5 0 0 1 201,1146.6809 L201,1230.9082 A1.5,1.5 0 0 1 199.5,1232.4082 L62.7,1232.4082 A1.5,1.5 0 0 1 61.2,1230.9082 L61.2,1131.9082 A1.5,1.5 0 0 1 62.7,1130.4082" style="stroke:#000;stroke-width:.8999999999999999"/><line style="stroke:#000;stroke-width:.8999999999999999" x1="61.2" x2="95.4" y1="1145.181" y2="1145.181"/><text x="63.6" y="1140.673" fill="#000" font-family="sans-serif" font-size="8.4" font-weight="bold" lengthAdjust="spacing" textLength="26.4">config</text></g><g id="cluster_annotation"><path fill="none" d="M77.1,1157.4082 L122.7,1157.4082 A2.25,2.25 0 0 1 124.2,1158.9082 L128.4,1172.1809 L185.1,1172.1809 A1.5,1.5 0 0 1 186.6,1173.6809 L186.6,1216.5082 A1.5,1.5 0 0 1 185.1,1218.0082 L77.1,1218.0082 A1.5,1.5 0 0 1 75.6,1216.5082 L75.6,1158.9082 A1.5,1.5 0 0 1 77.1,1157.4082" style="stroke:#000;stroke-width:.8999999999999999"/><line style="stroke:#000;stroke-width:.8999999999999999" x1="75.6" x2="128.4" y1="1172.181" y2="1172.181"/><text x="78" y="1167.673" fill="#000" font-family="sans-serif" font-size="8.4" font-weight="bold" lengthAdjust="spacing" textLength="45">annotation</text></g><g id="cluster_security"><path fill="none" d="M48.9,702.6082 L83.1,702.6082 A2.25,2.25 0 0 1 84.6,704.1082 L88.8,717.3809 L213.3,717.3809 A1.5,1.5 0 0 1 214.8,718.8809 L214.8,894.3082 A1.5,1.5 0 0 1 213.3,895.8082 L48.9,895.8082 A1.5,1.5 0 0 1 47.4,894.3082 L47.4,704.1082 A1.5,1.5 0 0 1 48.9,702.6082" style="stroke:#000;stroke-width:.8999999999999999"/><line style="stroke:#000;stroke-width:.8999999999999999" x1="47.4" x2="88.8" y1="717.381" y2="717.381"/><text x="49.8" y="712.873" fill="#000" font-family="sans-serif" font-size="8.4" font-weight="bold" lengthAdjust="spacing" textLength="33.6">security</text></g><g id="cluster_core"><path fill="none" d="M63.3,729.6082 L83.1,729.6082 A2.25,2.25 0 0 1 84.6,731.1082 L88.8,744.3809 L198.9,744.3809 A1.5,1.5 0 0 1 200.4,745.8809 L200.4,879.9082 A1.5,1.5 0 0 1 198.9,881.4082 L63.3,881.4082 A1.5,1.5 0 0 1 61.8,879.9082 L61.8,731.1082 A1.5,1.5 0 0 1 63.3,729.6082" style="stroke:#000;stroke-width:.8999999999999999"/><line style="stroke:#000;stroke-width:.8999999999999999" x1="61.8" x2="88.8" y1="744.381" y2="744.381"/><text x="64.2" y="739.873" fill="#000" font-family="sans-serif" font-size="8.4" font-weight="bold" lengthAdjust="spacing" textLength="19.2">core</text></g><g id="cluster_userdetails"><path fill="none" d="M77.7,756.6082 L125.7,756.6082 A2.25,2.25 0 0 1 127.2,758.1082 L131.4,771.3809 L184.5,771.3809 A1.5,1.5 0 0 1 186,772.8809 L186,865.5082 A1.5,1.5 0 0 1 184.5,867.0082 L77.7,867.0082 A1.5,1.5 0 0 1 76.2,865.5082 L76.2,758.1082 A1.5,1.5 0 0 1 77.7,756.6082" style="stroke:#000;stroke-width:.8999999999999999"/><line style="stroke:#000;stroke-width:.8999999999999999" x1="76.2" x2="131.4" y1="771.381" y2="771.381"/><text x="78.6" y="766.873" fill="#000" font-family="sans-serif" font-size="8.4" font-weight="bold" lengthAdjust="spacing" textLength="47.4">userdetails</text></g><g id="elem_MainController"><rect id="MainController" width="103.8" height="51.145" x="425.7" y="1245.308" fill="#F1F1F1" codeLine="10" rx="1.5" ry="1.5" style="stroke:#181818;stroke-width:.3"/><ellipse cx="447.93" cy="1254.908" fill="#ADD1B2" rx="6.6" ry="6.6" style="stroke:#181818;stroke-width:.6"/><path fill="#000" d="M449.5894,1252.4332 Q449.6831,1252.302 449.7956,1252.2363 Q449.9081,1252.1707 450.0394,1252.1707 Q450.2644,1252.1707 450.405,1252.3301 Q450.5456,1252.4801 450.5456,1252.8457 L450.5456,1253.7176 Q450.5456,1254.0832 450.405,1254.2426 Q450.2644,1254.402 450.0394,1254.402 Q449.8331,1254.402 449.7112,1254.2801 Q449.5894,1254.1676 449.5237,1253.8582 Q449.4956,1253.6426 449.3831,1253.5301 Q449.1863,1253.3051 448.8206,1253.1738 Q448.455,1253.0426 448.08,1253.0426 Q447.6206,1253.0426 447.2363,1253.2395 Q446.8613,1253.4363 446.5613,1253.8863 Q446.2706,1254.3363 446.2706,1254.9551 L446.2706,1255.6113 Q446.2706,1256.352 446.805,1256.8488 Q447.3394,1257.3363 448.2956,1257.3363 Q448.8581,1257.3363 449.2519,1257.1863 Q449.4863,1257.0926 449.7394,1256.8301 Q449.8987,1256.6707 449.9831,1256.6238 Q450.0769,1256.577 450.1987,1256.577 Q450.3956,1256.577 450.5456,1256.7363 Q450.705,1256.8863 450.705,1257.0926 Q450.705,1257.2988 450.4988,1257.5426 Q450.1987,1257.8895 449.7206,1258.0863 Q449.0737,1258.3582 448.2956,1258.3582 Q447.3862,1258.3582 446.6644,1257.9832 Q446.0737,1257.6832 445.6612,1257.0457 Q445.2488,1256.3988 445.2488,1255.6301 L445.2488,1254.9363 Q445.2488,1254.1395 445.6144,1253.4551 Q445.9894,1252.7613 446.6456,1252.3957 Q447.3019,1252.0207 448.0425,1252.0207 Q448.4831,1252.0207 448.8675,1252.1238 Q449.2612,1252.2176 449.5894,1252.4332 Z"/><text x="459.27" y="1258.386" fill="#000" font-family="sans-serif" font-size="8.4" lengthAdjust="spacing" textLength="55.2">MainController</text><line style="stroke:#181818;stroke-width:.3" x1="426.3" x2="528.9" y1="1264.508" y2="1264.508"/><line style="stroke:#181818;stroke-width:.3" x1="426.3" x2="528.9" y1="1269.308" y2="1269.308"/><ellipse cx="432.3" cy="1278.195" fill="#84BE84" rx="1.8" ry="1.8" style="stroke:#038048;stroke-width:.6"/><text x="437.7" y="1280.773" fill="#000" font-family="sans-serif" font-size="8.4" lengthAdjust="spacing" textLength="88.2">String viewHomePage()</text><ellipse cx="432.3" cy="1289.367" fill="#84BE84" rx="1.8" ry="1.8" style="stroke:#038048;stroke-width:.6"/><text x="437.7" y="1291.945" fill="#000" font-family="sans-serif" font-size="8.4" lengthAdjust="spacing" textLength="87.6">String viewLoginPage()</text></g><g id="elem_MvcConfig"><rect id="MvcConfig" width="221.4" height="39.973" x="366.9" y="1317.308" fill="#F1F1F1" codeLine="33" rx="1.5" ry="1.5" style="stroke:#181818;stroke-width:.3"/><ellipse cx="455.25" cy="1326.908" fill="#ADD1B2" rx="6.6" ry="6.6" style="stroke:#181818;stroke-width:.6"/><path fill="#000" d="M456.9094,1324.4332 Q457.0031,1324.302 457.1156,1324.2363 Q457.2281,1324.1707 457.3594,1324.1707 Q457.5844,1324.1707 457.725,1324.3301 Q457.8656,1324.4801 457.8656,1324.8457 L457.8656,1325.7176 Q457.8656,1326.0832 457.725,1326.2426 Q457.5844,1326.402 457.3594,1326.402 Q457.1531,1326.402 457.0313,1326.2801 Q456.9094,1326.1676 456.8438,1325.8582 Q456.8156,1325.6426 456.7031,1325.5301 Q456.5062,1325.3051 456.1406,1325.1738 Q455.775,1325.0426 455.4,1325.0426 Q454.9406,1325.0426 454.5563,1325.2395 Q454.1813,1325.4363 453.8812,1325.8863 Q453.5906,1326.3363 453.5906,1326.9551 L453.5906,1327.6113 Q453.5906,1328.352 454.125,1328.8488 Q454.6594,1329.3363 455.6156,1329.3363 Q456.1781,1329.3363 456.5719,1329.1863 Q456.8063,1329.0926 457.0594,1328.8301 Q457.2188,1328.6707 457.3031,1328.6238 Q457.3969,1328.577 457.5188,1328.577 Q457.7156,1328.577 457.8656,1328.7363 Q458.025,1328.8863 458.025,1329.0926 Q458.025,1329.2988 457.8187,1329.5426 Q457.5188,1329.8895 457.0406,1330.0863 Q456.3938,1330.3582 455.6156,1330.3582 Q454.7063,1330.3582 453.9844,1329.9832 Q453.3938,1329.6832 452.9813,1329.0457 Q452.5687,1328.3988 452.5687,1327.6301 L452.5687,1326.9363 Q452.5687,1326.1395 452.9344,1325.4551 Q453.3094,1324.7613 453.9656,1324.3957 Q454.6219,1324.0207 455.3625,1324.0207 Q455.8031,1324.0207 456.1875,1324.1238 Q456.5813,1324.2176 456.9094,1324.4332 Z"/><text x="467.55" y="1330.386" fill="#000" font-family="sans-serif" font-size="8.4" lengthAdjust="spacing" textLength="39.6">MvcConfig</text><line style="stroke:#181818;stroke-width:.3" x1="367.5" x2="587.7" y1="1336.508" y2="1336.508"/><line style="stroke:#181818;stroke-width:.3" x1="367.5" x2="587.7" y1="1341.308" y2="1341.308"/><ellipse cx="373.5" cy="1350.195" fill="#84BE84" rx="1.8" ry="1.8" style="stroke:#038048;stroke-width:.6"/><text x="378.9" y="1352.773" fill="#000" font-family="sans-serif" font-size="8.4" lengthAdjust="spacing" textLength="205.8">void addResourceHandlers(ResourceHandlerRegistry)</text></g><g id="elem_FileUploadUtil"><rect id="FileUploadUtil" width="166.8" height="51.145" x="394.2" y="1173.308" fill="#F1F1F1" codeLine="47" rx="1.5" ry="1.5" style="stroke:#181818;stroke-width:.3"/><ellipse cx="449.25" cy="1182.908" fill="#ADD1B2" rx="6.6" ry="6.6" style="stroke:#181818;stroke-width:.6"/><path fill="#000" d="M450.9094,1180.4332 Q451.0031,1180.302 451.1156,1180.2363 Q451.2281,1180.1707 451.3594,1180.1707 Q451.5844,1180.1707 451.725,1180.3301 Q451.8656,1180.4801 451.8656,1180.8457 L451.8656,1181.7176 Q451.8656,1182.0832 451.725,1182.2426 Q451.5844,1182.402 451.3594,1182.402 Q451.1531,1182.402 451.0313,1182.2801 Q450.9094,1182.1676 450.8438,1181.8582 Q450.8156,1181.6426 450.7031,1181.5301 Q450.5062,1181.3051 450.1406,1181.1738 Q449.775,1181.0426 449.4,1181.0426 Q448.9406,1181.0426 448.5563,1181.2395 Q448.1813,1181.4363 447.8812,1181.8863 Q447.5906,1182.3363 447.5906,1182.9551 L447.5906,1183.6113 Q447.5906,1184.352 448.125,1184.8488 Q448.6594,1185.3363 449.6156,1185.3363 Q450.1781,1185.3363 450.5719,1185.1863 Q450.8063,1185.0926 451.0594,1184.8301 Q451.2188,1184.6707 451.3031,1184.6238 Q451.3969,1184.577 451.5188,1184.577 Q451.7156,1184.577 451.8656,1184.7363 Q452.025,1184.8863 452.025,1185.0926 Q452.025,1185.2988 451.8187,1185.5426 Q451.5188,1185.8895 451.0406,1186.0863 Q450.3938,1186.3582 449.6156,1186.3582 Q448.7063,1186.3582 447.9844,1185.9832 Q447.3938,1185.6832 446.9813,1185.0457 Q446.5687,1184.3988 446.5687,1183.6301 L446.5687,1182.9363 Q446.5687,1182.1395 446.9344,1181.4551 Q447.3094,1180.7613 447.9656,1180.3957 Q448.6219,1180.0207 449.3625,1180.0207 Q449.8031,1180.0207 450.1875,1180.1238 Q450.5813,1180.2176 450.9094,1180.4332 Z"/><text x="461.55" y="1186.386" fill="#000" font-family="sans-serif" font-size="8.4" lengthAdjust="spacing" textLength="51.6">FileUploadUtil</text><line style="stroke:#181818;stroke-width:.3" x1="394.8" x2="560.4" y1="1192.508" y2="1192.508"/><line style="stroke:#181818;stroke-width:.3" x1="394.8" x2="560.4" y1="1197.308" y2="1197.308"/><ellipse cx="400.8" cy="1206.195" fill="#84BE84" rx="1.8" ry="1.8" style="stroke:#038048;stroke-width:.6"/><text x="406.2" y="1208.773" fill="#000" font-family="sans-serif" font-size="8.4" lengthAdjust="spacing" text-decoration="underline" textLength="151.2">void saveFile(String,String,MultipartFile)</text><ellipse cx="400.8" cy="1217.367" fill="#84BE84" rx="1.8" ry="1.8" style="stroke:#038048;stroke-width:.6"/><text x="406.2" y="1219.945" fill="#000" font-family="sans-serif" font-size="8.4" lengthAdjust="spacing" text-decoration="underline" textLength="77.4">void cleanDir(String)</text></g><g id="elem_CuriositeesBackendApplicationTests"><rect id="CuriositeesBackendApplicationTests" width="157.2" height="39.973" x="666.9" y="1250.708" fill="#F1F1F1" codeLine="112" rx="1.5" ry="1.5" style="stroke:#181818;stroke-width:.3"/><ellipse cx="675.9" cy="1260.308" fill="#ADD1B2" rx="6.6" ry="6.6" style="stroke:#181818;stroke-width:.6"/><path fill="#000" d="M677.5594,1257.8332 Q677.6531,1257.702 677.7656,1257.6363 Q677.8781,1257.5707 678.0094,1257.5707 Q678.2344,1257.5707 678.375,1257.7301 Q678.5156,1257.8801 678.5156,1258.2457 L678.5156,1259.1176 Q678.5156,1259.4832 678.375,1259.6426 Q678.2344,1259.802 678.0094,1259.802 Q677.8031,1259.802 677.6813,1259.6801 Q677.5594,1259.5676 677.4938,1259.2582 Q677.4656,1259.0426 677.3531,1258.9301 Q677.1563,1258.7051 676.7906,1258.5738 Q676.425,1258.4426 676.05,1258.4426 Q675.5906,1258.4426 675.2063,1258.6395 Q674.8313,1258.8363 674.5313,1259.2863 Q674.2406,1259.7363 674.2406,1260.3551 L674.2406,1261.0113 Q674.2406,1261.752 674.775,1262.2488 Q675.3094,1262.7363 676.2656,1262.7363 Q676.8281,1262.7363 677.2219,1262.5863 Q677.4563,1262.4926 677.7094,1262.2301 Q677.8688,1262.0707 677.9531,1262.0238 Q678.0469,1261.977 678.1687,1261.977 Q678.3656,1261.977 678.5156,1262.1363 Q678.675,1262.2863 678.675,1262.4926 Q678.675,1262.6988 678.4688,1262.9426 Q678.1687,1263.2895 677.6906,1263.4863 Q677.0437,1263.7582 676.2656,1263.7582 Q675.3562,1263.7582 674.6344,1263.3832 Q674.0437,1263.0832 673.6313,1262.4457 Q673.2188,1261.7988 673.2188,1261.0301 L673.2188,1260.3363 Q673.2188,1259.5395 673.5844,1258.8551 Q673.9594,1258.1613 674.6156,1257.7957 Q675.2719,1257.4207 676.0125,1257.4207 Q676.4531,1257.4207 676.8375,1257.5238 Q677.2312,1257.6176 677.5594,1257.8332 Z"/><text x="684.3" y="1263.786" fill="#000" font-family="sans-serif" font-size="8.4" lengthAdjust="spacing" textLength="138">CuriositeesBackendApplicationTests</text><line style="stroke:#181818;stroke-width:.3" x1="667.5" x2="823.5" y1="1269.908" y2="1269.908"/><line style="stroke:#181818;stroke-width:.3" x1="667.5" x2="823.5" y1="1274.708" y2="1274.708"/><polygon fill="#4177AF" points="673.5 1281.195 671.1 1284.794 675.9 1284.794" style="stroke:#1963a0;stroke-width:.6"/><text x="678.9" y="1286.173" fill="#000" font-family="sans-serif" font-size="8.4" lengthAdjust="spacing" textLength="74.4">void contextLoads()</text></g><g id="elem_CuriositeesBackendApplication"><rect id="CuriositeesBackendApplication" width="136.2" height="39.973" x="677.4" y="1189.508" fill="#F1F1F1" codeLine="118" rx="1.5" ry="1.5" style="stroke:#181818;stroke-width:.3"/><ellipse cx="686.4" cy="1199.108" fill="#ADD1B2" rx="6.6" ry="6.6" style="stroke:#181818;stroke-width:.6"/><path fill="#000" d="M688.0594,1196.6332 Q688.1531,1196.502 688.2656,1196.4363 Q688.3781,1196.3707 688.5094,1196.3707 Q688.7344,1196.3707 688.875,1196.5301 Q689.0156,1196.6801 689.0156,1197.0457 L689.0156,1197.9176 Q689.0156,1198.2832 688.875,1198.4426 Q688.7344,1198.602 688.5094,1198.602 Q688.3031,1198.602 688.1813,1198.4801 Q688.0594,1198.3676 687.9938,1198.0582 Q687.9656,1197.8426 687.8531,1197.7301 Q687.6563,1197.5051 687.2906,1197.3738 Q686.925,1197.2426 686.55,1197.2426 Q686.0906,1197.2426 685.7063,1197.4395 Q685.3313,1197.6363 685.0313,1198.0863 Q684.7406,1198.5363 684.7406,1199.1551 L684.7406,1199.8113 Q684.7406,1200.552 685.275,1201.0488 Q685.8094,1201.5363 686.7656,1201.5363 Q687.3281,1201.5363 687.7219,1201.3863 Q687.9563,1201.2926 688.2094,1201.0301 Q688.3688,1200.8707 688.4531,1200.8238 Q688.5469,1200.777 688.6687,1200.777 Q688.8656,1200.777 689.0156,1200.9363 Q689.175,1201.0863 689.175,1201.2926 Q689.175,1201.4988 688.9688,1201.7426 Q688.6687,1202.0895 688.1906,1202.2863 Q687.5437,1202.5582 686.7656,1202.5582 Q685.8562,1202.5582 685.1344,1202.1832 Q684.5437,1201.8832 684.1313,1201.2457 Q683.7188,1200.5988 683.7188,1199.8301 L683.7188,1199.1363 Q683.7188,1198.3395 684.0844,1197.6551 Q684.4594,1196.9613 685.1156,1196.5957 Q685.7719,1196.2207 686.5125,1196.2207 Q686.9531,1196.2207 687.3375,1196.3238 Q687.7312,1196.4176 688.0594,1196.6332 Z"/><text x="694.8" y="1202.586" fill="#000" font-family="sans-serif" font-size="8.4" lengthAdjust="spacing" textLength="117">CuriositeesBackendApplication</text><line style="stroke:#181818;stroke-width:.3" x1="678" x2="813" y1="1208.708" y2="1208.708"/><line style="stroke:#181818;stroke-width:.3" x1="678" x2="813" y1="1213.508" y2="1213.508"/><ellipse cx="684" cy="1222.395" fill="#84BE84" rx="1.8" ry="1.8" style="stroke:#038048;stroke-width:.6"/><text x="689.4" y="1224.973" fill="#000" font-family="sans-serif" font-size="8.4" lengthAdjust="spacing" text-decoration="underline" textLength="69">void main(String[])</text></g><g id="elem_WebSecurityConfig"><rect id="WebSecurityConfig" width="222.6" height="84.663" x="366.3" y="134.108" fill="#F1F1F1" codeLine="2" rx="1.5" ry="1.5" style="stroke:#181818;stroke-width:.3"/><ellipse cx="438.75" cy="143.708" fill="#ADD1B2" rx="6.6" ry="6.6" style="stroke:#181818;stroke-width:.6"/><path fill="#000" d="M440.4094,141.2332 Q440.5031,141.102 440.6156,141.0363 Q440.7281,140.9707 440.8594,140.9707 Q441.0844,140.9707 441.225,141.1301 Q441.3656,141.2801 441.3656,141.6457 L441.3656,142.5176 Q441.3656,142.8832 441.225,143.0426 Q441.0844,143.202 440.8594,143.202 Q440.6531,143.202 440.5313,143.0801 Q440.4094,142.9676 440.3438,142.6582 Q440.3156,142.4426 440.2031,142.3301 Q440.0062,142.1051 439.6406,141.9738 Q439.275,141.8426 438.9,141.8426 Q438.4406,141.8426 438.0563,142.0395 Q437.6813,142.2363 437.3812,142.6863 Q437.0906,143.1363 437.0906,143.7551 L437.0906,144.4113 Q437.0906,145.152 437.625,145.6488 Q438.1594,146.1363 439.1156,146.1363 Q439.6781,146.1363 440.0719,145.9863 Q440.3063,145.8926 440.5594,145.6301 Q440.7188,145.4707 440.8031,145.4238 Q440.8969,145.377 441.0188,145.377 Q441.2156,145.377 441.3656,145.5363 Q441.525,145.6863 441.525,145.8926 Q441.525,146.0988 441.3187,146.3426 Q441.0188,146.6895 440.5406,146.8863 Q439.8938,147.1582 439.1156,147.1582 Q438.2063,147.1582 437.4844,146.7832 Q436.8938,146.4832 436.4813,145.8457 Q436.0687,145.1988 436.0687,144.4301 L436.0687,143.7363 Q436.0687,142.9395 436.4344,142.2551 Q436.8094,141.5613 437.4656,141.1957 Q438.1219,140.8207 438.8625,140.8207 Q439.3031,140.8207 439.6875,140.9238 Q440.0813,141.0176 440.4094,141.2332 Z"/><text x="451.05" y="147.186" fill="#000" font-family="sans-serif" font-size="8.4" lengthAdjust="spacing" textLength="72.6">WebSecurityConfig</text><line style="stroke:#181818;stroke-width:.3" x1="366.9" x2="588.3" y1="153.308" y2="153.308"/><line style="stroke:#181818;stroke-width:.3" x1="366.9" x2="588.3" y1="158.108" y2="158.108"/><polygon fill="#4177AF" points="372.9 164.595 370.5 168.195 375.3 168.195" style="stroke:#1963a0;stroke-width:.6"/><text x="378.3" y="169.573" fill="#000" font-family="sans-serif" font-size="8.4" lengthAdjust="spacing" textLength="150.6">UserDetailsService userDetailsService()</text><ellipse cx="372.9" cy="178.167" fill="#84BE84" rx="1.8" ry="1.8" style="stroke:#038048;stroke-width:.6"/><text x="378.3" y="180.745" fill="#000" font-family="sans-serif" font-size="8.4" lengthAdjust="spacing" textLength="144.6">PasswordEncoder passwordEncoder()</text><polygon fill="#4177AF" points="372.9 186.94 370.5 190.54 375.3 190.54" style="stroke:#1963a0;stroke-width:.6"/><text x="378.3" y="191.918" fill="#000" font-family="sans-serif" font-size="8.4" lengthAdjust="spacing" textLength="195">DaoAuthenticationProvider authenticationProvider()</text><polygon fill="#4177AF" points="372.9 198.113 370.5 201.713 375.3 201.713" style="stroke:#1963a0;stroke-width:.6"/><text x="378.3" y="203.091" fill="#000" font-family="sans-serif" font-size="8.4" lengthAdjust="spacing" textLength="207">SecurityFilterChain configureHttpSecurity(HttpSecurity)</text><polygon fill="#4177AF" points="372.9 209.285 370.5 212.885 375.3 212.885" style="stroke:#1963a0;stroke-width:.6"/><text x="378.3" y="214.263" fill="#000" font-family="sans-serif" font-size="8.4" lengthAdjust="spacing" textLength="181.8">WebSecurityCustomizer configureWebSecurity()</text></g><g id="elem_CuriositeesUserDetailsService"><rect id="CuriositeesUserDetailsService" width="171" height="51.145" x="392.1" y="239.708" fill="#F1F1F1" codeLine="37" rx="1.5" ry="1.5" style="stroke:#181818;stroke-width:.3"/><ellipse cx="418.11" cy="249.308" fill="#ADD1B2" rx="6.6" ry="6.6" style="stroke:#181818;stroke-width:.6"/><path fill="#000" d="M419.7694,246.8332 Q419.8631,246.702 419.9756,246.6363 Q420.0881,246.5707 420.2194,246.5707 Q420.4444,246.5707 420.585,246.7301 Q420.7256,246.8801 420.7256,247.2457 L420.7256,248.1176 Q420.7256,248.4832 420.585,248.6426 Q420.4444,248.802 420.2194,248.802 Q420.0131,248.802 419.8913,248.6801 Q419.7694,248.5676 419.7038,248.2582 Q419.6756,248.0426 419.5631,247.9301 Q419.3663,247.7051 419.0006,247.5738 Q418.635,247.4426 418.26,247.4426 Q417.8006,247.4426 417.4163,247.6395 Q417.0413,247.8363 416.7413,248.2863 Q416.4506,248.7363 416.4506,249.3551 L416.4506,250.0113 Q416.4506,250.752 416.985,251.2488 Q417.5194,251.7363 418.4756,251.7363 Q419.0381,251.7363 419.4319,251.5863 Q419.6663,251.4926 419.9194,251.2301 Q420.0788,251.0707 420.1631,251.0238 Q420.2569,250.977 420.3788,250.977 Q420.5756,250.977 420.7256,251.1363 Q420.885,251.2863 420.885,251.4926 Q420.885,251.6988 420.6788,251.9426 Q420.3788,252.2895 419.9006,252.4863 Q419.2538,252.7582 418.4756,252.7582 Q417.5663,252.7582 416.8444,252.3832 Q416.2538,252.0832 415.8413,251.4457 Q415.4288,250.7988 415.4288,250.0301 L415.4288,249.3363 Q415.4288,248.5395 415.7944,247.8551 Q416.1694,247.1613 416.8256,246.7957 Q417.4819,246.4207 418.2225,246.4207 Q418.6631,246.4207 419.0475,246.5238 Q419.4413,246.6176 419.7694,246.8332 Z"/><text x="430.29" y="252.786" fill="#000" font-family="sans-serif" font-size="8.4" lengthAdjust="spacing" textLength="114">CuriositeesUserDetailsService</text><line style="stroke:#181818;stroke-width:.3" x1="392.7" x2="562.5" y1="258.908" y2="258.908"/><rect width="3.6" height="3.6" x="396.9" fill="none" style="stroke:#c82930;stroke-width:.6" y="265.995"/><text x="404.1" y="270.373" fill="#000" font-family="sans-serif" font-size="8.4" lengthAdjust="spacing" textLength="97.8">UserRepository userRepo</text><line style="stroke:#181818;stroke-width:.3" x1="392.7" x2="562.5" y1="274.881" y2="274.881"/><ellipse cx="398.7" cy="283.767" fill="#84BE84" rx="1.8" ry="1.8" style="stroke:#038048;stroke-width:.6"/><text x="404.1" y="286.345" fill="#000" font-family="sans-serif" font-size="8.4" lengthAdjust="spacing" textLength="155.4">UserDetails loadUserByUsername(String)</text></g><g id="elem_CuriositeesUserDetails"><rect id="CuriositeesUserDetails" width="226.8" height="118.181" x="364.2" y="311.708" fill="#F1F1F1" codeLine="100" rx="1.5" ry="1.5" style="stroke:#181818;stroke-width:.3"/><ellipse cx="432.15" cy="321.308" fill="#ADD1B2" rx="6.6" ry="6.6" style="stroke:#181818;stroke-width:.6"/><path fill="#000" d="M433.8094,318.8332 Q433.9031,318.702 434.0156,318.6363 Q434.1281,318.5707 434.2594,318.5707 Q434.4844,318.5707 434.625,318.7301 Q434.7656,318.8801 434.7656,319.2457 L434.7656,320.1176 Q434.7656,320.4832 434.625,320.6426 Q434.4844,320.802 434.2594,320.802 Q434.0531,320.802 433.9313,320.6801 Q433.8094,320.5676 433.7438,320.2582 Q433.7156,320.0426 433.6031,319.9301 Q433.4063,319.7051 433.0406,319.5738 Q432.675,319.4426 432.3,319.4426 Q431.8406,319.4426 431.4563,319.6395 Q431.0813,319.8363 430.7813,320.2863 Q430.4906,320.7363 430.4906,321.3551 L430.4906,322.0113 Q430.4906,322.752 431.025,323.2488 Q431.5594,323.7363 432.5156,323.7363 Q433.0781,323.7363 433.4719,323.5863 Q433.7063,323.4926 433.9594,323.2301 Q434.1188,323.0707 434.2031,323.0238 Q434.2969,322.977 434.4188,322.977 Q434.6156,322.977 434.7656,323.1363 Q434.925,323.2863 434.925,323.4926 Q434.925,323.6988 434.7188,323.9426 Q434.4188,324.2895 433.9406,324.4863 Q433.2938,324.7582 432.5156,324.7582 Q431.6063,324.7582 430.8844,324.3832 Q430.2938,324.0832 429.8812,323.4457 Q429.4688,322.7988 429.4688,322.0301 L429.4688,321.3363 Q429.4688,320.5395 429.8344,319.8551 Q430.2094,319.1613 430.8656,318.7957 Q431.5219,318.4207 432.2625,318.4207 Q432.7031,318.4207 433.0875,318.5238 Q433.4813,318.6176 433.8094,318.8332 Z"/><text x="444.45" y="324.786" fill="#000" font-family="sans-serif" font-size="8.4" lengthAdjust="spacing" textLength="85.8">CuriositeesUserDetails</text><line style="stroke:#181818;stroke-width:.3" x1="364.8" x2="590.4" y1="330.908" y2="330.908"/><rect width="3.6" height="3.6" x="369" fill="none" style="stroke:#c82930;stroke-width:.6" y="337.995"/><text x="376.2" y="342.373" fill="#000" font-family="sans-serif" font-size="8.4" lengthAdjust="spacing" textLength="36.6">User user</text><line style="stroke:#181818;stroke-width:.3" x1="364.8" x2="590.4" y1="346.881" y2="346.881"/><ellipse cx="370.8" cy="355.767" fill="#84BE84" rx="1.8" ry="1.8" style="stroke:#038048;stroke-width:.6"/><text x="376.2" y="358.345" fill="#000" font-family="sans-serif" font-size="8.4" lengthAdjust="spacing" textLength="211.2">Collection&lt;? extends GrantedAuthority&gt; getAuthorities()</text><ellipse cx="370.8" cy="366.94" fill="#84BE84" rx="1.8" ry="1.8" style="stroke:#038048;stroke-width:.6"/><text x="376.2" y="369.518" fill="#000" font-family="sans-serif" font-size="8.4" lengthAdjust="spacing" textLength="79.2">String getPassword()</text><ellipse cx="370.8" cy="378.113" fill="#84BE84" rx="1.8" ry="1.8" style="stroke:#038048;stroke-width:.6"/><text x="376.2" y="380.691" fill="#000" font-family="sans-serif" font-size="8.4" lengthAdjust="spacing" textLength="81">String getUsername()</text><ellipse cx="370.8" cy="389.285" fill="#84BE84" rx="1.8" ry="1.8" style="stroke:#038048;stroke-width:.6"/><text x="376.2" y="391.863" fill="#000" font-family="sans-serif" font-size="8.4" lengthAdjust="spacing" textLength="118.8">boolean isAccountNonExpired()</text><ellipse cx="370.8" cy="400.458" fill="#84BE84" rx="1.8" ry="1.8" style="stroke:#038048;stroke-width:.6"/><text x="376.2" y="403.036" fill="#000" font-family="sans-serif" font-size="8.4" lengthAdjust="spacing" textLength="118.2">boolean isAccountNonLocked()</text><ellipse cx="370.8" cy="411.63" fill="#84BE84" rx="1.8" ry="1.8" style="stroke:#038048;stroke-width:.6"/><text x="376.2" y="414.209" fill="#000" font-family="sans-serif" font-size="8.4" lengthAdjust="spacing" textLength="131.4">boolean isCredentialsNonExpired()</text><ellipse cx="370.8" cy="422.803" fill="#84BE84" rx="1.8" ry="1.8" style="stroke:#038048;stroke-width:.6"/><text x="376.2" y="425.381" fill="#000" font-family="sans-serif" font-size="8.4" lengthAdjust="spacing" textLength="76.2">boolean isEnabled()</text></g><g id="elem_UserController"><rect id="UserController" width="274.8" height="162.872" x="340.2" y="733.508" fill="#F1F1F1" codeLine="15" rx="1.5" ry="1.5" style="stroke:#181818;stroke-width:.3"/><ellipse cx="447.75" cy="743.108" fill="#ADD1B2" rx="6.6" ry="6.6" style="stroke:#181818;stroke-width:.6"/><path fill="#000" d="M449.4094,740.6332 Q449.5031,740.502 449.6156,740.4363 Q449.7281,740.3707 449.8594,740.3707 Q450.0844,740.3707 450.225,740.5301 Q450.3656,740.6801 450.3656,741.0457 L450.3656,741.9176 Q450.3656,742.2832 450.225,742.4426 Q450.0844,742.602 449.8594,742.602 Q449.6531,742.602 449.5313,742.4801 Q449.4094,742.3676 449.3438,742.0582 Q449.3156,741.8426 449.2031,741.7301 Q449.0062,741.5051 448.6406,741.3738 Q448.275,741.2426 447.9,741.2426 Q447.4406,741.2426 447.0563,741.4395 Q446.6813,741.6363 446.3812,742.0863 Q446.0906,742.5363 446.0906,743.1551 L446.0906,743.8113 Q446.0906,744.552 446.625,745.0488 Q447.1594,745.5363 448.1156,745.5363 Q448.6781,745.5363 449.0719,745.3863 Q449.3063,745.2926 449.5594,745.0301 Q449.7188,744.8707 449.8031,744.8238 Q449.8969,744.777 450.0188,744.777 Q450.2156,744.777 450.3656,744.9363 Q450.525,745.0863 450.525,745.2926 Q450.525,745.4988 450.3187,745.7426 Q450.0188,746.0895 449.5406,746.2863 Q448.8938,746.5582 448.1156,746.5582 Q447.2063,746.5582 446.4844,746.1832 Q445.8938,745.8832 445.4813,745.2457 Q445.0687,744.5988 445.0687,743.8301 L445.0687,743.1363 Q445.0687,742.3395 445.4344,741.6551 Q445.8094,740.9613 446.4656,740.5957 Q447.1219,740.2207 447.8625,740.2207 Q448.3031,740.2207 448.6875,740.3238 Q449.0813,740.4176 449.4094,740.6332 Z"/><text x="460.05" y="746.586" fill="#000" font-family="sans-serif" font-size="8.4" lengthAdjust="spacing" textLength="54.6">UserController</text><line style="stroke:#181818;stroke-width:.3" x1="340.8" x2="614.4" y1="752.708" y2="752.708"/><rect width="3.6" height="3.6" x="345" fill="none" style="stroke:#c82930;stroke-width:.6" y="759.794"/><text x="352.2" y="764.173" fill="#000" font-family="sans-serif" font-size="8.4" lengthAdjust="spacing" textLength="93">UserService userService</text><line style="stroke:#181818;stroke-width:.3" x1="340.8" x2="614.4" y1="768.681" y2="768.681"/><rect width="3.6" height="3.6" x="345" fill="#F24D5C" style="stroke:#c82930;stroke-width:.6" y="775.767"/><text x="352.2" y="780.145" fill="#000" font-family="sans-serif" font-size="8.4" lengthAdjust="spacing" text-decoration="underline" textLength="82.2">String getString(User)</text><ellipse cx="346.8" cy="788.74" fill="#84BE84" rx="1.8" ry="1.8" style="stroke:#038048;stroke-width:.6"/><text x="352.2" y="791.318" fill="#000" font-family="sans-serif" font-size="8.4" lengthAdjust="spacing" textLength="100.2">String listFirstPage(Model)</text><ellipse cx="346.8" cy="799.913" fill="#84BE84" rx="1.8" ry="1.8" style="stroke:#038048;stroke-width:.6"/><text x="352.2" y="802.491" fill="#000" font-family="sans-serif" font-size="8.4" lengthAdjust="spacing" textLength="178.2">String listByPage(Model,int,String,String,String)</text><ellipse cx="346.8" cy="811.085" fill="#84BE84" rx="1.8" ry="1.8" style="stroke:#038048;stroke-width:.6"/><text x="352.2" y="813.663" fill="#000" font-family="sans-serif" font-size="8.4" lengthAdjust="spacing" textLength="85.8">String newUser(Model)</text><ellipse cx="346.8" cy="822.258" fill="#84BE84" rx="1.8" ry="1.8" style="stroke:#038048;stroke-width:.6"/><text x="352.2" y="824.836" fill="#000" font-family="sans-serif" font-size="8.4" lengthAdjust="spacing" textLength="202.2">String saveUser(User,RedirectAttributes,MultipartFile)</text><ellipse cx="346.8" cy="833.431" fill="#84BE84" rx="1.8" ry="1.8" style="stroke:#038048;stroke-width:.6"/><text x="352.2" y="836.009" fill="#000" font-family="sans-serif" font-size="8.4" lengthAdjust="spacing" textLength="183.6">String editUser(Integer,Model,RedirectAttributes)</text><ellipse cx="346.8" cy="844.603" fill="#84BE84" rx="1.8" ry="1.8" style="stroke:#038048;stroke-width:.6"/><text x="352.2" y="847.181" fill="#000" font-family="sans-serif" font-size="8.4" lengthAdjust="spacing" textLength="168">String deleteUser(Integer,RedirectAttributes)</text><ellipse cx="346.8" cy="855.776" fill="#84BE84" rx="1.8" ry="1.8" style="stroke:#038048;stroke-width:.6"/><text x="352.2" y="858.354" fill="#000" font-family="sans-serif" font-size="8.4" lengthAdjust="spacing" textLength="259.2">String updateUserEnabledStatus(Integer,boolean,RedirectAttributes)</text><ellipse cx="346.8" cy="866.948" fill="#84BE84" rx="1.8" ry="1.8" style="stroke:#038048;stroke-width:.6"/><text x="352.2" y="869.527" fill="#000" font-family="sans-serif" font-size="8.4" lengthAdjust="spacing" textLength="154.2">void exportToCSV(HttpServletResponse)</text><ellipse cx="346.8" cy="878.121" fill="#84BE84" rx="1.8" ry="1.8" style="stroke:#038048;stroke-width:.6"/><text x="352.2" y="880.699" fill="#000" font-family="sans-serif" font-size="8.4" lengthAdjust="spacing" textLength="157.2">void exportToExcel(HttpServletResponse)</text><ellipse cx="346.8" cy="889.294" fill="#84BE84" rx="1.8" ry="1.8" style="stroke:#038048;stroke-width:.6"/><text x="352.2" y="891.872" fill="#000" font-family="sans-serif" font-size="8.4" lengthAdjust="spacing" textLength="154.2">void exportToPDF(HttpServletResponse)</text></g><g id="elem_RoleRepository"><rect id="RoleRepository" width="77.4" height="28.8" x="438.9" y="917.408" fill="#F1F1F1" codeLine="31" rx="1.5" ry="1.5" style="stroke:#181818;stroke-width:.3"/><ellipse cx="447.9" cy="927.008" fill="#B4A7E5" rx="6.6" ry="6.6" style="stroke:#181818;stroke-width:.6"/><path fill="#000" d="M448.4719,924.9926 L448.4719,928.9863 L449.5031,928.9863 Q449.8688,928.9863 450.0281,929.127 Q450.1875,929.2676 450.1875,929.502 Q450.1875,929.727 450.0281,929.8676 Q449.8688,930.0082 449.5031,930.0082 L446.4188,930.0082 Q446.0531,930.0082 445.8938,929.8676 Q445.7344,929.727 445.7344,929.4926 Q445.7344,929.2676 445.8938,929.127 Q446.0531,928.9863 446.4188,928.9863 L447.45,928.9863 L447.45,924.9926 L446.4188,924.9926 Q446.0531,924.9926 445.8938,924.852 Q445.7344,924.7113 445.7344,924.477 Q445.7344,924.252 445.8938,924.1113 Q446.0531,923.9707 446.4188,923.9707 L449.5031,923.9707 Q449.8688,923.9707 450.0281,924.1113 Q450.1875,924.252 450.1875,924.477 Q450.1875,924.7113 450.0281,924.852 Q449.8688,924.9926 449.5031,924.9926 L448.4719,924.9926 Z"/><text x="456.3" y="930.486" fill="#000" font-family="sans-serif" font-size="8.4" font-style="italic" lengthAdjust="spacing" textLength="58.2">RoleRepository</text><line style="stroke:#181818;stroke-width:.3" x1="439.5" x2="515.7" y1="936.608" y2="936.608"/><line style="stroke:#181818;stroke-width:.3" x1="439.5" x2="515.7" y1="941.408" y2="941.408"/></g><g id="elem_UserCsvExporter"><rect id="UserCsvExporter" width="185.4" height="39.973" x="652.8" y="1056.308" fill="#F1F1F1" codeLine="43" rx="1.5" ry="1.5" style="stroke:#181818;stroke-width:.3"/><ellipse cx="711.15" cy="1065.908" fill="#ADD1B2" rx="6.6" ry="6.6" style="stroke:#181818;stroke-width:.6"/><path fill="#000" d="M712.8094,1063.4332 Q712.9031,1063.302 713.0156,1063.2363 Q713.1281,1063.1707 713.2594,1063.1707 Q713.4844,1063.1707 713.625,1063.3301 Q713.7656,1063.4801 713.7656,1063.8457 L713.7656,1064.7176 Q713.7656,1065.0832 713.625,1065.2426 Q713.4844,1065.402 713.2594,1065.402 Q713.0531,1065.402 712.9313,1065.2801 Q712.8094,1065.1676 712.7438,1064.8582 Q712.7156,1064.6426 712.6031,1064.5301 Q712.4063,1064.3051 712.0406,1064.1738 Q711.675,1064.0426 711.3,1064.0426 Q710.8406,1064.0426 710.4563,1064.2395 Q710.0813,1064.4363 709.7813,1064.8863 Q709.4906,1065.3363 709.4906,1065.9551 L709.4906,1066.6113 Q709.4906,1067.352 710.025,1067.8488 Q710.5594,1068.3363 711.5156,1068.3363 Q712.0781,1068.3363 712.4719,1068.1863 Q712.7063,1068.0926 712.9594,1067.8301 Q713.1188,1067.6707 713.2031,1067.6238 Q713.2969,1067.577 713.4187,1067.577 Q713.6156,1067.577 713.7656,1067.7363 Q713.925,1067.8863 713.925,1068.0926 Q713.925,1068.2988 713.7188,1068.5426 Q713.4187,1068.8895 712.9406,1069.0863 Q712.2937,1069.3582 711.5156,1069.3582 Q710.6062,1069.3582 709.8844,1068.9832 Q709.2937,1068.6832 708.8813,1068.0457 Q708.4688,1067.3988 708.4688,1066.6301 L708.4688,1065.9363 Q708.4688,1065.1395 708.8344,1064.4551 Q709.2094,1063.7613 709.8656,1063.3957 Q710.5219,1063.0207 711.2625,1063.0207 Q711.7031,1063.0207 712.0875,1063.1238 Q712.4812,1063.2176 712.8094,1063.4332 Z"/><text x="723.45" y="1069.386" fill="#000" font-family="sans-serif" font-size="8.4" lengthAdjust="spacing" textLength="63.6">UserCsvExporter</text><line style="stroke:#181818;stroke-width:.3" x1="653.4" x2="837.6" y1="1075.508" y2="1075.508"/><line style="stroke:#181818;stroke-width:.3" x1="653.4" x2="837.6" y1="1080.308" y2="1080.308"/><ellipse cx="659.4" cy="1089.195" fill="#84BE84" rx="1.8" ry="1.8" style="stroke:#038048;stroke-width:.6"/><text x="664.8" y="1091.773" fill="#000" font-family="sans-serif" font-size="8.4" lengthAdjust="spacing" textLength="169.8">void export(List&lt;User&gt;,HttpServletResponse)</text></g><g id="elem_UserService"><rect id="UserService" width="198" height="174.044" x="378.6" y="538.208" fill="#F1F1F1" codeLine="52" rx="1.5" ry="1.5" style="stroke:#181818;stroke-width:.3"/><ellipse cx="452.25" cy="547.808" fill="#ADD1B2" rx="6.6" ry="6.6" style="stroke:#181818;stroke-width:.6"/><path fill="#000" d="M453.9094,545.3332 Q454.0031,545.202 454.1156,545.1363 Q454.2281,545.0707 454.3594,545.0707 Q454.5844,545.0707 454.725,545.2301 Q454.8656,545.3801 454.8656,545.7457 L454.8656,546.6176 Q454.8656,546.9832 454.725,547.1426 Q454.5844,547.302 454.3594,547.302 Q454.1531,547.302 454.0313,547.1801 Q453.9094,547.0676 453.8438,546.7582 Q453.8156,546.5426 453.7031,546.4301 Q453.5062,546.2051 453.1406,546.0738 Q452.775,545.9426 452.4,545.9426 Q451.9406,545.9426 451.5563,546.1395 Q451.1813,546.3363 450.8812,546.7863 Q450.5906,547.2363 450.5906,547.8551 L450.5906,548.5113 Q450.5906,549.252 451.125,549.7488 Q451.6594,550.2363 452.6156,550.2363 Q453.1781,550.2363 453.5719,550.0863 Q453.8063,549.9926 454.0594,549.7301 Q454.2188,549.5707 454.3031,549.5238 Q454.3969,549.477 454.5188,549.477 Q454.7156,549.477 454.8656,549.6363 Q455.025,549.7863 455.025,549.9926 Q455.025,550.1988 454.8187,550.4426 Q454.5188,550.7895 454.0406,550.9863 Q453.3938,551.2582 452.6156,551.2582 Q451.7063,551.2582 450.9844,550.8832 Q450.3938,550.5832 449.9813,549.9457 Q449.5687,549.2988 449.5687,548.5301 L449.5687,547.8363 Q449.5687,547.0395 449.9344,546.3551 Q450.3094,545.6613 450.9656,545.2957 Q451.6219,544.9207 452.3625,544.9207 Q452.8031,544.9207 453.1875,545.0238 Q453.5813,545.1176 453.9094,545.3332 Z"/><text x="464.55" y="551.286" fill="#000" font-family="sans-serif" font-size="8.4" lengthAdjust="spacing" textLength="45.6">UserService</text><line style="stroke:#181818;stroke-width:.3" x1="379.2" x2="576" y1="557.408" y2="557.408"/><ellipse cx="385.2" cy="566.294" fill="none" rx="1.8" ry="1.8" style="stroke:#038048;stroke-width:.6"/><text x="390.6" y="568.873" fill="#000" font-family="sans-serif" font-size="8.4" lengthAdjust="spacing" text-decoration="underline" textLength="88.2">int USERS_PER_PAGE</text><rect width="3.6" height="3.6" x="383.4" fill="none" style="stroke:#c82930;stroke-width:.6" y="575.667"/><text x="390.6" y="580.045" fill="#000" font-family="sans-serif" font-size="8.4" lengthAdjust="spacing" textLength="118.2">UserRepository userRepository</text><rect width="3.6" height="3.6" x="383.4" fill="none" style="stroke:#c82930;stroke-width:.6" y="586.84"/><text x="390.6" y="591.218" fill="#000" font-family="sans-serif" font-size="8.4" lengthAdjust="spacing" textLength="115.8">RoleRepository roleRepository</text><rect width="3.6" height="3.6" x="383.4" fill="none" style="stroke:#c82930;stroke-width:.6" y="598.013"/><text x="390.6" y="602.391" fill="#000" font-family="sans-serif" font-size="8.4" lengthAdjust="spacing" textLength="138.6">PasswordEncoder passwordEncoder</text><line style="stroke:#181818;stroke-width:.3" x1="379.2" x2="576" y1="606.899" y2="606.899"/><ellipse cx="385.2" cy="615.785" fill="#84BE84" rx="1.8" ry="1.8" style="stroke:#038048;stroke-width:.6"/><text x="390.6" y="618.363" fill="#000" font-family="sans-serif" font-size="8.4" lengthAdjust="spacing" textLength="67.8">List&lt;User&gt; listAll()</text><ellipse cx="385.2" cy="626.958" fill="#84BE84" rx="1.8" ry="1.8" style="stroke:#038048;stroke-width:.6"/><text x="390.6" y="629.536" fill="#000" font-family="sans-serif" font-size="8.4" lengthAdjust="spacing" textLength="177.6">Page&lt;User&gt; listByPage(int,String,String,String)</text><ellipse cx="385.2" cy="638.13" fill="#84BE84" rx="1.8" ry="1.8" style="stroke:#038048;stroke-width:.6"/><text x="390.6" y="640.709" fill="#000" font-family="sans-serif" font-size="8.4" lengthAdjust="spacing" textLength="80.4">List&lt;Role&gt; listRoles()</text><ellipse cx="385.2" cy="649.303" fill="#84BE84" rx="1.8" ry="1.8" style="stroke:#038048;stroke-width:.6"/><text x="390.6" y="651.881" fill="#000" font-family="sans-serif" font-size="8.4" lengthAdjust="spacing" textLength="61.2">User save(User)</text><rect width="3.6" height="3.6" x="383.4" fill="#F24D5C" style="stroke:#c82930;stroke-width:.6" y="658.676"/><text x="390.6" y="663.054" fill="#000" font-family="sans-serif" font-size="8.4" lengthAdjust="spacing" textLength="106.2">void encodePassword(User)</text><ellipse cx="385.2" cy="671.648" fill="#84BE84" rx="1.8" ry="1.8" style="stroke:#038048;stroke-width:.6"/><text x="390.6" y="674.227" fill="#000" font-family="sans-serif" font-size="8.4" lengthAdjust="spacing" textLength="142.8">boolean isEmailUnique(Integer,String)</text><ellipse cx="385.2" cy="682.821" fill="#84BE84" rx="1.8" ry="1.8" style="stroke:#038048;stroke-width:.6"/><text x="390.6" y="685.399" fill="#000" font-family="sans-serif" font-size="8.4" lengthAdjust="spacing" textLength="64.2">User get(Integer)</text><ellipse cx="385.2" cy="693.994" fill="#84BE84" rx="1.8" ry="1.8" style="stroke:#038048;stroke-width:.6"/><text x="390.6" y="696.572" fill="#000" font-family="sans-serif" font-size="8.4" lengthAdjust="spacing" textLength="73.8">void delete(Integer)</text><ellipse cx="385.2" cy="705.166" fill="#84BE84" rx="1.8" ry="1.8" style="stroke:#038048;stroke-width:.6"/><text x="390.6" y="707.745" fill="#000" font-family="sans-serif" font-size="8.4" lengthAdjust="spacing" textLength="182.4">void updateUserEnabledStatus(Integer,boolean)</text></g><g id="elem_UserPdfExporter"><rect id="UserPdfExporter" width="185.4" height="62.318" x="652.8" y="972.608" fill="#F1F1F1" codeLine="69" rx="1.5" ry="1.5" style="stroke:#181818;stroke-width:.3"/><ellipse cx="712.05" cy="982.208" fill="#ADD1B2" rx="6.6" ry="6.6" style="stroke:#181818;stroke-width:.6"/><path fill="#000" d="M713.7094,979.7332 Q713.8031,979.602 713.9156,979.5363 Q714.0281,979.4707 714.1594,979.4707 Q714.3844,979.4707 714.525,979.6301 Q714.6656,979.7801 714.6656,980.1457 L714.6656,981.0176 Q714.6656,981.3832 714.525,981.5426 Q714.3844,981.702 714.1594,981.702 Q713.9531,981.702 713.8313,981.5801 Q713.7094,981.4676 713.6438,981.1582 Q713.6156,980.9426 713.5031,980.8301 Q713.3063,980.6051 712.9406,980.4738 Q712.575,980.3426 712.2,980.3426 Q711.7406,980.3426 711.3562,980.5395 Q710.9812,980.7363 710.6813,981.1863 Q710.3906,981.6363 710.3906,982.2551 L710.3906,982.9113 Q710.3906,983.652 710.925,984.1488 Q711.4594,984.6363 712.4156,984.6363 Q712.9781,984.6363 713.3719,984.4863 Q713.6062,984.3926 713.8594,984.1301 Q714.0188,983.9707 714.1031,983.9238 Q714.1969,983.877 714.3188,983.877 Q714.5156,983.877 714.6656,984.0363 Q714.825,984.1863 714.825,984.3926 Q714.825,984.5988 714.6188,984.8426 Q714.3188,985.1895 713.8406,985.3863 Q713.1938,985.6582 712.4156,985.6582 Q711.5063,985.6582 710.7844,985.2832 Q710.1938,984.9832 709.7813,984.3457 Q709.3688,983.6988 709.3688,982.9301 L709.3688,982.2363 Q709.3688,981.4395 709.7344,980.7551 Q710.1094,980.0613 710.7656,979.6957 Q711.4219,979.3207 712.1625,979.3207 Q712.6031,979.3207 712.9875,979.4238 Q713.3813,979.5176 713.7094,979.7332 Z"/><text x="724.35" y="985.686" fill="#000" font-family="sans-serif" font-size="8.4" lengthAdjust="spacing" textLength="61.8">UserPdfExporter</text><line style="stroke:#181818;stroke-width:.3" x1="653.4" x2="837.6" y1="991.808" y2="991.808"/><line style="stroke:#181818;stroke-width:.3" x1="653.4" x2="837.6" y1="996.608" y2="996.608"/><ellipse cx="659.4" cy="1005.495" fill="#84BE84" rx="1.8" ry="1.8" style="stroke:#038048;stroke-width:.6"/><text x="664.8" y="1008.073" fill="#000" font-family="sans-serif" font-size="8.4" lengthAdjust="spacing" textLength="169.8">void export(List&lt;User&gt;,HttpServletResponse)</text><rect width="3.6" height="3.6" x="657.6" fill="#F24D5C" style="stroke:#c82930;stroke-width:.6" y="1014.867"/><text x="664.8" y="1019.245" fill="#000" font-family="sans-serif" font-size="8.4" lengthAdjust="spacing" textLength="163.2">void writeTableData(PdfPTable,List&lt;User&gt;)</text><rect width="3.6" height="3.6" x="657.6" fill="#F24D5C" style="stroke:#c82930;stroke-width:.6" y="1026.04"/><text x="664.8" y="1030.418" fill="#000" font-family="sans-serif" font-size="8.4" lengthAdjust="spacing" textLength="130.2">void writeTableHeader(PdfPTable)</text></g><g id="elem_PasswordEncoderTest"><rect id="PasswordEncoderTest" width="118.8" height="39.973" x="418.2" y="476.708" fill="#F1F1F1" codeLine="75" rx="1.5" ry="1.5" style="stroke:#181818;stroke-width:.3"/><ellipse cx="433.68" cy="486.308" fill="#ADD1B2" rx="6.6" ry="6.6" style="stroke:#181818;stroke-width:.6"/><path fill="#000" d="M435.3394,483.8332 Q435.4331,483.702 435.5456,483.6363 Q435.6581,483.5707 435.7894,483.5707 Q436.0144,483.5707 436.155,483.7301 Q436.2956,483.8801 436.2956,484.2457 L436.2956,485.1176 Q436.2956,485.4832 436.155,485.6426 Q436.0144,485.802 435.7894,485.802 Q435.5831,485.802 435.4612,485.6801 Q435.3394,485.5676 435.2737,485.2582 Q435.2456,485.0426 435.1331,484.9301 Q434.9363,484.7051 434.5706,484.5738 Q434.205,484.4426 433.83,484.4426 Q433.3706,484.4426 432.9863,484.6395 Q432.6113,484.8363 432.3113,485.2863 Q432.0206,485.7363 432.0206,486.3551 L432.0206,487.0113 Q432.0206,487.752 432.555,488.2488 Q433.0894,488.7363 434.0456,488.7363 Q434.6081,488.7363 435.0019,488.5863 Q435.2363,488.4926 435.4894,488.2301 Q435.6487,488.0707 435.7331,488.0238 Q435.8269,487.977 435.9487,487.977 Q436.1456,487.977 436.2956,488.1363 Q436.455,488.2863 436.455,488.4926 Q436.455,488.6988 436.2488,488.9426 Q435.9487,489.2895 435.4706,489.4863 Q434.8237,489.7582 434.0456,489.7582 Q433.1362,489.7582 432.4144,489.3832 Q431.8237,489.0832 431.4112,488.4457 Q430.9988,487.7988 430.9988,487.0301 L430.9988,486.3363 Q430.9988,485.5395 431.3644,484.8551 Q431.7394,484.1613 432.3956,483.7957 Q433.0519,483.4207 433.7925,483.4207 Q434.2331,483.4207 434.6175,483.5238 Q435.0112,483.6176 435.3394,483.8332 Z"/><text x="443.52" y="489.786" fill="#000" font-family="sans-serif" font-size="8.4" lengthAdjust="spacing" textLength="85.2">PasswordEncoderTest</text><line style="stroke:#181818;stroke-width:.3" x1="418.8" x2="536.4" y1="495.908" y2="495.908"/><line style="stroke:#181818;stroke-width:.3" x1="418.8" x2="536.4" y1="500.708" y2="500.708"/><ellipse cx="424.8" cy="509.594" fill="#84BE84" rx="1.8" ry="1.8" style="stroke:#038048;stroke-width:.6"/><text x="430.2" y="512.173" fill="#000" font-family="sans-serif" font-size="8.4" lengthAdjust="spacing" textLength="103.2">void testEncodePassword()</text></g><g id="elem_AbstractExporter"><rect id="AbstractExporter" width="246" height="39.973" x="354.6" y="967.508" fill="#F1F1F1" codeLine="79" rx="1.5" ry="1.5" style="stroke:#181818;stroke-width:.3"/><ellipse cx="443.55" cy="977.108" fill="#ADD1B2" rx="6.6" ry="6.6" style="stroke:#181818;stroke-width:.6"/><path fill="#000" d="M445.2094,974.6332 Q445.3031,974.502 445.4156,974.4363 Q445.5281,974.3707 445.6594,974.3707 Q445.8844,974.3707 446.025,974.5301 Q446.1656,974.6801 446.1656,975.0457 L446.1656,975.9176 Q446.1656,976.2832 446.025,976.4426 Q445.8844,976.602 445.6594,976.602 Q445.4531,976.602 445.3313,976.4801 Q445.2094,976.3676 445.1438,976.0582 Q445.1156,975.8426 445.0031,975.7301 Q444.8063,975.5051 444.4406,975.3738 Q444.075,975.2426 443.7,975.2426 Q443.2406,975.2426 442.8563,975.4395 Q442.4813,975.6363 442.1813,976.0863 Q441.8906,976.5363 441.8906,977.1551 L441.8906,977.8113 Q441.8906,978.552 442.425,979.0488 Q442.9594,979.5363 443.9156,979.5363 Q444.4781,979.5363 444.8719,979.3863 Q445.1063,979.2926 445.3594,979.0301 Q445.5188,978.8707 445.6031,978.8238 Q445.6969,978.777 445.8187,978.777 Q446.0156,978.777 446.1656,978.9363 Q446.325,979.0863 446.325,979.2926 Q446.325,979.4988 446.1188,979.7426 Q445.8187,980.0895 445.3406,980.2863 Q444.6937,980.5582 443.9156,980.5582 Q443.0062,980.5582 442.2844,980.1832 Q441.6937,979.8832 441.2813,979.2457 Q440.8688,978.5988 440.8688,977.8301 L440.8688,977.1363 Q440.8688,976.3395 441.2344,975.6551 Q441.6094,974.9613 442.2656,974.5957 Q442.9219,974.2207 443.6625,974.2207 Q444.1031,974.2207 444.4875,974.3238 Q444.8812,974.4176 445.2094,974.6332 Z"/><text x="455.85" y="980.586" fill="#000" font-family="sans-serif" font-size="8.4" lengthAdjust="spacing" textLength="63">AbstractExporter</text><line style="stroke:#181818;stroke-width:.3" x1="355.2" x2="600" y1="986.708" y2="986.708"/><line style="stroke:#181818;stroke-width:.3" x1="355.2" x2="600" y1="991.508" y2="991.508"/><ellipse cx="361.2" cy="1000.394" fill="#84BE84" rx="1.8" ry="1.8" style="stroke:#038048;stroke-width:.6"/><text x="366.6" y="1002.973" fill="#000" font-family="sans-serif" font-size="8.4" lengthAdjust="spacing" textLength="230.4">void setResponseHeader(HttpServletResponse,String,String)</text></g><g id="elem_UserExcelExporter"><rect id="UserExcelExporter" width="189" height="95.836" x="651" y="855.608" fill="#F1F1F1" codeLine="83" rx="1.5" ry="1.5" style="stroke:#181818;stroke-width:.3"/><ellipse cx="708.45" cy="865.208" fill="#ADD1B2" rx="6.6" ry="6.6" style="stroke:#181818;stroke-width:.6"/><path fill="#000" d="M710.1094,862.7332 Q710.2031,862.602 710.3156,862.5363 Q710.4281,862.4707 710.5594,862.4707 Q710.7844,862.4707 710.925,862.6301 Q711.0656,862.7801 711.0656,863.1457 L711.0656,864.0176 Q711.0656,864.3832 710.925,864.5426 Q710.7844,864.702 710.5594,864.702 Q710.3531,864.702 710.2312,864.5801 Q710.1094,864.4676 710.0437,864.1582 Q710.0156,863.9426 709.9031,863.8301 Q709.7063,863.6051 709.3406,863.4738 Q708.975,863.3426 708.6,863.3426 Q708.1406,863.3426 707.7563,863.5395 Q707.3813,863.7363 707.0813,864.1863 Q706.7906,864.6363 706.7906,865.2551 L706.7906,865.9113 Q706.7906,866.652 707.325,867.1488 Q707.8594,867.6363 708.8156,867.6363 Q709.3781,867.6363 709.7719,867.4863 Q710.0063,867.3926 710.2594,867.1301 Q710.4187,866.9707 710.5031,866.9238 Q710.5969,866.877 710.7188,866.877 Q710.9156,866.877 711.0656,867.0363 Q711.225,867.1863 711.225,867.3926 Q711.225,867.5988 711.0188,867.8426 Q710.7188,868.1895 710.2406,868.3863 Q709.5938,868.6582 708.8156,868.6582 Q707.9063,868.6582 707.1844,868.2832 Q706.5938,867.9832 706.1813,867.3457 Q705.7688,866.6988 705.7688,865.9301 L705.7688,865.2363 Q705.7688,864.4395 706.1344,863.7551 Q706.5094,863.0613 707.1656,862.6957 Q707.8219,862.3207 708.5625,862.3207 Q709.0031,862.3207 709.3875,862.4238 Q709.7813,862.5176 710.1094,862.7332 Z"/><text x="720.75" y="868.686" fill="#000" font-family="sans-serif" font-size="8.4" lengthAdjust="spacing" textLength="69">UserExcelExporter</text><line style="stroke:#181818;stroke-width:.3" x1="651.6" x2="839.4" y1="874.808" y2="874.808"/><rect width="3.6" height="3.6" x="655.8" fill="none" style="stroke:#c82930;stroke-width:.6" y="881.894"/><text x="663" y="886.273" fill="#000" font-family="sans-serif" font-size="8.4" lengthAdjust="spacing" textLength="97.8">XSSFWorkbook workbook</text><rect width="3.6" height="3.6" x="655.8" fill="none" style="stroke:#c82930;stroke-width:.6" y="893.067"/><text x="663" y="897.445" fill="#000" font-family="sans-serif" font-size="8.4" lengthAdjust="spacing" textLength="66.6">XSSFSheet sheet</text><line style="stroke:#181818;stroke-width:.3" x1="651.6" x2="839.4" y1="901.953" y2="901.953"/><rect width="3.6" height="3.6" x="655.8" fill="#F24D5C" style="stroke:#c82930;stroke-width:.6" y="909.04"/><text x="663" y="913.418" fill="#000" font-family="sans-serif" font-size="8.4" lengthAdjust="spacing" textLength="85.2">void writeHeaderLine()</text><rect width="3.6" height="3.6" x="655.8" fill="#F24D5C" style="stroke:#c82930;stroke-width:.6" y="920.212"/><text x="663" y="924.591" fill="#000" font-family="sans-serif" font-size="8.4" lengthAdjust="spacing" textLength="173.4">void createCell(XSSFRow,int,Object,CellStyle)</text><ellipse cx="657.6" cy="933.185" fill="#84BE84" rx="1.8" ry="1.8" style="stroke:#038048;stroke-width:.6"/><text x="663" y="935.763" fill="#000" font-family="sans-serif" font-size="8.4" lengthAdjust="spacing" textLength="169.8">void export(List&lt;User&gt;,HttpServletResponse)</text><rect width="3.6" height="3.6" x="655.8" fill="#F24D5C" style="stroke:#c82930;stroke-width:.6" y="942.558"/><text x="663" y="946.936" fill="#000" font-family="sans-serif" font-size="8.4" lengthAdjust="spacing" textLength="120">void writeDataLines(List&lt;User&gt;)</text></g><g id="elem_RoleRepositoryTests"><rect id="RoleRepositoryTests" width="131.4" height="62.318" x="679.8" y="772.208" fill="#F1F1F1" codeLine="93" rx="1.5" ry="1.5" style="stroke:#181818;stroke-width:.3"/><ellipse cx="703.65" cy="781.808" fill="#ADD1B2" rx="6.6" ry="6.6" style="stroke:#181818;stroke-width:.6"/><path fill="#000" d="M705.3094,779.3332 Q705.4031,779.202 705.5156,779.1363 Q705.6281,779.0707 705.7594,779.0707 Q705.9844,779.0707 706.125,779.2301 Q706.2656,779.3801 706.2656,779.7457 L706.2656,780.6176 Q706.2656,780.9832 706.125,781.1426 Q705.9844,781.302 705.7594,781.302 Q705.5531,781.302 705.4313,781.1801 Q705.3094,781.0676 705.2438,780.7582 Q705.2156,780.5426 705.1031,780.4301 Q704.9063,780.2051 704.5406,780.0738 Q704.175,779.9426 703.8,779.9426 Q703.3406,779.9426 702.9563,780.1395 Q702.5813,780.3363 702.2813,780.7863 Q701.9906,781.2363 701.9906,781.8551 L701.9906,782.5113 Q701.9906,783.252 702.525,783.7488 Q703.0594,784.2363 704.0156,784.2363 Q704.5781,784.2363 704.9719,784.0863 Q705.2063,783.9926 705.4594,783.7301 Q705.6188,783.5707 705.7031,783.5238 Q705.7969,783.477 705.9187,783.477 Q706.1156,783.477 706.2656,783.6363 Q706.425,783.7863 706.425,783.9926 Q706.425,784.1988 706.2188,784.4426 Q705.9187,784.7895 705.4406,784.9863 Q704.7937,785.2582 704.0156,785.2582 Q703.1062,785.2582 702.3844,784.8832 Q701.7937,784.5832 701.3813,783.9457 Q700.9688,783.2988 700.9688,782.5301 L700.9688,781.8363 Q700.9688,781.0395 701.3344,780.3551 Q701.7094,779.6613 702.3656,779.2957 Q703.0219,778.9207 703.7625,778.9207 Q704.2031,778.9207 704.5875,779.0238 Q704.9812,779.1176 705.3094,779.3332 Z"/><text x="715.35" y="785.286" fill="#000" font-family="sans-serif" font-size="8.4" lengthAdjust="spacing" textLength="79.2">RoleRepositoryTests</text><line style="stroke:#181818;stroke-width:.3" x1="680.4" x2="810.6" y1="791.408" y2="791.408"/><rect width="3.6" height="3.6" x="684.6" fill="none" style="stroke:#c82930;stroke-width:.6" y="798.495"/><text x="691.8" y="802.873" fill="#000" font-family="sans-serif" font-size="8.4" lengthAdjust="spacing" textLength="115.8">RoleRepository roleRepository</text><line style="stroke:#181818;stroke-width:.3" x1="680.4" x2="810.6" y1="807.381" y2="807.381"/><ellipse cx="686.4" cy="816.267" fill="#84BE84" rx="1.8" ry="1.8" style="stroke:#038048;stroke-width:.6"/><text x="691.8" y="818.845" fill="#000" font-family="sans-serif" font-size="8.4" lengthAdjust="spacing" textLength="97.8">void testCreateFirstRole()</text><ellipse cx="686.4" cy="827.44" fill="#84BE84" rx="1.8" ry="1.8" style="stroke:#038048;stroke-width:.6"/><text x="691.8" y="830.018" fill="#000" font-family="sans-serif" font-size="8.4" lengthAdjust="spacing" textLength="102.6">void testCreateRestRoles()</text></g><g id="elem_UserNotFoundException"><rect id="UserNotFoundException" width="110.4" height="28.8" x="690.3" y="1123.208" fill="#F1F1F1" codeLine="116" rx="1.5" ry="1.5" style="stroke:#181818;stroke-width:.3"/><ellipse cx="699.3" cy="1132.808" fill="#ADD1B2" rx="6.6" ry="6.6" style="stroke:#181818;stroke-width:.6"/><path fill="#000" d="M700.9594,1130.3332 Q701.0531,1130.202 701.1656,1130.1363 Q701.2781,1130.0707 701.4094,1130.0707 Q701.6344,1130.0707 701.775,1130.2301 Q701.9156,1130.3801 701.9156,1130.7457 L701.9156,1131.6176 Q701.9156,1131.9832 701.775,1132.1426 Q701.6344,1132.302 701.4094,1132.302 Q701.2031,1132.302 701.0813,1132.1801 Q700.9594,1132.0676 700.8938,1131.7582 Q700.8656,1131.5426 700.7531,1131.4301 Q700.5563,1131.2051 700.1906,1131.0738 Q699.825,1130.9426 699.45,1130.9426 Q698.9906,1130.9426 698.6062,1131.1395 Q698.2312,1131.3363 697.9313,1131.7863 Q697.6406,1132.2363 697.6406,1132.8551 L697.6406,1133.5113 Q697.6406,1134.252 698.175,1134.7488 Q698.7094,1135.2363 699.6656,1135.2363 Q700.2281,1135.2363 700.6219,1135.0863 Q700.8562,1134.9926 701.1094,1134.7301 Q701.2688,1134.5707 701.3531,1134.5238 Q701.4469,1134.477 701.5688,1134.477 Q701.7656,1134.477 701.9156,1134.6363 Q702.075,1134.7863 702.075,1134.9926 Q702.075,1135.1988 701.8688,1135.4426 Q701.5688,1135.7895 701.0906,1135.9863 Q700.4438,1136.2582 699.6656,1136.2582 Q698.7563,1136.2582 698.0344,1135.8832 Q697.4438,1135.5832 697.0313,1134.9457 Q696.6188,1134.2988 696.6188,1133.5301 L696.6188,1132.8363 Q696.6188,1132.0395 696.9844,1131.3551 Q697.3594,1130.6613 698.0156,1130.2957 Q698.6719,1129.9207 699.4125,1129.9207 Q699.8531,1129.9207 700.2375,1130.0238 Q700.6313,1130.1176 700.9594,1130.3332 Z"/><text x="707.7" y="1136.286" fill="#000" font-family="sans-serif" font-size="8.4" lengthAdjust="spacing" textLength="91.2">UserNotFoundException</text><line style="stroke:#181818;stroke-width:.3" x1="690.9" x2="800.1" y1="1142.408" y2="1142.408"/><line style="stroke:#181818;stroke-width:.3" x1="690.9" x2="800.1" y1="1147.208" y2="1147.208"/></g><g id="elem_UserRestController"><rect id="UserRestController" width="175.2" height="51.145" x="657.9" y="699.908" fill="#F1F1F1" codeLine="122" rx="1.5" ry="1.5" style="stroke:#181818;stroke-width:.3"/><ellipse cx="706.95" cy="709.508" fill="#ADD1B2" rx="6.6" ry="6.6" style="stroke:#181818;stroke-width:.6"/><path fill="#000" d="M708.6094,707.0332 Q708.7031,706.902 708.8156,706.8363 Q708.9281,706.7707 709.0594,706.7707 Q709.2844,706.7707 709.425,706.9301 Q709.5656,707.0801 709.5656,707.4457 L709.5656,708.3176 Q709.5656,708.6832 709.425,708.8426 Q709.2844,709.002 709.0594,709.002 Q708.8531,709.002 708.7312,708.8801 Q708.6094,708.7676 708.5437,708.4582 Q708.5156,708.2426 708.4031,708.1301 Q708.2063,707.9051 707.8406,707.7738 Q707.475,707.6426 707.1,707.6426 Q706.6406,707.6426 706.2563,707.8395 Q705.8813,708.0363 705.5813,708.4863 Q705.2906,708.9363 705.2906,709.5551 L705.2906,710.2113 Q705.2906,710.952 705.825,711.4488 Q706.3594,711.9363 707.3156,711.9363 Q707.8781,711.9363 708.2719,711.7863 Q708.5063,711.6926 708.7594,711.4301 Q708.9187,711.2707 709.0031,711.2238 Q709.0969,711.177 709.2188,711.177 Q709.4156,711.177 709.5656,711.3363 Q709.725,711.4863 709.725,711.6926 Q709.725,711.8988 709.5188,712.1426 Q709.2188,712.4895 708.7406,712.6863 Q708.0938,712.9582 707.3156,712.9582 Q706.4063,712.9582 705.6844,712.5832 Q705.0938,712.2832 704.6813,711.6457 Q704.2688,710.9988 704.2688,710.2301 L704.2688,709.5363 Q704.2688,708.7395 704.6344,708.0551 Q705.0094,707.3613 705.6656,706.9957 Q706.3219,706.6207 707.0625,706.6207 Q707.5031,706.6207 707.8875,706.7238 Q708.2813,706.8176 708.6094,707.0332 Z"/><text x="719.25" y="712.986" fill="#000" font-family="sans-serif" font-size="8.4" lengthAdjust="spacing" textLength="72">UserRestController</text><line style="stroke:#181818;stroke-width:.3" x1="658.5" x2="832.5" y1="719.108" y2="719.108"/><rect width="3.6" height="3.6" x="662.7" fill="none" style="stroke:#c82930;stroke-width:.6" y="726.194"/><text x="669.9" y="730.573" fill="#000" font-family="sans-serif" font-size="8.4" lengthAdjust="spacing" textLength="93">UserService userService</text><line style="stroke:#181818;stroke-width:.3" x1="658.5" x2="832.5" y1="735.081" y2="735.081"/><ellipse cx="664.5" cy="743.967" fill="#84BE84" rx="1.8" ry="1.8" style="stroke:#038048;stroke-width:.6"/><text x="669.9" y="746.545" fill="#000" font-family="sans-serif" font-size="8.4" lengthAdjust="spacing" textLength="159.6">String checkDuplicateEmail(Integer,String)</text></g><g id="elem_UserRepository"><rect id="UserRepository" width="180.6" height="73.491" x="387.3" y="1029.008" fill="#F1F1F1" codeLine="128" rx="1.5" ry="1.5" style="stroke:#181818;stroke-width:.3"/><ellipse cx="445.65" cy="1038.608" fill="#B4A7E5" rx="6.6" ry="6.6" style="stroke:#181818;stroke-width:.6"/><path fill="#000" d="M446.2219,1036.5926 L446.2219,1040.5863 L447.2531,1040.5863 Q447.6188,1040.5863 447.7781,1040.727 Q447.9375,1040.8676 447.9375,1041.102 Q447.9375,1041.327 447.7781,1041.4676 Q447.6188,1041.6082 447.2531,1041.6082 L444.1688,1041.6082 Q443.8031,1041.6082 443.6438,1041.4676 Q443.4844,1041.327 443.4844,1041.0926 Q443.4844,1040.8676 443.6438,1040.727 Q443.8031,1040.5863 444.1688,1040.5863 L445.2,1040.5863 L445.2,1036.5926 L444.1688,1036.5926 Q443.8031,1036.5926 443.6438,1036.452 Q443.4844,1036.3113 443.4844,1036.077 Q443.4844,1035.852 443.6438,1035.7113 Q443.8031,1035.5707 444.1688,1035.5707 L447.2531,1035.5707 Q447.6188,1035.5707 447.7781,1035.7113 Q447.9375,1035.852 447.9375,1036.077 Q447.9375,1036.3113 447.7781,1036.452 Q447.6188,1036.5926 447.2531,1036.5926 L446.2219,1036.5926 Z"/><text x="457.95" y="1042.086" fill="#000" font-family="sans-serif" font-size="8.4" font-style="italic" lengthAdjust="spacing" textLength="58.8">UserRepository</text><line style="stroke:#181818;stroke-width:.3" x1="387.9" x2="567.3" y1="1048.208" y2="1048.208"/><line style="stroke:#181818;stroke-width:.3" x1="387.9" x2="567.3" y1="1053.008" y2="1053.008"/><ellipse cx="393.9" cy="1061.895" fill="#84BE84" rx="1.8" ry="1.8" style="stroke:#038048;stroke-width:.6"/><text x="399.3" y="1064.473" fill="#000" font-family="sans-serif" font-size="8.4" lengthAdjust="spacing" textLength="107.4">User getUserByEmail(String)</text><ellipse cx="393.9" cy="1073.067" fill="#84BE84" rx="1.8" ry="1.8" style="stroke:#038048;stroke-width:.6"/><text x="399.3" y="1075.645" fill="#000" font-family="sans-serif" font-size="8.4" lengthAdjust="spacing" textLength="91.2">Long countById(Integer)</text><ellipse cx="393.9" cy="1084.24" fill="#84BE84" rx="1.8" ry="1.8" style="stroke:#038048;stroke-width:.6"/><text x="399.3" y="1086.818" fill="#000" font-family="sans-serif" font-size="8.4" lengthAdjust="spacing" textLength="138.6">Page&lt;User&gt; findAll(String,Pageable)</text><ellipse cx="393.9" cy="1095.412" fill="#84BE84" rx="1.8" ry="1.8" style="stroke:#038048;stroke-width:.6"/><text x="399.3" y="1097.991" fill="#000" font-family="sans-serif" font-size="8.4" lengthAdjust="spacing" textLength="165">void updateEnabledStatus(Integer,boolean)</text></g><g id="elem_UserRepositoryTests"><rect id="UserRepositoryTests" width="157.8" height="196.39" x="666.6" y="482.708" fill="#F1F1F1" codeLine="135" rx="1.5" ry="1.5" style="stroke:#181818;stroke-width:.3"/><ellipse cx="703.35" cy="492.308" fill="#ADD1B2" rx="6.6" ry="6.6" style="stroke:#181818;stroke-width:.6"/><path fill="#000" d="M705.0094,489.8332 Q705.1031,489.702 705.2156,489.6363 Q705.3281,489.5707 705.4594,489.5707 Q705.6844,489.5707 705.825,489.7301 Q705.9656,489.8801 705.9656,490.2457 L705.9656,491.1176 Q705.9656,491.4832 705.825,491.6426 Q705.6844,491.802 705.4594,491.802 Q705.2531,491.802 705.1313,491.6801 Q705.0094,491.5676 704.9438,491.2582 Q704.9156,491.0426 704.8031,490.9301 Q704.6062,490.7051 704.2406,490.5738 Q703.875,490.4426 703.5,490.4426 Q703.0406,490.4426 702.6563,490.6395 Q702.2813,490.8363 701.9812,491.2863 Q701.6906,491.7363 701.6906,492.3551 L701.6906,493.0113 Q701.6906,493.752 702.225,494.2488 Q702.7594,494.7363 703.7156,494.7363 Q704.2781,494.7363 704.6719,494.5863 Q704.9063,494.4926 705.1594,494.2301 Q705.3188,494.0707 705.4031,494.0238 Q705.4969,493.977 705.6188,493.977 Q705.8156,493.977 705.9656,494.1363 Q706.125,494.2863 706.125,494.4926 Q706.125,494.6988 705.9187,494.9426 Q705.6188,495.2895 705.1406,495.4863 Q704.4938,495.7582 703.7156,495.7582 Q702.8063,495.7582 702.0844,495.3832 Q701.4938,495.0832 701.0813,494.4457 Q700.6687,493.7988 700.6687,493.0301 L700.6687,492.3363 Q700.6687,491.5395 701.0344,490.8551 Q701.4094,490.1613 702.0656,489.7957 Q702.7219,489.4207 703.4625,489.4207 Q703.9031,489.4207 704.2875,489.5238 Q704.6813,489.6176 705.0094,489.8332 Z"/><text x="715.65" y="495.786" fill="#000" font-family="sans-serif" font-size="8.4" lengthAdjust="spacing" textLength="79.2">UserRepositoryTests</text><line style="stroke:#181818;stroke-width:.3" x1="667.2" x2="823.8" y1="501.908" y2="501.908"/><rect width="3.6" height="3.6" x="671.4" fill="none" style="stroke:#c82930;stroke-width:.6" y="508.995"/><text x="678.6" y="513.373" fill="#000" font-family="sans-serif" font-size="8.4" lengthAdjust="spacing" textLength="118.2">UserRepository userRepository</text><rect width="3.6" height="3.6" x="671.4" fill="none" style="stroke:#c82930;stroke-width:.6" y="520.167"/><text x="678.6" y="524.545" fill="#000" font-family="sans-serif" font-size="8.4" lengthAdjust="spacing" textLength="142.2">TestEntityManager testEntityManager</text><line style="stroke:#181818;stroke-width:.3" x1="667.2" x2="823.8" y1="529.053" y2="529.053"/><ellipse cx="673.2" cy="537.94" fill="#84BE84" rx="1.8" ry="1.8" style="stroke:#038048;stroke-width:.6"/><text x="678.6" y="540.518" fill="#000" font-family="sans-serif" font-size="8.4" lengthAdjust="spacing" textLength="131.4">void testCreateUserWithOneRole()</text><ellipse cx="673.2" cy="549.112" fill="#84BE84" rx="1.8" ry="1.8" style="stroke:#038048;stroke-width:.6"/><text x="678.6" y="551.691" fill="#000" font-family="sans-serif" font-size="8.4" lengthAdjust="spacing" textLength="135">void testCreateUserWithTwoRoles()</text><ellipse cx="673.2" cy="560.285" fill="#84BE84" rx="1.8" ry="1.8" style="stroke:#038048;stroke-width:.6"/><text x="678.6" y="562.863" fill="#000" font-family="sans-serif" font-size="8.4" lengthAdjust="spacing" textLength="81.6">void testListAllUsers()</text><ellipse cx="673.2" cy="571.458" fill="#84BE84" rx="1.8" ry="1.8" style="stroke:#038048;stroke-width:.6"/><text x="678.6" y="574.036" fill="#000" font-family="sans-serif" font-size="8.4" lengthAdjust="spacing" textLength="85.2">void testGetUserById()</text><ellipse cx="673.2" cy="582.63" fill="#84BE84" rx="1.8" ry="1.8" style="stroke:#038048;stroke-width:.6"/><text x="678.6" y="585.209" fill="#000" font-family="sans-serif" font-size="8.4" lengthAdjust="spacing" textLength="108">void testUpdateUserDetails()</text><ellipse cx="673.2" cy="593.803" fill="#84BE84" rx="1.8" ry="1.8" style="stroke:#038048;stroke-width:.6"/><text x="678.6" y="596.381" fill="#000" font-family="sans-serif" font-size="8.4" lengthAdjust="spacing" textLength="103.8">void testUpdateUserRoles()</text><ellipse cx="673.2" cy="604.976" fill="#84BE84" rx="1.8" ry="1.8" style="stroke:#038048;stroke-width:.6"/><text x="678.6" y="607.554" fill="#000" font-family="sans-serif" font-size="8.4" lengthAdjust="spacing" textLength="79.8">void testDeleteUser()</text><ellipse cx="673.2" cy="616.148" fill="#84BE84" rx="1.8" ry="1.8" style="stroke:#038048;stroke-width:.6"/><text x="678.6" y="618.727" fill="#000" font-family="sans-serif" font-size="8.4" lengthAdjust="spacing" textLength="99">void testGetUserByEmail()</text><ellipse cx="673.2" cy="627.321" fill="#84BE84" rx="1.8" ry="1.8" style="stroke:#038048;stroke-width:.6"/><text x="678.6" y="629.899" fill="#000" font-family="sans-serif" font-size="8.4" lengthAdjust="spacing" textLength="76.8">void testCountById()</text><ellipse cx="673.2" cy="638.494" fill="#84BE84" rx="1.8" ry="1.8" style="stroke:#038048;stroke-width:.6"/><text x="678.6" y="641.072" fill="#000" font-family="sans-serif" font-size="8.4" lengthAdjust="spacing" textLength="83.4">void testDisableUser()</text><ellipse cx="673.2" cy="649.666" fill="#84BE84" rx="1.8" ry="1.8" style="stroke:#038048;stroke-width:.6"/><text x="678.6" y="652.245" fill="#000" font-family="sans-serif" font-size="8.4" lengthAdjust="spacing" textLength="81.6">void testEnableUser()</text><ellipse cx="673.2" cy="660.839" fill="#84BE84" rx="1.8" ry="1.8" style="stroke:#038048;stroke-width:.6"/><text x="678.6" y="663.417" fill="#000" font-family="sans-serif" font-size="8.4" lengthAdjust="spacing" textLength="87.6">void testListFirstPage()</text><ellipse cx="673.2" cy="672.012" fill="#84BE84" rx="1.8" ry="1.8" style="stroke:#038048;stroke-width:.6"/><text x="678.6" y="674.59" fill="#000" font-family="sans-serif" font-size="8.4" lengthAdjust="spacing" textLength="86.4">void testSearchUsers()</text></g><g id="elem_Exception"><rect id="Exception" width="55.8" height="28.8" x="449.7" y="1123.208" fill="#F1F1F1" rx="1.5" ry="1.5" style="stroke:#181818;stroke-width:.3"/><ellipse cx="458.7" cy="1132.808" fill="#ADD1B2" rx="6.6" ry="6.6" style="stroke:#181818;stroke-width:.6"/><path fill="#000" d="M460.3594,1130.3332 Q460.4531,1130.202 460.5656,1130.1363 Q460.6781,1130.0707 460.8094,1130.0707 Q461.0344,1130.0707 461.175,1130.2301 Q461.3156,1130.3801 461.3156,1130.7457 L461.3156,1131.6176 Q461.3156,1131.9832 461.175,1132.1426 Q461.0344,1132.302 460.8094,1132.302 Q460.6031,1132.302 460.4813,1132.1801 Q460.3594,1132.0676 460.2938,1131.7582 Q460.2656,1131.5426 460.1531,1131.4301 Q459.9563,1131.2051 459.5906,1131.0738 Q459.225,1130.9426 458.85,1130.9426 Q458.3906,1130.9426 458.0062,1131.1395 Q457.6312,1131.3363 457.3313,1131.7863 Q457.0406,1132.2363 457.0406,1132.8551 L457.0406,1133.5113 Q457.0406,1134.252 457.575,1134.7488 Q458.1094,1135.2363 459.0656,1135.2363 Q459.6281,1135.2363 460.0219,1135.0863 Q460.2562,1134.9926 460.5094,1134.7301 Q460.6688,1134.5707 460.7531,1134.5238 Q460.8469,1134.477 460.9688,1134.477 Q461.1656,1134.477 461.3156,1134.6363 Q461.475,1134.7863 461.475,1134.9926 Q461.475,1135.1988 461.2687,1135.4426 Q460.9688,1135.7895 460.4906,1135.9863 Q459.8438,1136.2582 459.0656,1136.2582 Q458.1563,1136.2582 457.4344,1135.8832 Q456.8438,1135.5832 456.4313,1134.9457 Q456.0188,1134.2988 456.0188,1133.5301 L456.0188,1132.8363 Q456.0188,1132.0395 456.3844,1131.3551 Q456.7594,1130.6613 457.4156,1130.2957 Q458.0719,1129.9207 458.8125,1129.9207 Q459.2531,1129.9207 459.6375,1130.0238 Q460.0313,1130.1176 460.3594,1130.3332 Z"/><text x="467.1" y="1136.286" fill="#000" font-family="sans-serif" font-size="8.4" lengthAdjust="spacing" textLength="36.6">Exception</text><line style="stroke:#181818;stroke-width:.3" x1="450.3" x2="504.9" y1="1142.408" y2="1142.408"/><line style="stroke:#181818;stroke-width:.3" x1="450.3" x2="504.9" y1="1147.208" y2="1147.208"/></g><g id="elem_CrudRepository"><rect id="CrudRepository" width="78.6" height="28.8" x="91.8" y="959.408" fill="#F1F1F1" rx="1.5" ry="1.5" style="stroke:#181818;stroke-width:.3"/><ellipse cx="100.8" cy="969.008" fill="#ADD1B2" rx="6.6" ry="6.6" style="stroke:#181818;stroke-width:.6"/><path fill="#000" d="M102.4594,966.5332 Q102.5531,966.402 102.6656,966.3363 Q102.7781,966.2707 102.9094,966.2707 Q103.1344,966.2707 103.275,966.4301 Q103.4156,966.5801 103.4156,966.9457 L103.4156,967.8176 Q103.4156,968.1832 103.275,968.3426 Q103.1344,968.502 102.9094,968.502 Q102.7031,968.502 102.5813,968.3801 Q102.4594,968.2676 102.3938,967.9582 Q102.3656,967.7426 102.2531,967.6301 Q102.0562,967.4051 101.6906,967.2738 Q101.325,967.1426 100.95,967.1426 Q100.4906,967.1426 100.1063,967.3395 Q99.7313,967.5363 99.4312,967.9863 Q99.1406,968.4363 99.1406,969.0551 L99.1406,969.7113 Q99.1406,970.452 99.675,970.9488 Q100.2094,971.4363 101.1656,971.4363 Q101.7281,971.4363 102.1219,971.2863 Q102.3563,971.1926 102.6094,970.9301 Q102.7688,970.7707 102.8531,970.7238 Q102.9469,970.677 103.0688,970.677 Q103.2656,970.677 103.4156,970.8363 Q103.575,970.9863 103.575,971.1926 Q103.575,971.3988 103.3687,971.6426 Q103.0688,971.9895 102.5906,972.1863 Q101.9438,972.4582 101.1656,972.4582 Q100.2563,972.4582 99.5344,972.0832 Q98.9438,971.7832 98.5313,971.1457 Q98.1187,970.4988 98.1187,969.7301 L98.1187,969.0363 Q98.1187,968.2395 98.4844,967.5551 Q98.8594,966.8613 99.5156,966.4957 Q100.1719,966.1207 100.9125,966.1207 Q101.3531,966.1207 101.7375,966.2238 Q102.1313,966.3176 102.4594,966.5332 Z"/><text x="109.2" y="972.486" fill="#000" font-family="sans-serif" font-size="8.4" lengthAdjust="spacing" textLength="59.4">CrudRepository</text><line style="stroke:#181818;stroke-width:.3" x1="92.4" x2="169.8" y1="978.608" y2="978.608"/><line style="stroke:#181818;stroke-width:.3" x1="92.4" x2="169.8" y1="983.408" y2="983.408"/></g><g id="elem_PagingAndSortingRepository"><rect id="PagingAndSortingRepository" width="128.4" height="28.8" x="66.9" y="1009.208" fill="#F1F1F1" rx="1.5" ry="1.5" style="stroke:#181818;stroke-width:.3"/><ellipse cx="75.9" cy="1018.808" fill="#ADD1B2" rx="6.6" ry="6.6" style="stroke:#181818;stroke-width:.6"/><path fill="#000" d="M77.5594,1016.3332 Q77.6531,1016.202 77.7656,1016.1363 Q77.8781,1016.0707 78.0094,1016.0707 Q78.2344,1016.0707 78.375,1016.2301 Q78.5156,1016.3801 78.5156,1016.7457 L78.5156,1017.6176 Q78.5156,1017.9832 78.375,1018.1426 Q78.2344,1018.302 78.0094,1018.302 Q77.8031,1018.302 77.6812,1018.1801 Q77.5594,1018.0676 77.4937,1017.7582 Q77.4656,1017.5426 77.3531,1017.4301 Q77.1563,1017.2051 76.7906,1017.0738 Q76.425,1016.9426 76.05,1016.9426 Q75.5906,1016.9426 75.2063,1017.1395 Q74.8313,1017.3363 74.5313,1017.7863 Q74.2406,1018.2363 74.2406,1018.8551 L74.2406,1019.5113 Q74.2406,1020.252 74.775,1020.7488 Q75.3094,1021.2363 76.2656,1021.2363 Q76.8281,1021.2363 77.2219,1021.0863 Q77.4563,1020.9926 77.7094,1020.7301 Q77.8687,1020.5707 77.9531,1020.5238 Q78.0469,1020.477 78.1688,1020.477 Q78.3656,1020.477 78.5156,1020.6363 Q78.675,1020.7863 78.675,1020.9926 Q78.675,1021.1988 78.4688,1021.4426 Q78.1688,1021.7895 77.6906,1021.9863 Q77.0438,1022.2582 76.2656,1022.2582 Q75.3563,1022.2582 74.6344,1021.8832 Q74.0438,1021.5832 73.6313,1020.9457 Q73.2188,1020.2988 73.2188,1019.5301 L73.2188,1018.8363 Q73.2188,1018.0395 73.5844,1017.3551 Q73.9594,1016.6613 74.6156,1016.2957 Q75.2719,1015.9207 76.0125,1015.9207 Q76.4531,1015.9207 76.8375,1016.0238 Q77.2313,1016.1176 77.5594,1016.3332 Z"/><text x="84.3" y="1022.286" fill="#000" font-family="sans-serif" font-size="8.4" lengthAdjust="spacing" textLength="109.2">PagingAndSortingRepository</text><line style="stroke:#181818;stroke-width:.3" x1="67.5" x2="194.7" y1="1028.408" y2="1028.408"/><line style="stroke:#181818;stroke-width:.3" x1="67.5" x2="194.7" y1="1033.208" y2="1033.208"/></g><g id="elem_WebMvcConfigurer"><rect id="WebMvcConfigurer" width="91.8" height="28.8" x="85.2" y="1179.608" fill="#F1F1F1" rx="1.5" ry="1.5" style="stroke:#181818;stroke-width:.3"/><ellipse cx="94.2" cy="1189.208" fill="#ADD1B2" rx="6.6" ry="6.6" style="stroke:#181818;stroke-width:.6"/><path fill="#000" d="M95.8594,1186.7332 Q95.9531,1186.602 96.0656,1186.5363 Q96.1781,1186.4707 96.3094,1186.4707 Q96.5344,1186.4707 96.675,1186.6301 Q96.8156,1186.7801 96.8156,1187.1457 L96.8156,1188.0176 Q96.8156,1188.3832 96.675,1188.5426 Q96.5344,1188.702 96.3094,1188.702 Q96.1031,1188.702 95.9813,1188.5801 Q95.8594,1188.4676 95.7938,1188.1582 Q95.7656,1187.9426 95.6531,1187.8301 Q95.4563,1187.6051 95.0906,1187.4738 Q94.725,1187.3426 94.35,1187.3426 Q93.8906,1187.3426 93.5063,1187.5395 Q93.1313,1187.7363 92.8313,1188.1863 Q92.5406,1188.6363 92.5406,1189.2551 L92.5406,1189.9113 Q92.5406,1190.652 93.075,1191.1488 Q93.6094,1191.6363 94.5656,1191.6363 Q95.1281,1191.6363 95.5219,1191.4863 Q95.7563,1191.3926 96.0094,1191.1301 Q96.1688,1190.9707 96.2531,1190.9238 Q96.3469,1190.877 96.4688,1190.877 Q96.6656,1190.877 96.8156,1191.0363 Q96.975,1191.1863 96.975,1191.3926 Q96.975,1191.5988 96.7688,1191.8426 Q96.4688,1192.1895 95.9906,1192.3863 Q95.3438,1192.6582 94.5656,1192.6582 Q93.6563,1192.6582 92.9344,1192.2832 Q92.3438,1191.9832 91.9312,1191.3457 Q91.5188,1190.6988 91.5188,1189.9301 L91.5188,1189.2363 Q91.5188,1188.4395 91.8844,1187.7551 Q92.2594,1187.0613 92.9156,1186.6957 Q93.5719,1186.3207 94.3125,1186.3207 Q94.7531,1186.3207 95.1375,1186.4238 Q95.5313,1186.5176 95.8594,1186.7332 Z"/><text x="102.6" y="1192.686" fill="#000" font-family="sans-serif" font-size="8.4" lengthAdjust="spacing" textLength="72.6">WebMvcConfigurer</text><line style="stroke:#181818;stroke-width:.3" x1="85.8" x2="176.4" y1="1198.808" y2="1198.808"/><line style="stroke:#181818;stroke-width:.3" x1="85.8" x2="176.4" y1="1203.608" y2="1203.608"/></g><g id="elem_UserDetailsService"><rect id="UserDetailsService" width="90.6" height="28.8" x="85.8" y="778.808" fill="#F1F1F1" rx="1.5" ry="1.5" style="stroke:#181818;stroke-width:.3"/><ellipse cx="94.8" cy="788.408" fill="#ADD1B2" rx="6.6" ry="6.6" style="stroke:#181818;stroke-width:.6"/><path fill="#000" d="M96.4594,785.9332 Q96.5531,785.802 96.6656,785.7363 Q96.7781,785.6707 96.9094,785.6707 Q97.1344,785.6707 97.275,785.8301 Q97.4156,785.9801 97.4156,786.3457 L97.4156,787.2176 Q97.4156,787.5832 97.275,787.7426 Q97.1344,787.902 96.9094,787.902 Q96.7031,787.902 96.5813,787.7801 Q96.4594,787.6676 96.3938,787.3582 Q96.3656,787.1426 96.2531,787.0301 Q96.0562,786.8051 95.6906,786.6738 Q95.325,786.5426 94.95,786.5426 Q94.4906,786.5426 94.1063,786.7395 Q93.7313,786.9363 93.4312,787.3863 Q93.1406,787.8363 93.1406,788.4551 L93.1406,789.1113 Q93.1406,789.852 93.675,790.3488 Q94.2094,790.8363 95.1656,790.8363 Q95.7281,790.8363 96.1219,790.6863 Q96.3563,790.5926 96.6094,790.3301 Q96.7688,790.1707 96.8531,790.1238 Q96.9469,790.077 97.0688,790.077 Q97.2656,790.077 97.4156,790.2363 Q97.575,790.3863 97.575,790.5926 Q97.575,790.7988 97.3687,791.0426 Q97.0688,791.3895 96.5906,791.5863 Q95.9438,791.8582 95.1656,791.8582 Q94.2563,791.8582 93.5344,791.4832 Q92.9438,791.1832 92.5313,790.5457 Q92.1187,789.8988 92.1187,789.1301 L92.1187,788.4363 Q92.1187,787.6395 92.4844,786.9551 Q92.8594,786.2613 93.5156,785.8957 Q94.1719,785.5207 94.9125,785.5207 Q95.3531,785.5207 95.7375,785.6238 Q96.1313,785.7176 96.4594,785.9332 Z"/><text x="103.2" y="791.886" fill="#000" font-family="sans-serif" font-size="8.4" lengthAdjust="spacing" textLength="71.4">UserDetailsService</text><line style="stroke:#181818;stroke-width:.3" x1="86.4" x2="175.8" y1="798.008" y2="798.008"/><line style="stroke:#181818;stroke-width:.3" x1="86.4" x2="175.8" y1="802.808" y2="802.808"/></g><g id="elem_UserDetails"><rect id="UserDetails" width="62.4" height="28.8" x="99.9" y="828.608" fill="#F1F1F1" rx="1.5" ry="1.5" style="stroke:#181818;stroke-width:.3"/><ellipse cx="108.9" cy="838.208" fill="#ADD1B2" rx="6.6" ry="6.6" style="stroke:#181818;stroke-width:.6"/><path fill="#000" d="M110.5594,835.7332 Q110.6531,835.602 110.7656,835.5363 Q110.8781,835.4707 111.0094,835.4707 Q111.2344,835.4707 111.375,835.6301 Q111.5156,835.7801 111.5156,836.1457 L111.5156,837.0176 Q111.5156,837.3832 111.375,837.5426 Q111.2344,837.702 111.0094,837.702 Q110.8031,837.702 110.6812,837.5801 Q110.5594,837.4676 110.4937,837.1582 Q110.4656,836.9426 110.3531,836.8301 Q110.1563,836.6051 109.7906,836.4738 Q109.425,836.3426 109.05,836.3426 Q108.5906,836.3426 108.2063,836.5395 Q107.8313,836.7363 107.5313,837.1863 Q107.2406,837.6363 107.2406,838.2551 L107.2406,838.9113 Q107.2406,839.652 107.775,840.1488 Q108.3094,840.6363 109.2656,840.6363 Q109.8281,840.6363 110.2219,840.4863 Q110.4563,840.3926 110.7094,840.1301 Q110.8687,839.9707 110.9531,839.9238 Q111.0469,839.877 111.1688,839.877 Q111.3656,839.877 111.5156,840.0363 Q111.675,840.1863 111.675,840.3926 Q111.675,840.5988 111.4688,840.8426 Q111.1688,841.1895 110.6906,841.3863 Q110.0438,841.6582 109.2656,841.6582 Q108.3563,841.6582 107.6344,841.2832 Q107.0438,840.9832 106.6313,840.3457 Q106.2188,839.6988 106.2188,838.9301 L106.2188,838.2363 Q106.2188,837.4395 106.5844,836.7551 Q106.9594,836.0613 107.6156,835.6957 Q108.2719,835.3207 109.0125,835.3207 Q109.4531,835.3207 109.8375,835.4238 Q110.2313,835.5176 110.5594,835.7332 Z"/><text x="117.3" y="841.686" fill="#000" font-family="sans-serif" font-size="8.4" lengthAdjust="spacing" textLength="43.2">UserDetails</text><line style="stroke:#181818;stroke-width:.3" x1="100.5" x2="161.7" y1="847.808" y2="847.808"/><line style="stroke:#181818;stroke-width:.3" x1="100.5" x2="161.7" y1="852.608" y2="852.608"/></g><g id="link_CrudRepository_RoleRepository"><path id="CrudRepository-backto-RoleRepository" fill="none" d="M181.2506,967.6789 C208.5626,964.3069 235.254,961.0222 268.2,957.0082 C327.822,949.7422 397.038,941.4082 438.894,936.3802" codeLine="156" style="stroke:#181818;stroke-width:.6"/><polygon fill="none" points="170.532 969.002 181.692 971.252 180.81 964.106 170.532 969.002" style="stroke:#181818;stroke-width:.6"/></g><g id="link_WebMvcConfigurer_MvcConfig"><path id="WebMvcConfigurer-backto-MvcConfig" fill="none" d="M151.3216,1216.5406 C173.4676,1241.2906 215.244,1283.2822 268.2,1306.8082 C298.752,1320.3802 334.05,1328.1682 366.834,1332.5662" codeLine="157" style="stroke:#181818;stroke-width:.6;stroke-dasharray:7,7"/><polygon fill="none" points="144.12 1208.492 148.639 1218.941 154.004 1214.14 144.12 1208.492" style="stroke:#181818;stroke-width:.6"/></g><g id="link_UserDetailsService_CuriositeesUserDetailsService"><path id="UserDetailsService-backto-CuriositeesUserDetailsService" fill="none" d="M135.086,768.0902 C145.22,694.1222 193.428,368.8582 268.2,301.2082 C301.344,271.2202 350.058,261.5902 392.1,259.7482" codeLine="158" style="stroke:#181818;stroke-width:.6;stroke-dasharray:7,7"/><polygon fill="none" points="133.62 778.79 138.653 768.579 131.519 767.601 133.62 778.79" style="stroke:#181818;stroke-width:.6"/></g><g id="link_AbstractExporter_UserCsvExporter"><path id="AbstractExporter-backto-UserCsvExporter" fill="none" d="M598.1358,1011.0623 C607.4838,1014.0923 606.378,1014.2362 615,1018.2082 C633.162,1026.5782 633.282,1035.9322 651,1045.2082 C658.764,1049.2702 667.158,1052.9542 675.63,1056.2422" codeLine="159" style="stroke:#181818;stroke-width:.6"/><polygon fill="none" points="587.862 1007.732 597.026 1014.487 599.246 1007.638 587.862 1007.732" style="stroke:#181818;stroke-width:.6"/></g><g id="link_AbstractExporter_UserPdfExporter"><path id="AbstractExporter-backto-UserPdfExporter" fill="none" d="M611.404,995.6991 C628.93,996.7671 635.934,997.1902 652.746,998.2102" codeLine="160" style="stroke:#181818;stroke-width:.6"/><polygon fill="none" points="600.624 995.042 611.185 999.292 611.623 992.106 600.624 995.042" style="stroke:#181818;stroke-width:.6"/></g><g id="link_AbstractExporter_UserExcelExporter"><path id="AbstractExporter-backto-UserExcelExporter" fill="none" d="M585.7965,964.8767 C599.2185,961.5047 602.28,960.4162 615,956.4082 C626.724,952.7122 638.88,948.4222 650.838,943.9162" codeLine="161" style="stroke:#181818;stroke-width:.6"/><polygon fill="none" points="575.322 967.508 586.674 968.368 584.919 961.385 575.322 967.508" style="stroke:#181818;stroke-width:.6"/></g><g id="link_UserDetails_CuriositeesUserDetails"><path id="UserDetails-backto-CuriositeesUserDetails" fill="none" d="M173.1892,847.7541 C203.9272,849.8421 239.244,846.6202 263.4,817.8082 C275.928,802.8622 257.568,483.1582 268.2,466.8082 C290.118,433.1122 327.126,411.0742 363.948,396.7282" codeLine="162" style="stroke:#181818;stroke-width:.6;stroke-dasharray:7,7"/><polygon fill="none" points="162.414 847.022 172.945 851.346 173.433 844.162 162.414 847.022" style="stroke:#181818;stroke-width:.6"/></g><g id="link_Exception_UserNotFoundException"><path id="Exception-backto-UserNotFoundException" fill="none" d="M516.54,1137.6082 C559.86,1137.6082 633.96,1137.6082 690.06,1137.6082" codeLine="163" style="stroke:#181818;stroke-width:.6"/><polygon fill="none" points="505.74 1137.608 516.54 1141.208 516.54 1134.008 505.74 1137.608" style="stroke:#181818;stroke-width:.6"/></g><g id="link_CrudRepository_UserRepository"><path id="CrudRepository-backto-UserRepository" fill="none" d="M181.1997,970.502 C210.4557,970.274 238.842,975.1222 263.4,998.4082 C269.97,1004.6362 261.75,1011.8542 268.2,1018.2082 C299.31,1048.8682 345.846,1061.3662 387.102,1065.9202" codeLine="164" style="stroke:#181818;stroke-width:.6"/><polygon fill="none" points="170.4 970.586 181.228 974.102 181.172 966.902 170.4 970.586" style="stroke:#181818;stroke-width:.6"/></g><g id="link_PagingAndSortingRepository_UserRepository"><path id="PagingAndSortingRepository-backto-UserRepository" fill="none" d="M206.159,1032.6639 C260.039,1039.2159 327.12,1047.3802 387.288,1054.6942" codeLine="165" style="stroke:#181818;stroke-width:.6"/><polygon fill="none" points="195.438 1031.36 205.725 1036.238 206.594 1029.09 195.438 1031.36" style="stroke:#181818;stroke-width:.6"/></g></g></svg>