<?xml version="1.0" encoding="us-ascii" standalone="no"?><svg xmlns="http://www.w3.org/2000/svg" xmlns:xlink="http://www.w3.org/1999/xlink" contentStyleType="text/css" height="522.6px" preserveAspectRatio="none" style="width:759px;height:522px;background:#FFFFFF;" version="1.1" viewBox="0 0 759 522" width="759.6px" zoomAndPan="magnify"><defs/><g><!--class Admin--><g id="elem_Admin"><rect codeLine="2" fill="#F1F1F1" height="73.4906" id="Admin" rx="1.5" ry="1.5" style="stroke:#181818;stroke-width:0.3;" width="99" x="96.3" y="153"/><ellipse cx="131.55" cy="162.6" fill="#ADD1B2" rx="6.6" ry="6.6" style="stroke:#181818;stroke-width:0.6;"/><path d="M130.8656,163.0781 L130.8656,164.5781 L133.4625,164.5781 L133.4625,164.025 Q133.4625,163.6594 133.6031,163.5 Q133.7531,163.3406 133.9781,163.3406 Q134.2031,163.3406 134.3438,163.5 Q134.4844,163.6594 134.4844,164.025 L134.4844,165.6 L129.6844,165.6 Q129.3094,165.6 129.15,165.4594 Q129,165.3188 129,165.0844 Q129,164.8594 129.1594,164.7188 Q129.3188,164.5781 129.6844,164.5781 L129.8438,164.5781 L129.8438,160.5844 L129.6844,160.5844 Q129.3094,160.5844 129.15,160.4438 Q129,160.3031 129,160.0688 Q129,159.8438 129.15,159.7031 Q129.3094,159.5625 129.6844,159.5625 L134.2594,159.5625 L134.2594,161.1188 Q134.2594,161.4844 134.1188,161.6437 Q133.9875,161.7938 133.7531,161.7938 Q133.5281,161.7938 133.3875,161.6437 Q133.2469,161.4844 133.2469,161.1188 L133.2469,160.5844 L130.8656,160.5844 L130.8656,162.0563 L131.7563,162.0563 Q131.7563,161.6625 131.8312,161.55 Q131.9906,161.3063 132.2719,161.3063 Q132.4969,161.3063 132.6375,161.4656 Q132.7781,161.6156 132.7781,161.9813 L132.7781,163.1625 Q132.7781,163.4906 132.7031,163.6031 Q132.5438,163.8375 132.2719,163.8375 Q131.9906,163.8375 131.8312,163.5938 Q131.7563,163.4813 131.7563,163.0781 L130.8656,163.0781 Z " fill="#000000"/><text fill="#000000" font-family="sans-serif" font-size="8.4" lengthAdjust="spacing" textLength="23.4" x="143.85" y="166.0781">Admin</text><line style="stroke:#181818;stroke-width:0.3;" x1="96.9" x2="194.7" y1="172.2" y2="172.2"/><ellipse cx="102.9" cy="181.0863" fill="none" rx="1.8" ry="1.8" style="stroke:#038048;stroke-width:0.6;"/><text fill="#000000" font-family="sans-serif" font-size="8.4" lengthAdjust="spacing" textLength="51" x="108.3" y="183.6645">AdminID : INT</text><text fill="#000000" font-family="sans-serif" font-size="8.4" lengthAdjust="spacing" textLength="68.4" x="108.3" y="194.8371">Name : VARCHAR</text><text fill="#000000" font-family="sans-serif" font-size="8.4" lengthAdjust="spacing" textLength="67.2" x="108.3" y="206.0098">Email : VARCHAR</text><text fill="#000000" font-family="sans-serif" font-size="8.4" lengthAdjust="spacing" textLength="83.4" x="108.3" y="217.1824">Password : VARCHAR</text><line style="stroke:#181818;stroke-width:0.3;" x1="96.9" x2="194.7" y1="221.6906" y2="221.6906"/></g><!--class Customer--><g id="elem_Customer"><rect codeLine="9" fill="#F1F1F1" height="84.6633" id="Customer" rx="1.5" ry="1.5" style="stroke:#181818;stroke-width:0.3;" width="116.4" x="507" y="4.2"/><ellipse cx="544.35" cy="13.8" fill="#ADD1B2" rx="6.6" ry="6.6" style="stroke:#181818;stroke-width:0.6;"/><path d="M543.6656,14.2781 L543.6656,15.7781 L546.2625,15.7781 L546.2625,15.225 Q546.2625,14.8594 546.4031,14.7 Q546.5531,14.5406 546.7781,14.5406 Q547.0031,14.5406 547.1438,14.7 Q547.2844,14.8594 547.2844,15.225 L547.2844,16.8 L542.4844,16.8 Q542.1094,16.8 541.95,16.6594 Q541.8,16.5188 541.8,16.2844 Q541.8,16.0594 541.9594,15.9188 Q542.1188,15.7781 542.4844,15.7781 L542.6438,15.7781 L542.6438,11.7844 L542.4844,11.7844 Q542.1094,11.7844 541.95,11.6437 Q541.8,11.5031 541.8,11.2687 Q541.8,11.0438 541.95,10.9031 Q542.1094,10.7625 542.4844,10.7625 L547.0594,10.7625 L547.0594,12.3188 Q547.0594,12.6844 546.9187,12.8438 Q546.7875,12.9938 546.5531,12.9938 Q546.3281,12.9938 546.1875,12.8438 Q546.0469,12.6844 546.0469,12.3188 L546.0469,11.7844 L543.6656,11.7844 L543.6656,13.2563 L544.5563,13.2563 Q544.5563,12.8625 544.6313,12.75 Q544.7906,12.5063 545.0719,12.5063 Q545.2969,12.5063 545.4375,12.6656 Q545.5781,12.8156 545.5781,13.1813 L545.5781,14.3625 Q545.5781,14.6906 545.5031,14.8031 Q545.3438,15.0375 545.0719,15.0375 Q544.7906,15.0375 544.6313,14.7938 Q544.5563,14.6812 544.5563,14.2781 L543.6656,14.2781 Z " fill="#000000"/><text fill="#000000" font-family="sans-serif" font-size="8.4" lengthAdjust="spacing" textLength="36.6" x="556.65" y="17.2781">Customer</text><line style="stroke:#181818;stroke-width:0.3;" x1="507.6" x2="622.8" y1="23.4" y2="23.4"/><ellipse cx="513.6" cy="32.2863" fill="none" rx="1.8" ry="1.8" style="stroke:#038048;stroke-width:0.6;"/><text fill="#000000" font-family="sans-serif" font-size="8.4" lengthAdjust="spacing" textLength="64.2" x="519" y="34.8645">CustomerID : INT</text><text fill="#000000" font-family="sans-serif" font-size="8.4" lengthAdjust="spacing" textLength="68.4" x="519" y="46.0371">Name : VARCHAR</text><text fill="#000000" font-family="sans-serif" font-size="8.4" lengthAdjust="spacing" textLength="67.2" x="519" y="57.2098">Email : VARCHAR</text><text fill="#000000" font-family="sans-serif" font-size="8.4" lengthAdjust="spacing" textLength="78" x="519" y="68.3824">Address : VARCHAR</text><text fill="#000000" font-family="sans-serif" font-size="8.4" lengthAdjust="spacing" textLength="100.8" x="519" y="79.5551">PhoneNumber : VARCHAR</text><line style="stroke:#181818;stroke-width:0.3;" x1="507.6" x2="622.8" y1="84.0633" y2="84.0633"/></g><!--class Product--><g id="elem_Product"><rect codeLine="17" fill="#F1F1F1" height="95.8359" id="Product" rx="1.5" ry="1.5" style="stroke:#181818;stroke-width:0.3;" width="105" x="203.7" y="290.4"/><ellipse cx="238.95" cy="300" fill="#ADD1B2" rx="6.6" ry="6.6" style="stroke:#181818;stroke-width:0.6;"/><path d="M238.2656,300.4781 L238.2656,301.9781 L240.8625,301.9781 L240.8625,301.425 Q240.8625,301.0594 241.0031,300.9 Q241.1531,300.7406 241.3781,300.7406 Q241.6031,300.7406 241.7437,300.9 Q241.8844,301.0594 241.8844,301.425 L241.8844,303 L237.0844,303 Q236.7094,303 236.55,302.8594 Q236.4,302.7188 236.4,302.4844 Q236.4,302.2594 236.5594,302.1188 Q236.7188,301.9781 237.0844,301.9781 L237.2437,301.9781 L237.2437,297.9844 L237.0844,297.9844 Q236.7094,297.9844 236.55,297.8438 Q236.4,297.7031 236.4,297.4688 Q236.4,297.2438 236.55,297.1031 Q236.7094,296.9625 237.0844,296.9625 L241.6594,296.9625 L241.6594,298.5188 Q241.6594,298.8844 241.5187,299.0438 Q241.3875,299.1937 241.1531,299.1937 Q240.9281,299.1937 240.7875,299.0438 Q240.6469,298.8844 240.6469,298.5188 L240.6469,297.9844 L238.2656,297.9844 L238.2656,299.4563 L239.1563,299.4563 Q239.1563,299.0625 239.2313,298.95 Q239.3906,298.7063 239.6719,298.7063 Q239.8969,298.7063 240.0375,298.8656 Q240.1781,299.0156 240.1781,299.3812 L240.1781,300.5625 Q240.1781,300.8906 240.1031,301.0031 Q239.9438,301.2375 239.6719,301.2375 Q239.3906,301.2375 239.2313,300.9938 Q239.1563,300.8812 239.1563,300.4781 L238.2656,300.4781 Z " fill="#000000"/><text fill="#000000" font-family="sans-serif" font-size="8.4" lengthAdjust="spacing" textLength="29.4" x="251.25" y="303.4781">Product</text><line style="stroke:#181818;stroke-width:0.3;" x1="204.3" x2="308.1" y1="309.6" y2="309.6"/><ellipse cx="210.3" cy="318.4863" fill="none" rx="1.8" ry="1.8" style="stroke:#038048;stroke-width:0.6;"/><text fill="#000000" font-family="sans-serif" font-size="8.4" lengthAdjust="spacing" textLength="57" x="215.7" y="321.0645">ProductID : INT</text><text fill="#000000" font-family="sans-serif" font-size="8.4" lengthAdjust="spacing" textLength="68.4" x="215.7" y="332.2371">Name : VARCHAR</text><text fill="#000000" font-family="sans-serif" font-size="8.4" lengthAdjust="spacing" textLength="89.4" x="215.7" y="343.4098">Description : VARCHAR</text><text fill="#000000" font-family="sans-serif" font-size="8.4" lengthAdjust="spacing" textLength="69.6" x="215.7" y="354.5824">Brand : VARCHAR</text><text fill="#000000" font-family="sans-serif" font-size="8.4" lengthAdjust="spacing" textLength="62.4" x="215.7" y="365.7551">Price : DECIMAL</text><text fill="#000000" font-family="sans-serif" font-size="8.4" lengthAdjust="spacing" textLength="61.2" x="215.7" y="376.9277">StockLevel : INT</text><line style="stroke:#181818;stroke-width:0.3;" x1="204.3" x2="308.1" y1="381.4359" y2="381.4359"/></g><!--class Category--><g id="elem_Category"><rect codeLine="26" fill="#F1F1F1" height="51.1453" id="Category" rx="1.5" ry="1.5" style="stroke:#181818;stroke-width:0.3;" width="84" x="4.2" y="450.6"/><ellipse cx="26.7" cy="460.2" fill="#ADD1B2" rx="6.6" ry="6.6" style="stroke:#181818;stroke-width:0.6;"/><path d="M26.0156,460.6781 L26.0156,462.1781 L28.6125,462.1781 L28.6125,461.625 Q28.6125,461.2594 28.7531,461.1 Q28.9031,460.9406 29.1281,460.9406 Q29.3531,460.9406 29.4938,461.1 Q29.6344,461.2594 29.6344,461.625 L29.6344,463.2 L24.8344,463.2 Q24.4594,463.2 24.3,463.0594 Q24.15,462.9188 24.15,462.6844 Q24.15,462.4594 24.3094,462.3187 Q24.4688,462.1781 24.8344,462.1781 L24.9938,462.1781 L24.9938,458.1844 L24.8344,458.1844 Q24.4594,458.1844 24.3,458.0438 Q24.15,457.9031 24.15,457.6688 Q24.15,457.4437 24.3,457.3031 Q24.4594,457.1625 24.8344,457.1625 L29.4094,457.1625 L29.4094,458.7188 Q29.4094,459.0844 29.2687,459.2438 Q29.1375,459.3938 28.9031,459.3938 Q28.6781,459.3938 28.5375,459.2438 Q28.3969,459.0844 28.3969,458.7188 L28.3969,458.1844 L26.0156,458.1844 L26.0156,459.6563 L26.9063,459.6563 Q26.9063,459.2625 26.9813,459.15 Q27.1406,458.9063 27.4219,458.9063 Q27.6469,458.9063 27.7875,459.0656 Q27.9281,459.2156 27.9281,459.5813 L27.9281,460.7625 Q27.9281,461.0906 27.8531,461.2031 Q27.6937,461.4375 27.4219,461.4375 Q27.1406,461.4375 26.9813,461.1937 Q26.9063,461.0812 26.9063,460.6781 L26.0156,460.6781 Z " fill="#000000"/><text fill="#000000" font-family="sans-serif" font-size="8.4" lengthAdjust="spacing" textLength="34.8" x="38.1" y="463.6781">Category</text><line style="stroke:#181818;stroke-width:0.3;" x1="4.8" x2="87.6" y1="469.8" y2="469.8"/><ellipse cx="10.8" cy="478.6863" fill="none" rx="1.8" ry="1.8" style="stroke:#038048;stroke-width:0.6;"/><text fill="#000000" font-family="sans-serif" font-size="8.4" lengthAdjust="spacing" textLength="62.4" x="16.2" y="481.2645">CategoryID : INT</text><text fill="#000000" font-family="sans-serif" font-size="8.4" lengthAdjust="spacing" textLength="68.4" x="16.2" y="492.4371">Name : VARCHAR</text><line style="stroke:#181818;stroke-width:0.3;" x1="4.8" x2="87.6" y1="496.9453" y2="496.9453"/></g><!--class Size--><g id="elem_Size"><rect codeLine="31" fill="#F1F1F1" height="51.1453" id="Size" rx="1.5" ry="1.5" style="stroke:#181818;stroke-width:0.3;" width="84" x="109.2" y="450.6"/><ellipse cx="140.85" cy="460.2" fill="#ADD1B2" rx="6.6" ry="6.6" style="stroke:#181818;stroke-width:0.6;"/><path d="M140.1656,460.6781 L140.1656,462.1781 L142.7625,462.1781 L142.7625,461.625 Q142.7625,461.2594 142.9031,461.1 Q143.0531,460.9406 143.2781,460.9406 Q143.5031,460.9406 143.6437,461.1 Q143.7844,461.2594 143.7844,461.625 L143.7844,463.2 L138.9844,463.2 Q138.6094,463.2 138.45,463.0594 Q138.3,462.9188 138.3,462.6844 Q138.3,462.4594 138.4594,462.3187 Q138.6188,462.1781 138.9844,462.1781 L139.1437,462.1781 L139.1437,458.1844 L138.9844,458.1844 Q138.6094,458.1844 138.45,458.0438 Q138.3,457.9031 138.3,457.6688 Q138.3,457.4437 138.45,457.3031 Q138.6094,457.1625 138.9844,457.1625 L143.5594,457.1625 L143.5594,458.7188 Q143.5594,459.0844 143.4188,459.2438 Q143.2875,459.3938 143.0531,459.3938 Q142.8281,459.3938 142.6875,459.2438 Q142.5469,459.0844 142.5469,458.7188 L142.5469,458.1844 L140.1656,458.1844 L140.1656,459.6563 L141.0563,459.6563 Q141.0563,459.2625 141.1313,459.15 Q141.2906,458.9063 141.5719,458.9063 Q141.7969,458.9063 141.9375,459.0656 Q142.0781,459.2156 142.0781,459.5813 L142.0781,460.7625 Q142.0781,461.0906 142.0031,461.2031 Q141.8438,461.4375 141.5719,461.4375 Q141.2906,461.4375 141.1313,461.1937 Q141.0563,461.0812 141.0563,460.6781 L140.1656,460.6781 Z " fill="#000000"/><text fill="#000000" font-family="sans-serif" font-size="8.4" lengthAdjust="spacing" textLength="15.6" x="153.15" y="463.6781">Size</text><line style="stroke:#181818;stroke-width:0.3;" x1="109.8" x2="192.6" y1="469.8" y2="469.8"/><ellipse cx="115.8" cy="478.6863" fill="none" rx="1.8" ry="1.8" style="stroke:#038048;stroke-width:0.6;"/><text fill="#000000" font-family="sans-serif" font-size="8.4" lengthAdjust="spacing" textLength="43.2" x="121.2" y="481.2645">SizeID : INT</text><text fill="#000000" font-family="sans-serif" font-size="8.4" lengthAdjust="spacing" textLength="68.4" x="121.2" y="492.4371">Name : VARCHAR</text><line style="stroke:#181818;stroke-width:0.3;" x1="109.8" x2="192.6" y1="496.9453" y2="496.9453"/></g><!--class Color--><g id="elem_Color"><rect codeLine="36" fill="#F1F1F1" height="51.1453" id="Color" rx="1.5" ry="1.5" style="stroke:#181818;stroke-width:0.3;" width="84" x="214.2" y="450.6"/><ellipse cx="243.45" cy="460.2" fill="#ADD1B2" rx="6.6" ry="6.6" style="stroke:#181818;stroke-width:0.6;"/><path d="M242.7656,460.6781 L242.7656,462.1781 L245.3625,462.1781 L245.3625,461.625 Q245.3625,461.2594 245.5031,461.1 Q245.6531,460.9406 245.8781,460.9406 Q246.1031,460.9406 246.2437,461.1 Q246.3844,461.2594 246.3844,461.625 L246.3844,463.2 L241.5844,463.2 Q241.2094,463.2 241.05,463.0594 Q240.9,462.9188 240.9,462.6844 Q240.9,462.4594 241.0594,462.3187 Q241.2188,462.1781 241.5844,462.1781 L241.7437,462.1781 L241.7437,458.1844 L241.5844,458.1844 Q241.2094,458.1844 241.05,458.0438 Q240.9,457.9031 240.9,457.6688 Q240.9,457.4437 241.05,457.3031 Q241.2094,457.1625 241.5844,457.1625 L246.1594,457.1625 L246.1594,458.7188 Q246.1594,459.0844 246.0187,459.2438 Q245.8875,459.3938 245.6531,459.3938 Q245.4281,459.3938 245.2875,459.2438 Q245.1469,459.0844 245.1469,458.7188 L245.1469,458.1844 L242.7656,458.1844 L242.7656,459.6563 L243.6563,459.6563 Q243.6563,459.2625 243.7313,459.15 Q243.8906,458.9063 244.1719,458.9063 Q244.3969,458.9063 244.5375,459.0656 Q244.6781,459.2156 244.6781,459.5813 L244.6781,460.7625 Q244.6781,461.0906 244.6031,461.2031 Q244.4438,461.4375 244.1719,461.4375 Q243.8906,461.4375 243.7313,461.1937 Q243.6563,461.0812 243.6563,460.6781 L242.7656,460.6781 Z " fill="#000000"/><text fill="#000000" font-family="sans-serif" font-size="8.4" lengthAdjust="spacing" textLength="20.4" x="255.75" y="463.6781">Color</text><line style="stroke:#181818;stroke-width:0.3;" x1="214.8" x2="297.6" y1="469.8" y2="469.8"/><ellipse cx="220.8" cy="478.6863" fill="none" rx="1.8" ry="1.8" style="stroke:#038048;stroke-width:0.6;"/><text fill="#000000" font-family="sans-serif" font-size="8.4" lengthAdjust="spacing" textLength="48" x="226.2" y="481.2645">ColorID : INT</text><text fill="#000000" font-family="sans-serif" font-size="8.4" lengthAdjust="spacing" textLength="68.4" x="226.2" y="492.4371">Name : VARCHAR</text><line style="stroke:#181818;stroke-width:0.3;" x1="214.8" x2="297.6" y1="496.9453" y2="496.9453"/></g><!--class Cart--><g id="elem_Cart"><rect codeLine="41" fill="#F1F1F1" height="73.4906" id="Cart" rx="1.5" ry="1.5" style="stroke:#181818;stroke-width:0.3;" width="79.8" x="216.3" y="153"/><ellipse cx="245.55" cy="162.6" fill="#ADD1B2" rx="6.6" ry="6.6" style="stroke:#181818;stroke-width:0.6;"/><path d="M244.8656,163.0781 L244.8656,164.5781 L247.4625,164.5781 L247.4625,164.025 Q247.4625,163.6594 247.6031,163.5 Q247.7531,163.3406 247.9781,163.3406 Q248.2031,163.3406 248.3438,163.5 Q248.4844,163.6594 248.4844,164.025 L248.4844,165.6 L243.6844,165.6 Q243.3094,165.6 243.15,165.4594 Q243,165.3188 243,165.0844 Q243,164.8594 243.1594,164.7188 Q243.3188,164.5781 243.6844,164.5781 L243.8438,164.5781 L243.8438,160.5844 L243.6844,160.5844 Q243.3094,160.5844 243.15,160.4438 Q243,160.3031 243,160.0688 Q243,159.8438 243.15,159.7031 Q243.3094,159.5625 243.6844,159.5625 L248.2594,159.5625 L248.2594,161.1188 Q248.2594,161.4844 248.1187,161.6437 Q247.9875,161.7938 247.7531,161.7938 Q247.5281,161.7938 247.3875,161.6437 Q247.2469,161.4844 247.2469,161.1188 L247.2469,160.5844 L244.8656,160.5844 L244.8656,162.0563 L245.7563,162.0563 Q245.7563,161.6625 245.8312,161.55 Q245.9906,161.3063 246.2719,161.3063 Q246.4969,161.3063 246.6375,161.4656 Q246.7781,161.6156 246.7781,161.9813 L246.7781,163.1625 Q246.7781,163.4906 246.7031,163.6031 Q246.5438,163.8375 246.2719,163.8375 Q245.9906,163.8375 245.8312,163.5938 Q245.7563,163.4813 245.7563,163.0781 L244.8656,163.0781 Z " fill="#000000"/><text fill="#000000" font-family="sans-serif" font-size="8.4" lengthAdjust="spacing" textLength="16.2" x="257.85" y="166.0781">Cart</text><line style="stroke:#181818;stroke-width:0.3;" x1="216.9" x2="295.5" y1="172.2" y2="172.2"/><ellipse cx="222.9" cy="181.0863" fill="none" rx="1.8" ry="1.8" style="stroke:#038048;stroke-width:0.6;"/><text fill="#000000" font-family="sans-serif" font-size="8.4" lengthAdjust="spacing" textLength="43.8" x="228.3" y="183.6645">CartID : INT</text><text fill="#000000" font-family="sans-serif" font-size="8.4" lengthAdjust="spacing" textLength="64.2" x="228.3" y="194.8371">CustomerID : INT</text><text fill="#000000" font-family="sans-serif" font-size="8.4" lengthAdjust="spacing" textLength="57" x="228.3" y="206.0098">ProductID : INT</text><text fill="#000000" font-family="sans-serif" font-size="8.4" lengthAdjust="spacing" textLength="51.6" x="228.3" y="217.1824">Quantity : INT</text><line style="stroke:#181818;stroke-width:0.3;" x1="216.9" x2="295.5" y1="221.6906" y2="221.6906"/></g><!--class Order--><g id="elem_Order"><rect codeLine="48" fill="#F1F1F1" height="73.4906" id="Order" rx="1.5" ry="1.5" style="stroke:#181818;stroke-width:0.3;" width="86.4" x="534.6" y="301.8"/><ellipse cx="564.15" cy="311.4" fill="#ADD1B2" rx="6.6" ry="6.6" style="stroke:#181818;stroke-width:0.6;"/><path d="M563.4656,311.8781 L563.4656,313.3781 L566.0625,313.3781 L566.0625,312.825 Q566.0625,312.4594 566.2031,312.3 Q566.3531,312.1406 566.5781,312.1406 Q566.8031,312.1406 566.9438,312.3 Q567.0844,312.4594 567.0844,312.825 L567.0844,314.4 L562.2844,314.4 Q561.9094,314.4 561.75,314.2594 Q561.6,314.1188 561.6,313.8844 Q561.6,313.6594 561.7594,313.5188 Q561.9187,313.3781 562.2844,313.3781 L562.4438,313.3781 L562.4438,309.3844 L562.2844,309.3844 Q561.9094,309.3844 561.75,309.2438 Q561.6,309.1031 561.6,308.8688 Q561.6,308.6438 561.75,308.5031 Q561.9094,308.3625 562.2844,308.3625 L566.8594,308.3625 L566.8594,309.9188 Q566.8594,310.2844 566.7188,310.4437 Q566.5875,310.5938 566.3531,310.5938 Q566.1281,310.5938 565.9875,310.4437 Q565.8469,310.2844 565.8469,309.9188 L565.8469,309.3844 L563.4656,309.3844 L563.4656,310.8563 L564.3562,310.8563 Q564.3562,310.4625 564.4313,310.35 Q564.5906,310.1063 564.8719,310.1063 Q565.0969,310.1063 565.2375,310.2656 Q565.3781,310.4156 565.3781,310.7813 L565.3781,311.9625 Q565.3781,312.2906 565.3031,312.4031 Q565.1438,312.6375 564.8719,312.6375 Q564.5906,312.6375 564.4313,312.3938 Q564.3562,312.2813 564.3562,311.8781 L563.4656,311.8781 Z " fill="#000000"/><text fill="#000000" font-family="sans-serif" font-size="8.4" lengthAdjust="spacing" textLength="22.2" x="576.45" y="314.8781">Order</text><line style="stroke:#181818;stroke-width:0.3;" x1="535.2" x2="620.4" y1="321" y2="321"/><ellipse cx="541.2" cy="329.8863" fill="none" rx="1.8" ry="1.8" style="stroke:#038048;stroke-width:0.6;"/><text fill="#000000" font-family="sans-serif" font-size="8.4" lengthAdjust="spacing" textLength="49.8" x="546.6" y="332.4645">OrderID : INT</text><text fill="#000000" font-family="sans-serif" font-size="8.4" lengthAdjust="spacing" textLength="69.6" x="546.6" y="343.6371">OrderDate : DATE</text><text fill="#000000" font-family="sans-serif" font-size="8.4" lengthAdjust="spacing" textLength="64.2" x="546.6" y="354.8098">CustomerID : INT</text><text fill="#000000" font-family="sans-serif" font-size="8.4" lengthAdjust="spacing" textLength="70.8" x="546.6" y="365.9824">Status : VARCHAR</text><line style="stroke:#181818;stroke-width:0.3;" x1="535.2" x2="620.4" y1="370.4906" y2="370.4906"/></g><!--class Payment--><g id="elem_Payment"><rect codeLine="55" fill="#F1F1F1" height="73.4906" id="Payment" rx="1.5" ry="1.5" style="stroke:#181818;stroke-width:0.3;" width="96" x="439.8" y="153"/><ellipse cx="468.75" cy="162.6" fill="#ADD1B2" rx="6.6" ry="6.6" style="stroke:#181818;stroke-width:0.6;"/><path d="M468.0656,163.0781 L468.0656,164.5781 L470.6625,164.5781 L470.6625,164.025 Q470.6625,163.6594 470.8031,163.5 Q470.9531,163.3406 471.1781,163.3406 Q471.4031,163.3406 471.5438,163.5 Q471.6844,163.6594 471.6844,164.025 L471.6844,165.6 L466.8844,165.6 Q466.5094,165.6 466.35,165.4594 Q466.2,165.3188 466.2,165.0844 Q466.2,164.8594 466.3594,164.7188 Q466.5187,164.5781 466.8844,164.5781 L467.0438,164.5781 L467.0438,160.5844 L466.8844,160.5844 Q466.5094,160.5844 466.35,160.4438 Q466.2,160.3031 466.2,160.0688 Q466.2,159.8438 466.35,159.7031 Q466.5094,159.5625 466.8844,159.5625 L471.4594,159.5625 L471.4594,161.1188 Q471.4594,161.4844 471.3187,161.6437 Q471.1875,161.7938 470.9531,161.7938 Q470.7281,161.7938 470.5875,161.6437 Q470.4469,161.4844 470.4469,161.1188 L470.4469,160.5844 L468.0656,160.5844 L468.0656,162.0563 L468.9562,162.0563 Q468.9562,161.6625 469.0313,161.55 Q469.1906,161.3063 469.4719,161.3063 Q469.6969,161.3063 469.8375,161.4656 Q469.9781,161.6156 469.9781,161.9813 L469.9781,163.1625 Q469.9781,163.4906 469.9031,163.6031 Q469.7438,163.8375 469.4719,163.8375 Q469.1906,163.8375 469.0313,163.5938 Q468.9562,163.4813 468.9562,163.0781 L468.0656,163.0781 Z " fill="#000000"/><text fill="#000000" font-family="sans-serif" font-size="8.4" lengthAdjust="spacing" textLength="33" x="481.05" y="166.0781">Payment</text><line style="stroke:#181818;stroke-width:0.3;" x1="440.4" x2="535.2" y1="172.2" y2="172.2"/><ellipse cx="446.4" cy="181.0863" fill="none" rx="1.8" ry="1.8" style="stroke:#038048;stroke-width:0.6;"/><text fill="#000000" font-family="sans-serif" font-size="8.4" lengthAdjust="spacing" textLength="60.6" x="451.8" y="183.6645">PaymentID : INT</text><text fill="#000000" font-family="sans-serif" font-size="8.4" lengthAdjust="spacing" textLength="49.8" x="451.8" y="194.8371">OrderID : INT</text><text fill="#000000" font-family="sans-serif" font-size="8.4" lengthAdjust="spacing" textLength="72" x="451.8" y="206.0098">Amount : DECIMAL</text><text fill="#000000" font-family="sans-serif" font-size="8.4" lengthAdjust="spacing" textLength="80.4" x="451.8" y="217.1824">PaymentDate : DATE</text><line style="stroke:#181818;stroke-width:0.3;" x1="440.4" x2="535.2" y1="221.6906" y2="221.6906"/></g><!--class Delivery_Address--><g id="elem_Delivery_Address"><rect codeLine="62" fill="#F1F1F1" height="62.318" id="Delivery_Address" rx="1.5" ry="1.5" style="stroke:#181818;stroke-width:0.3;" width="93.6" x="622.8" y="158.4"/><ellipse cx="635.31" cy="168" fill="#ADD1B2" rx="6.6" ry="6.6" style="stroke:#181818;stroke-width:0.6;"/><path d="M634.6256,168.4781 L634.6256,169.9781 L637.2225,169.9781 L637.2225,169.425 Q637.2225,169.0594 637.3631,168.9 Q637.5131,168.7406 637.7381,168.7406 Q637.9631,168.7406 638.1037,168.9 Q638.2444,169.0594 638.2444,169.425 L638.2444,171 L633.4444,171 Q633.0694,171 632.91,170.8594 Q632.76,170.7188 632.76,170.4844 Q632.76,170.2594 632.9194,170.1188 Q633.0787,169.9781 633.4444,169.9781 L633.6037,169.9781 L633.6037,165.9844 L633.4444,165.9844 Q633.0694,165.9844 632.91,165.8438 Q632.76,165.7031 632.76,165.4688 Q632.76,165.2438 632.91,165.1031 Q633.0694,164.9625 633.4444,164.9625 L638.0194,164.9625 L638.0194,166.5187 Q638.0194,166.8844 637.8788,167.0438 Q637.7475,167.1938 637.5131,167.1938 Q637.2881,167.1938 637.1475,167.0438 Q637.0069,166.8844 637.0069,166.5187 L637.0069,165.9844 L634.6256,165.9844 L634.6256,167.4562 L635.5162,167.4562 Q635.5162,167.0625 635.5913,166.95 Q635.7506,166.7062 636.0319,166.7062 Q636.2569,166.7062 636.3975,166.8656 Q636.5381,167.0156 636.5381,167.3813 L636.5381,168.5625 Q636.5381,168.8906 636.4631,169.0031 Q636.3037,169.2375 636.0319,169.2375 Q635.7506,169.2375 635.5913,168.9938 Q635.5162,168.8813 635.5162,168.4781 L634.6256,168.4781 Z " fill="#000000"/><text fill="#000000" font-family="sans-serif" font-size="8.4" lengthAdjust="spacing" textLength="66.6" x="644.49" y="171.4781">Delivery_Address</text><line style="stroke:#181818;stroke-width:0.3;" x1="623.4" x2="715.8" y1="177.6" y2="177.6"/><ellipse cx="629.4" cy="186.4863" fill="none" rx="1.8" ry="1.8" style="stroke:#038048;stroke-width:0.6;"/><text fill="#000000" font-family="sans-serif" font-size="8.4" lengthAdjust="spacing" textLength="58.8" x="634.8" y="189.0645">AddressID : INT</text><text fill="#000000" font-family="sans-serif" font-size="8.4" lengthAdjust="spacing" textLength="64.2" x="634.8" y="200.2371">CustomerID : INT</text><text fill="#000000" font-family="sans-serif" font-size="8.4" lengthAdjust="spacing" textLength="78" x="634.8" y="211.4098">Address : VARCHAR</text><line style="stroke:#181818;stroke-width:0.3;" x1="623.4" x2="715.8" y1="215.918" y2="215.918"/></g><!--class Shipping--><g id="elem_Shipping"><rect codeLine="68" fill="#F1F1F1" height="73.4906" id="Shipping" rx="1.5" ry="1.5" style="stroke:#181818;stroke-width:0.3;" width="96" x="658.8" y="9.9"/><ellipse cx="687.75" cy="19.5" fill="#ADD1B2" rx="6.6" ry="6.6" style="stroke:#181818;stroke-width:0.6;"/><path d="M687.0656,19.9781 L687.0656,21.4781 L689.6625,21.4781 L689.6625,20.925 Q689.6625,20.5594 689.8031,20.4 Q689.9531,20.2406 690.1781,20.2406 Q690.4031,20.2406 690.5437,20.4 Q690.6844,20.5594 690.6844,20.925 L690.6844,22.5 L685.8844,22.5 Q685.5094,22.5 685.35,22.3594 Q685.2,22.2188 685.2,21.9844 Q685.2,21.7594 685.3594,21.6188 Q685.5188,21.4781 685.8844,21.4781 L686.0437,21.4781 L686.0437,17.4844 L685.8844,17.4844 Q685.5094,17.4844 685.35,17.3438 Q685.2,17.2031 685.2,16.9688 Q685.2,16.7438 685.35,16.6031 Q685.5094,16.4625 685.8844,16.4625 L690.4594,16.4625 L690.4594,18.0188 Q690.4594,18.3844 690.3188,18.5438 Q690.1875,18.6937 689.9531,18.6937 Q689.7281,18.6937 689.5875,18.5438 Q689.4469,18.3844 689.4469,18.0188 L689.4469,17.4844 L687.0656,17.4844 L687.0656,18.9563 L687.9563,18.9563 Q687.9563,18.5625 688.0313,18.45 Q688.1906,18.2063 688.4719,18.2063 Q688.6969,18.2063 688.8375,18.3656 Q688.9781,18.5156 688.9781,18.8812 L688.9781,20.0625 Q688.9781,20.3906 688.9031,20.5031 Q688.7438,20.7375 688.4719,20.7375 Q688.1906,20.7375 688.0313,20.4938 Q687.9563,20.3812 687.9563,19.9781 L687.0656,19.9781 Z " fill="#000000"/><text fill="#000000" font-family="sans-serif" font-size="8.4" lengthAdjust="spacing" textLength="33" x="700.05" y="22.9781">Shipping</text><line style="stroke:#181818;stroke-width:0.3;" x1="659.4" x2="754.2" y1="29.1" y2="29.1"/><ellipse cx="665.4" cy="37.9863" fill="none" rx="1.8" ry="1.8" style="stroke:#038048;stroke-width:0.6;"/><text fill="#000000" font-family="sans-serif" font-size="8.4" lengthAdjust="spacing" textLength="60.6" x="670.8" y="40.5645">ShippingID : INT</text><text fill="#000000" font-family="sans-serif" font-size="8.4" lengthAdjust="spacing" textLength="49.8" x="670.8" y="51.7371">OrderID : INT</text><text fill="#000000" font-family="sans-serif" font-size="8.4" lengthAdjust="spacing" textLength="58.8" x="670.8" y="62.9098">AddressID : INT</text><text fill="#000000" font-family="sans-serif" font-size="8.4" lengthAdjust="spacing" textLength="80.4" x="670.8" y="74.0824">ShippingDate : DATE</text><line style="stroke:#181818;stroke-width:0.3;" x1="659.4" x2="754.2" y1="78.5906" y2="78.5906"/></g><!--class Review--><g id="elem_Review"><rect codeLine="75" fill="#F1F1F1" height="84.6633" id="Review" rx="1.5" ry="1.5" style="stroke:#181818;stroke-width:0.3;" width="98.4" x="319.2" y="433.8"/><ellipse cx="352.35" cy="443.4" fill="#ADD1B2" rx="6.6" ry="6.6" style="stroke:#181818;stroke-width:0.6;"/><path d="M351.6656,443.8781 L351.6656,445.3781 L354.2625,445.3781 L354.2625,444.825 Q354.2625,444.4594 354.4031,444.3 Q354.5531,444.1406 354.7781,444.1406 Q355.0031,444.1406 355.1438,444.3 Q355.2844,444.4594 355.2844,444.825 L355.2844,446.4 L350.4844,446.4 Q350.1094,446.4 349.95,446.2594 Q349.8,446.1188 349.8,445.8844 Q349.8,445.6594 349.9594,445.5188 Q350.1188,445.3781 350.4844,445.3781 L350.6438,445.3781 L350.6438,441.3844 L350.4844,441.3844 Q350.1094,441.3844 349.95,441.2438 Q349.8,441.1031 349.8,440.8688 Q349.8,440.6438 349.95,440.5031 Q350.1094,440.3625 350.4844,440.3625 L355.0594,440.3625 L355.0594,441.9188 Q355.0594,442.2844 354.9188,442.4437 Q354.7875,442.5938 354.5531,442.5938 Q354.3281,442.5938 354.1875,442.4437 Q354.0469,442.2844 354.0469,441.9188 L354.0469,441.3844 L351.6656,441.3844 L351.6656,442.8563 L352.5563,442.8563 Q352.5563,442.4625 352.6312,442.35 Q352.7906,442.1063 353.0719,442.1063 Q353.2969,442.1063 353.4375,442.2656 Q353.5781,442.4156 353.5781,442.7813 L353.5781,443.9625 Q353.5781,444.2906 353.5031,444.4031 Q353.3438,444.6375 353.0719,444.6375 Q352.7906,444.6375 352.6312,444.3938 Q352.5563,444.2813 352.5563,443.8781 L351.6656,443.8781 Z " fill="#000000"/><text fill="#000000" font-family="sans-serif" font-size="8.4" lengthAdjust="spacing" textLength="27" x="364.65" y="446.8781">Review</text><line style="stroke:#181818;stroke-width:0.3;" x1="319.8" x2="417" y1="453" y2="453"/><ellipse cx="325.8" cy="461.8863" fill="none" rx="1.8" ry="1.8" style="stroke:#038048;stroke-width:0.6;"/><text fill="#000000" font-family="sans-serif" font-size="8.4" lengthAdjust="spacing" textLength="54.6" x="331.2" y="464.4645">ReviewID : INT</text><text fill="#000000" font-family="sans-serif" font-size="8.4" lengthAdjust="spacing" textLength="57" x="331.2" y="475.6371">ProductID : INT</text><text fill="#000000" font-family="sans-serif" font-size="8.4" lengthAdjust="spacing" textLength="64.2" x="331.2" y="486.8098">CustomerID : INT</text><text fill="#000000" font-family="sans-serif" font-size="8.4" lengthAdjust="spacing" textLength="44.4" x="331.2" y="497.9824">Rating : INT</text><text fill="#000000" font-family="sans-serif" font-size="8.4" lengthAdjust="spacing" textLength="82.8" x="331.2" y="509.1551">Comment : VARCHAR</text><line style="stroke:#181818;stroke-width:0.3;" x1="319.8" x2="417" y1="513.6633" y2="513.6633"/></g><!--class Brand--><g id="elem_Brand"><rect codeLine="83" fill="#F1F1F1" height="51.1453" id="Brand" rx="1.5" ry="1.5" style="stroke:#181818;stroke-width:0.3;" width="84" x="438.6" y="450.6"/><ellipse cx="466.65" cy="460.2" fill="#ADD1B2" rx="6.6" ry="6.6" style="stroke:#181818;stroke-width:0.6;"/><path d="M465.9656,460.6781 L465.9656,462.1781 L468.5625,462.1781 L468.5625,461.625 Q468.5625,461.2594 468.7031,461.1 Q468.8531,460.9406 469.0781,460.9406 Q469.3031,460.9406 469.4437,461.1 Q469.5844,461.2594 469.5844,461.625 L469.5844,463.2 L464.7844,463.2 Q464.4094,463.2 464.25,463.0594 Q464.1,462.9188 464.1,462.6844 Q464.1,462.4594 464.2594,462.3187 Q464.4188,462.1781 464.7844,462.1781 L464.9437,462.1781 L464.9437,458.1844 L464.7844,458.1844 Q464.4094,458.1844 464.25,458.0438 Q464.1,457.9031 464.1,457.6688 Q464.1,457.4437 464.25,457.3031 Q464.4094,457.1625 464.7844,457.1625 L469.3594,457.1625 L469.3594,458.7188 Q469.3594,459.0844 469.2188,459.2438 Q469.0875,459.3938 468.8531,459.3938 Q468.6281,459.3938 468.4875,459.2438 Q468.3469,459.0844 468.3469,458.7188 L468.3469,458.1844 L465.9656,458.1844 L465.9656,459.6563 L466.8563,459.6563 Q466.8563,459.2625 466.9313,459.15 Q467.0906,458.9063 467.3719,458.9063 Q467.5969,458.9063 467.7375,459.0656 Q467.8781,459.2156 467.8781,459.5813 L467.8781,460.7625 Q467.8781,461.0906 467.8031,461.2031 Q467.6437,461.4375 467.3719,461.4375 Q467.0906,461.4375 466.9313,461.1937 Q466.8563,461.0812 466.8563,460.6781 L465.9656,460.6781 Z " fill="#000000"/><text fill="#000000" font-family="sans-serif" font-size="8.4" lengthAdjust="spacing" textLength="22.8" x="478.95" y="463.6781">Brand</text><line style="stroke:#181818;stroke-width:0.3;" x1="439.2" x2="522" y1="469.8" y2="469.8"/><ellipse cx="445.2" cy="478.6863" fill="none" rx="1.8" ry="1.8" style="stroke:#038048;stroke-width:0.6;"/><text fill="#000000" font-family="sans-serif" font-size="8.4" lengthAdjust="spacing" textLength="50.4" x="450.6" y="481.2645">BrandID : INT</text><text fill="#000000" font-family="sans-serif" font-size="8.4" lengthAdjust="spacing" textLength="68.4" x="450.6" y="492.4371">Name : VARCHAR</text><line style="stroke:#181818;stroke-width:0.3;" x1="439.2" x2="522" y1="496.9453" y2="496.9453"/></g><!--class Vendor--><g id="elem_Vendor"><rect codeLine="88" fill="#F1F1F1" height="107.0086" id="Vendor" rx="1.5" ry="1.5" style="stroke:#181818;stroke-width:0.3;" width="101.4" x="317.1" y="136.2"/><ellipse cx="351.45" cy="145.8" fill="#ADD1B2" rx="6.6" ry="6.6" style="stroke:#181818;stroke-width:0.6;"/><path d="M350.7656,146.2781 L350.7656,147.7781 L353.3625,147.7781 L353.3625,147.225 Q353.3625,146.8594 353.5031,146.7 Q353.6531,146.5406 353.8781,146.5406 Q354.1031,146.5406 354.2438,146.7 Q354.3844,146.8594 354.3844,147.225 L354.3844,148.8 L349.5844,148.8 Q349.2094,148.8 349.05,148.6594 Q348.9,148.5187 348.9,148.2844 Q348.9,148.0594 349.0594,147.9188 Q349.2188,147.7781 349.5844,147.7781 L349.7438,147.7781 L349.7438,143.7844 L349.5844,143.7844 Q349.2094,143.7844 349.05,143.6437 Q348.9,143.5031 348.9,143.2687 Q348.9,143.0438 349.05,142.9031 Q349.2094,142.7625 349.5844,142.7625 L354.1594,142.7625 L354.1594,144.3188 Q354.1594,144.6844 354.0188,144.8438 Q353.8875,144.9938 353.6531,144.9938 Q353.4281,144.9938 353.2875,144.8438 Q353.1469,144.6844 353.1469,144.3188 L353.1469,143.7844 L350.7656,143.7844 L350.7656,145.2563 L351.6563,145.2563 Q351.6563,144.8625 351.7313,144.75 Q351.8906,144.5063 352.1719,144.5063 Q352.3969,144.5063 352.5375,144.6656 Q352.6781,144.8156 352.6781,145.1813 L352.6781,146.3625 Q352.6781,146.6906 352.6031,146.8031 Q352.4437,147.0375 352.1719,147.0375 Q351.8906,147.0375 351.7313,146.7938 Q351.6563,146.6813 351.6563,146.2781 L350.7656,146.2781 Z " fill="#000000"/><text fill="#000000" font-family="sans-serif" font-size="8.4" lengthAdjust="spacing" textLength="27.6" x="363.75" y="149.2781">Vendor</text><line style="stroke:#181818;stroke-width:0.3;" x1="317.7" x2="417.9" y1="155.4" y2="155.4"/><ellipse cx="323.7" cy="164.2863" fill="none" rx="1.8" ry="1.8" style="stroke:#038048;stroke-width:0.6;"/><text fill="#000000" font-family="sans-serif" font-size="8.4" lengthAdjust="spacing" textLength="55.2" x="329.1" y="166.8645">VendorID : INT</text><text fill="#000000" font-family="sans-serif" font-size="8.4" lengthAdjust="spacing" textLength="65.4" x="329.1" y="178.0371">name: VARCHAR</text><text fill="#000000" font-family="sans-serif" font-size="8.4" lengthAdjust="spacing" textLength="64.2" x="329.1" y="189.2098">email: VARCHAR</text><text fill="#000000" font-family="sans-serif" font-size="8.4" lengthAdjust="spacing" textLength="68.4" x="329.1" y="200.3824">phone: VARCHAR</text><text fill="#000000" font-family="sans-serif" font-size="8.4" lengthAdjust="spacing" textLength="75" x="329.1" y="211.5551">address: VARCHAR</text><text fill="#000000" font-family="sans-serif" font-size="8.4" lengthAdjust="spacing" textLength="73.2" x="329.1" y="222.7277">pan_no: VARCHAR</text><text fill="#000000" font-family="sans-serif" font-size="8.4" lengthAdjust="spacing" textLength="85.8" x="329.1" y="233.9004">aadhar_no: VARCHAR</text><line style="stroke:#181818;stroke-width:0.3;" x1="317.7" x2="417.9" y1="238.4086" y2="238.4086"/></g><!--link Vendor to Product--><g id="link_Vendor_Product"><path codeLine="100" d="M324.9327,246.9005 C313.2987,262.2845 310.072,266.5516 298.702,281.5876 " fill="none" id="Vendor-Product" style="stroke:#181818;stroke-width:0.6;"/><line style="stroke:#181818;stroke-width:0.6;" x1="324.9327" x2="324.9566" y1="246.9005" y2="240.9005"/><line style="stroke:#181818;stroke-width:0.6;" x1="324.9327" x2="330.6994" y1="246.9005" y2="245.2435"/><line style="stroke:#181818;stroke-width:0.6;" x1="324.9327" x2="327.828" y1="246.9005" y2="243.072"/><line style="stroke:#181818;stroke-width:0.6;" x1="322.2947" x2="326.1232" y1="246.41" y2="249.3053"/><line style="stroke:#181818;stroke-width:0.6;" x1="295.0831" x2="295.0595" y1="286.3734" y2="292.3733"/><line style="stroke:#181818;stroke-width:0.6;" x1="295.0831" x2="289.3165" y1="286.3734" y2="288.0307"/><line style="stroke:#181818;stroke-width:0.6;" x1="295.0831" x2="292.188" y1="286.3734" y2="290.202"/><ellipse cx="297.2545" cy="283.5019" fill="none" rx="2.4" ry="2.4" style="stroke:#181818;stroke-width:0.6;"/><text fill="#000000" font-family="sans-serif" font-size="7.8" lengthAdjust="spacing" textLength="47.4" x="312.6" y="270.017">sells/supplies</text></g><!--link Admin to Product--><g id="link_Admin_Product"><path codeLine="103" d="M175.6812,230.1516 C190.1112,249.4416 198.7004,260.9322 214.2404,281.7042 " fill="none" id="Admin-Product" style="stroke:#181818;stroke-width:0.6;"/><line style="stroke:#181818;stroke-width:0.6;" x1="175.6812" x2="169.9233" y1="230.1516" y2="228.4644"/><line style="stroke:#181818;stroke-width:0.6;" x1="175.6812" x2="175.6887" y1="230.1516" y2="224.1516"/><line style="stroke:#181818;stroke-width:0.6;" x1="175.6812" x2="172.806" y1="230.1516" y2="226.308"/><line style="stroke:#181818;stroke-width:0.6;" x1="174.4782" x2="178.3218" y1="232.5501" y2="229.6749"/><line style="stroke:#181818;stroke-width:0.6;" x1="217.8346" x2="223.5926" y1="286.5085" y2="288.1955"/><line style="stroke:#181818;stroke-width:0.6;" x1="217.8346" x2="217.8274" y1="286.5085" y2="292.5085"/><line style="stroke:#181818;stroke-width:0.6;" x1="217.8346" x2="220.71" y1="286.5085" y2="290.352"/><ellipse cx="215.6781" cy="283.6259" fill="none" rx="2.4" ry="2.4" style="stroke:#181818;stroke-width:0.6;"/><text fill="#000000" font-family="sans-serif" font-size="7.8" lengthAdjust="spacing" textLength="19.2" x="205.2" y="270.017">posts</text></g><!--link Customer to Cart--><g id="link_Customer_Cart"><path codeLine="105" d="M502.3088,59.8721 C447.4628,72.7361 369.258,96.018 306.6,136.2 C299.346,140.85 295.8251,143.4053 289.5191,149.5673 " fill="none" id="Customer-Cart" style="stroke:#181818;stroke-width:0.6;"/><line style="stroke:#181818;stroke-width:0.6;" x1="502.3088" x2="506.1599" y1="59.8721" y2="55.2711"/><line style="stroke:#181818;stroke-width:0.6;" x1="502.3088" x2="507.8041" y1="59.8721" y2="62.2809"/><line style="stroke:#181818;stroke-width:0.6;" x1="502.3088" x2="506.982" y1="59.8721" y2="58.776"/><line style="stroke:#181818;stroke-width:0.6;" x1="500.5925" x2="501.6886" y1="57.8095" y2="62.4827"/><line style="stroke:#181818;stroke-width:0.6;" x1="289.5191" x2="288.602" y1="149.5673" y2="155.4968"/><line style="stroke:#181818;stroke-width:0.6;" x1="289.5191" x2="283.57" y1="149.5673" y2="150.3472"/><line style="stroke:#181818;stroke-width:0.6;" x1="289.5191" x2="286.086" y1="149.5673" y2="152.922"/><line style="stroke:#181818;stroke-width:0.6;" x1="292.0547" x2="288.7" y1="150.4452" y2="147.0121"/><text fill="#000000" font-family="sans-serif" font-size="7.8" lengthAdjust="spacing" textLength="12.6" x="359.4" y="115.817">has</text></g><!--link Customer to Order--><g id="link_Customer_Order"><path codeLine="107" d="M567.2198,93.6975 C569.6978,150.8895 573.4324,236.9801 575.7724,290.9801 " fill="none" id="Customer-Order" style="stroke:#181818;stroke-width:0.6;"/><line style="stroke:#181818;stroke-width:0.6;" x1="567.2198" x2="563.4154" y1="93.6975" y2="89.0578"/><line style="stroke:#181818;stroke-width:0.6;" x1="567.2198" x2="570.6086" y1="93.6975" y2="88.7462"/><line style="stroke:#181818;stroke-width:0.6;" x1="567.2198" x2="567.012" y1="93.6975" y2="88.902"/><line style="stroke:#181818;stroke-width:0.6;" x1="564.874" x2="569.6695" y1="95.0003" y2="94.7925"/><line style="stroke:#181818;stroke-width:0.6;" x1="576.0322" x2="579.8366" y1="296.9745" y2="301.6141"/><line style="stroke:#181818;stroke-width:0.6;" x1="576.0322" x2="572.6434" y1="296.9745" y2="301.9259"/><line style="stroke:#181818;stroke-width:0.6;" x1="576.0322" x2="576.24" y1="296.9745" y2="301.77"/><ellipse cx="575.8763" cy="293.3779" fill="none" rx="2.4" ry="2.4" style="stroke:#181818;stroke-width:0.6;"/><text fill="#000000" font-family="sans-serif" font-size="7.8" lengthAdjust="spacing" textLength="22.8" x="573.6" y="192.917">places</text></g><!--link Customer to Delivery_Address--><g id="link_Customer_Delivery_Address"><path codeLine="109" d="M598.8008,92.7741 C615.1628,115.0101 625.6833,129.2996 640.6113,149.5976 " fill="none" id="Customer-Delivery_Address" style="stroke:#181818;stroke-width:0.6;"/><line style="stroke:#181818;stroke-width:0.6;" x1="598.8008" x2="593.0564" y1="92.7741" y2="91.0416"/><line style="stroke:#181818;stroke-width:0.6;" x1="598.8008" x2="598.8556" y1="92.7741" y2="86.7744"/><line style="stroke:#181818;stroke-width:0.6;" x1="598.8008" x2="595.956" y1="92.7741" y2="88.908"/><line style="stroke:#181818;stroke-width:0.6;" x1="597.579" x2="601.4451" y1="95.1631" y2="92.3182"/><line style="stroke:#181818;stroke-width:0.6;" x1="644.1662" x2="649.9101" y1="154.4311" y2="156.1651"/><line style="stroke:#181818;stroke-width:0.6;" x1="644.1662" x2="644.1099" y1="154.4311" y2="160.4309"/><line style="stroke:#181818;stroke-width:0.6;" x1="644.1662" x2="647.01" y1="154.4311" y2="158.298"/><ellipse cx="642.0333" cy="151.531" fill="none" rx="2.4" ry="2.4" style="stroke:#181818;stroke-width:0.6;"/><text fill="#000000" font-family="sans-serif" font-size="7.8" lengthAdjust="spacing" textLength="12.6" x="618" y="115.817">has</text></g><!--link Customer to Payment--><g id="link_Customer_Payment"><path codeLine="111" d="M540.0956,93.1219 C529.0376,113.3959 523.3554,123.8146 512.7294,143.2966 " fill="none" id="Customer-Payment" style="stroke:#181818;stroke-width:0.6;"/><line style="stroke:#181818;stroke-width:0.6;" x1="540.0956" x2="539.2335" y1="93.1219" y2="87.1842"/><line style="stroke:#181818;stroke-width:0.6;" x1="540.0956" x2="545.5545" y1="93.1219" y2="90.6318"/><line style="stroke:#181818;stroke-width:0.6;" x1="540.0956" x2="542.394" y1="93.1219" y2="88.908"/><line style="stroke:#181818;stroke-width:0.6;" x1="537.414" x2="541.628" y1="93.0262" y2="95.3246"/><line style="stroke:#181818;stroke-width:0.6;" x1="509.8564" x2="510.7185" y1="148.5641" y2="154.5018"/><line style="stroke:#181818;stroke-width:0.6;" x1="509.8564" x2="504.3975" y1="148.5641" y2="151.0542"/><line style="stroke:#181818;stroke-width:0.6;" x1="509.8564" x2="507.558" y1="148.5641" y2="152.778"/><ellipse cx="511.5802" cy="145.4036" fill="none" rx="2.4" ry="2.4" style="stroke:#181818;stroke-width:0.6;"/><text fill="#000000" font-family="sans-serif" font-size="7.8" lengthAdjust="spacing" textLength="23.4" x="531.6" y="115.817">makes</text></g><!--link Product to Category--><g id="link_Product_Category"><path codeLine="113" d="M194.2153,373.6418 C162.9973,391.5758 132.384,410.178 98.4,433.8 C90.972,438.966 91.6917,438.1459 84.5037,443.8399 " fill="none" id="Product-Category" style="stroke:#181818;stroke-width:0.6;"/><line style="stroke:#181818;stroke-width:0.6;" x1="199.4179" x2="201.7867" y1="370.653" y2="365.1404"/><line style="stroke:#181818;stroke-width:0.6;" x1="199.4179" x2="205.3733" y1="370.653" y2="371.3836"/><line style="stroke:#181818;stroke-width:0.6;" x1="199.4179" x2="203.58" y1="370.653" y2="368.262"/><ellipse cx="196.2963" cy="372.4463" fill="none" rx="2.4" ry="2.4" style="stroke:#181818;stroke-width:0.6;"/><line style="stroke:#181818;stroke-width:0.6;" x1="79.8005" x2="78.2734" y1="447.5655" y2="453.3679"/><line style="stroke:#181818;stroke-width:0.6;" x1="79.8005" x2="73.8026" y1="447.5655" y2="447.7241"/><line style="stroke:#181818;stroke-width:0.6;" x1="79.8005" x2="76.038" y1="447.5655" y2="450.546"/><ellipse cx="82.6224" cy="445.3301" fill="none" rx="2.4" ry="2.4" style="stroke:#181818;stroke-width:0.6;"/><text fill="#000000" font-family="sans-serif" font-size="7.8" lengthAdjust="spacing" textLength="36" x="141.6" y="413.417">belongs to</text></g><!--link Product to Size--><g id="link_Product_Size"><path codeLine="115" d="M213.0384,395.1098 C196.4664,416.6498 190.7258,424.1184 176.9918,441.9684 " fill="none" id="Product-Size" style="stroke:#181818;stroke-width:0.6;"/><line style="stroke:#181818;stroke-width:0.6;" x1="216.6971" x2="216.7707" y1="390.3544" y2="384.3548"/><line style="stroke:#181818;stroke-width:0.6;" x1="216.6971" x2="222.4773" y1="390.3544" y2="388.7452"/><line style="stroke:#181818;stroke-width:0.6;" x1="216.6971" x2="219.624" y1="390.3544" y2="386.55"/><ellipse cx="214.5019" cy="393.2076" fill="none" rx="2.4" ry="2.4" style="stroke:#181818;stroke-width:0.6;"/><line style="stroke:#181818;stroke-width:0.6;" x1="173.333" x2="173.2592" y1="446.7237" y2="452.7233"/><line style="stroke:#181818;stroke-width:0.6;" x1="173.333" x2="167.5528" y1="446.7237" y2="448.3327"/><line style="stroke:#181818;stroke-width:0.6;" x1="173.333" x2="170.406" y1="446.7237" y2="450.528"/><ellipse cx="175.5283" cy="443.8705" fill="none" rx="2.4" ry="2.4" style="stroke:#181818;stroke-width:0.6;"/><text fill="#000000" font-family="sans-serif" font-size="7.8" lengthAdjust="spacing" textLength="12.6" x="204.6" y="413.417">has</text></g><!--link Product to Color--><g id="link_Product_Color"><path codeLine="117" d="M256.2,397.35 C256.2,418.89 256.2,421.878 256.2,439.728 " fill="none" id="Product-Color" style="stroke:#181818;stroke-width:0.6;"/><line style="stroke:#181818;stroke-width:0.6;" x1="256.2" x2="252.6" y1="391.35" y2="386.55"/><line style="stroke:#181818;stroke-width:0.6;" x1="256.2" x2="259.8" y1="391.35" y2="386.55"/><line style="stroke:#181818;stroke-width:0.6;" x1="256.2" x2="256.2" y1="391.35" y2="386.55"/><ellipse cx="256.2" cy="394.95" fill="none" rx="2.4" ry="2.4" style="stroke:#181818;stroke-width:0.6;"/><line style="stroke:#181818;stroke-width:0.6;" x1="256.2" x2="259.8" y1="445.728" y2="450.528"/><line style="stroke:#181818;stroke-width:0.6;" x1="256.2" x2="252.6" y1="445.728" y2="450.528"/><line style="stroke:#181818;stroke-width:0.6;" x1="256.2" x2="256.2" y1="445.728" y2="450.528"/><ellipse cx="256.2" cy="442.128" fill="none" rx="2.4" ry="2.4" style="stroke:#181818;stroke-width:0.6;"/><text fill="#000000" font-family="sans-serif" font-size="7.8" lengthAdjust="spacing" textLength="12.6" x="256.8" y="413.417">has</text></g><!--link Cart to Product--><g id="link_Cart_Product"><path codeLine="119" d="M256.2,231.108 C256.2,250.398 256.2,258.78 256.2,279.552 " fill="none" id="Cart-Product" style="stroke:#181818;stroke-width:0.6;"/><line style="stroke:#181818;stroke-width:0.6;" x1="256.2" x2="252.6" y1="231.108" y2="226.308"/><line style="stroke:#181818;stroke-width:0.6;" x1="256.2" x2="259.8" y1="231.108" y2="226.308"/><line style="stroke:#181818;stroke-width:0.6;" x1="256.2" x2="256.2" y1="231.108" y2="226.308"/><line style="stroke:#181818;stroke-width:0.6;" x1="253.8" x2="258.6" y1="232.308" y2="232.308"/><line style="stroke:#181818;stroke-width:0.6;" x1="256.2" x2="259.8" y1="285.552" y2="290.352"/><line style="stroke:#181818;stroke-width:0.6;" x1="256.2" x2="252.6" y1="285.552" y2="290.352"/><line style="stroke:#181818;stroke-width:0.6;" x1="256.2" x2="256.2" y1="285.552" y2="290.352"/><ellipse cx="256.2" cy="281.952" fill="none" rx="2.4" ry="2.4" style="stroke:#181818;stroke-width:0.6;"/><text fill="#000000" font-family="sans-serif" font-size="7.8" lengthAdjust="spacing" textLength="29.4" x="256.8" y="270.017">contains</text></g><!--link Payment to Order--><g id="link_Payment_Order"><path codeLine="121" d="M512.3134,230.4059 C526.2634,253.2779 539.235,274.5599 553.197,297.4559 " fill="none" id="Payment-Order" style="stroke:#181818;stroke-width:0.6;"/><line style="stroke:#181818;stroke-width:0.6;" x1="512.3134" x2="506.7406" y1="230.4059" y2="228.1825"/><line style="stroke:#181818;stroke-width:0.6;" x1="512.3134" x2="512.8874" y1="230.4059" y2="224.4335"/><line style="stroke:#181818;stroke-width:0.6;" x1="512.3134" x2="509.814" y1="230.4059" y2="226.308"/><line style="stroke:#181818;stroke-width:0.6;" x1="510.8893" x2="514.9872" y1="232.6801" y2="230.1807"/><line style="stroke:#181818;stroke-width:0.6;" x1="553.197" x2="558.7696" y1="297.4559" y2="299.6797"/><line style="stroke:#181818;stroke-width:0.6;" x1="553.197" x2="552.6224" y1="297.4559" y2="303.4283"/><line style="stroke:#181818;stroke-width:0.6;" x1="553.197" x2="555.696" y1="297.4559" y2="301.554"/><line style="stroke:#181818;stroke-width:0.6;" x1="554.6213" x2="550.5231" y1="295.1818" y2="297.6808"/><text fill="#000000" font-family="sans-serif" font-size="7.8" lengthAdjust="spacing" textLength="12.6" x="535.8" y="270.017">has</text></g><!--link Shipping to Order--><g id="link_Shipping_Order"><path codeLine="123" d="M723.9827,87.6576 C739.2047,128.9376 754.794,192.81 727.2,243 C704.814,283.716 661.1879,307.6283 625.5839,321.8423 " fill="none" id="Shipping-Order" style="stroke:#181818;stroke-width:0.6;"/><line style="stroke:#181818;stroke-width:0.6;" x1="723.9827" x2="718.9443" y1="87.6576" y2="84.3995"/><line style="stroke:#181818;stroke-width:0.6;" x1="723.9827" x2="725.6997" y1="87.6576" y2="81.9085"/><line style="stroke:#181818;stroke-width:0.6;" x1="723.9827" x2="722.322" y1="87.6576" y2="83.154"/><line style="stroke:#181818;stroke-width:0.6;" x1="722.1461" x2="726.6496" y1="89.6138" y2="87.9531"/><line style="stroke:#181818;stroke-width:0.6;" x1="625.5839" x2="622.4608" y1="321.8423" y2="326.9654"/><line style="stroke:#181818;stroke-width:0.6;" x1="625.5839" x2="619.7912" y1="321.8423" y2="320.2786"/><line style="stroke:#181818;stroke-width:0.6;" x1="625.5839" x2="621.126" y1="321.8423" y2="323.622"/><line style="stroke:#181818;stroke-width:0.6;" x1="627.5882" x2="625.8085" y1="323.6263" y2="319.1684"/><text fill="#000000" font-family="sans-serif" font-size="7.8" lengthAdjust="spacing" textLength="12.6" x="742.2" y="192.917">has</text></g><!--link Shipping to Delivery_Address--><g id="link_Shipping_Delivery_Address"><path codeLine="125" d="M696.0975,87.9173 C690.0315,111.0713 686.191,125.7046 680.419,147.7366 " fill="none" id="Shipping-Delivery_Address" style="stroke:#181818;stroke-width:0.6;"/><line style="stroke:#181818;stroke-width:0.6;" x1="696.0975" x2="693.8315" y1="87.9173" y2="82.3616"/><line style="stroke:#181818;stroke-width:0.6;" x1="696.0975" x2="700.7965" y1="87.9173" y2="84.1864"/><line style="stroke:#181818;stroke-width:0.6;" x1="696.0975" x2="697.314" y1="87.9173" y2="83.274"/><line style="stroke:#181818;stroke-width:0.6;" x1="693.4718" x2="698.1151" y1="88.4699" y2="89.6864"/><line style="stroke:#181818;stroke-width:0.6;" x1="678.8985" x2="681.1645" y1="153.5407" y2="159.0963"/><line style="stroke:#181818;stroke-width:0.6;" x1="678.8985" x2="674.1995" y1="153.5407" y2="157.2717"/><line style="stroke:#181818;stroke-width:0.6;" x1="678.8985" x2="677.682" y1="153.5407" y2="158.184"/><ellipse cx="679.8108" cy="150.0582" fill="none" rx="2.4" ry="2.4" style="stroke:#181818;stroke-width:0.6;"/><text fill="#000000" font-family="sans-serif" font-size="7.8" lengthAdjust="spacing" textLength="12.6" x="690.6" y="115.817">has</text></g><!--link Product to Review--><g id="link_Product_Review"><path codeLine="127" d="M302.1425,394.8927 C314.7305,410.2047 318.6726,415.0014 330.8946,429.8754 " fill="none" id="Product-Review" style="stroke:#181818;stroke-width:0.6;"/><line style="stroke:#181818;stroke-width:0.6;" x1="298.3322" x2="292.5031" y1="390.2579" y2="388.8362"/><line style="stroke:#181818;stroke-width:0.6;" x1="298.3322" x2="298.0649" y1="390.2579" y2="384.2638"/><line style="stroke:#181818;stroke-width:0.6;" x1="298.3322" x2="295.284" y1="390.2579" y2="386.55"/><ellipse cx="300.6184" cy="393.0388" fill="none" rx="2.4" ry="2.4" style="stroke:#181818;stroke-width:0.6;"/><line style="stroke:#181818;stroke-width:0.6;" x1="330.8946" x2="336.7234" y1="429.8754" y2="431.2985"/><line style="stroke:#181818;stroke-width:0.6;" x1="330.8946" x2="331.1606" y1="429.8754" y2="435.8695"/><line style="stroke:#181818;stroke-width:0.6;" x1="330.8946" x2="333.942" y1="429.8754" y2="433.584"/><line style="stroke:#181818;stroke-width:0.6;" x1="331.9871" x2="328.2785" y1="427.4246" y2="430.4719"/><text fill="#000000" font-family="sans-serif" font-size="7.8" lengthAdjust="spacing" textLength="12.6" x="319.2" y="413.417">has</text></g><!--link Product to Brand--><g id="link_Product_Brand"><path codeLine="129" d="M318.3999,369.9141 C353.2179,387.8241 389.796,408.03 428.4,433.8 C436.02,438.888 440.147,441.8241 447.413,447.5781 " fill="none" id="Product-Brand" style="stroke:#181818;stroke-width:0.6;"/><line style="stroke:#181818;stroke-width:0.6;" x1="313.0644" x2="307.1493" y1="367.1696" y2="368.1753"/><line style="stroke:#181818;stroke-width:0.6;" x1="313.0644" x2="310.4427" y1="367.1696" y2="361.7727"/><line style="stroke:#181818;stroke-width:0.6;" x1="313.0644" x2="308.796" y1="367.1696" y2="364.974"/><ellipse cx="316.2657" cy="368.8163" fill="none" rx="2.4" ry="2.4" style="stroke:#181818;stroke-width:0.6;"/><line style="stroke:#181818;stroke-width:0.6;" x1="447.413" x2="453.4109" y1="447.5781" y2="447.7358"/><line style="stroke:#181818;stroke-width:0.6;" x1="447.413" x2="448.9411" y1="447.5781" y2="453.3802"/><line style="stroke:#181818;stroke-width:0.6;" x1="447.413" x2="451.176" y1="447.5781" y2="450.558"/><line style="stroke:#181818;stroke-width:0.6;" x1="447.9622" x2="444.9823" y1="444.9516" y2="448.7146"/><text fill="#000000" font-family="sans-serif" font-size="7.8" lengthAdjust="spacing" textLength="36" x="397.2" y="413.417">belongs to</text></g><!--SRC=[bLR1Rjim3BtxAuHSTXYAtNlpaW8hq6LTKlHQgBRQ2BKbGv9JP6d_VHH5kPBjP5rF94C-KazFT8LoqXtOegnRgHQCMuOMEnQCVGtszOfTiklr7KJMl1NWt9URvOzo0u6hbiicYznoQr-rgPFWUr48QhFihTEjCDWfEjGikl_Nhwnh8wpDPzXf9TPz-mZOisFS6bttbSCfoAOXo3itmqhOoiZEIQso-7V3LPtFOMJbQrTNo-kVvGr4javNBpTYBnh2JxdXJZnhSmZSa1Ev8VVqN0dGLluH2E8D0l3cfugNkj5qFTwA_RtzkNfk79t0k65wap8wSz5Jsd_tF21EUFfbQX8GMjG3xQGU_HNGvlalxwxc-suTTxqz8H9-QC4E8Wbs54dmnjqIlsnr3-dfrLDHEbBIR2KQkHVcy41wngxZuF0gqJlFwFHTf0hPoQwJwZceX9oe57BFdMuoG2mwSRgDs4lnYjs2IRs2SrO7CqVRSEV77J9qYtSpUr9ybDWuFC_G5-rFoVbUg9hUGp2BW12S1481HFhsXTzKQS3_TNunZOCyi3d9vUf1wKaohtVSP3_0j5y0bkrn95PnnQne6jPoTM1T8DGMOM3s_dPneO_3qhja2vzhlzc-wnefx8B0E7u5F5QdhHjXXK_45Cgd0W82L76vxu0w3C0IA8QLxulVZc59G2KaZUkmTyDXWM9pxJLeSm3e7bQ0x-rJPq5sV4yODRsdIBcOuasUtEdXMlv2k5rusbEqk3O0n6Txc8n9n7aKZGOvEnt0AbhrHIJsNIFMy4K0i51YeMOMyUF45jQ-7IFXPs4uLre-ggxyrf-KX-z2pek_nhns40jUyLGhbLQEInKHY48Y121gmPwWZVyDhxw8N99oXel_c0BpFiRm8KjxgHYMtEdoc9iZa5HoW7yAPPvFW-ik9nHcePKuUoDZYNZmHx-znY3nluzC6ty1]--></g></svg>